M48
; DRILL file {KiCad (6.0.11)} date Sat Feb 11 17:54:07 2023
; FORMAT={-:-/ absolute / metric / decimal}
; #@! TF.CreationDate,2023-02-11T17:54:07+01:00
; #@! TF.GenerationSoftware,Kicad,Pcbnew,(6.0.11)
; #@! TF.FileFunction,MixedPlating,1,4
FMAT,2
METRIC
; #@! TA.AperFunction,Plated,PTH,ViaDrill
T1C0.300
; #@! TA.AperFunction,Plated,PTH,ComponentDrill
T2C0.300
; #@! TA.AperFunction,Plated,PTH,ViaDrill
T3C0.500
; #@! TA.AperFunction,Plated,PTH,ComponentDrill
T4C0.600
; #@! TA.AperFunction,Plated,PTH,ComponentDrill
T5C2.200
; #@! TA.AperFunction,NonPlated,NPTH,ComponentDrill
T6C0.650
; #@! TA.AperFunction,NonPlated,NPTH,ComponentDrill
T7C2.000
; #@! TA.AperFunction,NonPlated,NPTH,ComponentDrill
T8C2.200
%
G90
G05
T1
X12.048Y78.11
X12.048Y61.61
X12.048Y45.11
X12.048Y28.61
X12.048Y12.11
X13.728Y78.153
X13.728Y61.653
X13.728Y45.153
X13.728Y28.653
X13.728Y12.153
X14.2Y75.6
X14.2Y59.1
X14.2Y42.6
X14.2Y26.1
X14.2Y9.6
X15.0Y75.2
X15.0Y58.7
X15.0Y42.2
X15.0Y25.7
X15.0Y9.2
X15.8Y75.6
X15.8Y59.1
X15.8Y42.6
X15.8Y26.1
X15.8Y9.6
X16.268Y78.153
X16.268Y61.653
X16.268Y45.153
X16.268Y28.653
X16.268Y12.153
X16.821Y79.0
X16.821Y62.5
X16.821Y46.0
X16.821Y29.5
X16.821Y13.0
X19.648Y78.4
X19.648Y61.9
X19.648Y45.4
X19.648Y28.9
X19.648Y12.4
X22.048Y78.11
X22.048Y61.61
X22.048Y45.11
X22.048Y28.61
X22.048Y12.11
X31.048Y78.11
X31.048Y61.61
X31.048Y45.11
X31.048Y28.61
X31.048Y12.11
X32.728Y78.153
X32.728Y61.653
X32.728Y45.153
X32.728Y28.653
X32.728Y12.153
X33.2Y75.6
X33.2Y59.1
X33.2Y42.6
X33.2Y26.1
X33.2Y9.6
X34.0Y75.2
X34.0Y58.7
X34.0Y42.2
X34.0Y25.7
X34.0Y9.2
X34.8Y75.6
X34.8Y59.1
X34.8Y42.6
X34.8Y26.1
X34.8Y9.6
X35.268Y78.153
X35.268Y61.653
X35.268Y45.153
X35.268Y28.653
X35.268Y12.153
X35.821Y79.0
X35.821Y62.5
X35.821Y46.0
X35.821Y29.5
X35.821Y13.0
X38.648Y78.4
X38.648Y61.9
X38.648Y45.4
X38.648Y28.9
X38.648Y12.4
X41.048Y78.11
X41.048Y61.61
X41.048Y45.11
X41.048Y28.61
X41.048Y12.11
X50.048Y78.11
X50.048Y61.61
X50.048Y45.11
X50.048Y28.61
X50.048Y12.11
X51.728Y78.153
X51.728Y61.653
X51.728Y45.153
X51.728Y28.653
X51.728Y12.153
X52.2Y75.6
X52.2Y59.1
X52.2Y42.6
X52.2Y26.1
X52.2Y9.6
X53.0Y75.2
X53.0Y58.7
X53.0Y42.2
X53.0Y25.7
X53.0Y9.2
X53.8Y75.6
X53.8Y59.1
X53.8Y42.6
X53.8Y26.1
X53.8Y9.6
X54.268Y78.153
X54.268Y61.653
X54.268Y45.153
X54.268Y28.653
X54.268Y12.153
X54.821Y79.0
X54.821Y62.5
X54.821Y46.0
X54.821Y29.5
X54.821Y13.0
X57.648Y78.4
X57.648Y61.9
X57.648Y45.4
X57.648Y28.9
X57.648Y12.4
X60.048Y78.11
X60.048Y61.61
X60.048Y45.11
X60.048Y28.61
X60.048Y12.11
X69.048Y78.11
X69.048Y61.61
X69.048Y45.11
X69.048Y28.61
X69.048Y12.11
X70.728Y78.153
X70.728Y61.653
X70.728Y45.153
X70.728Y28.653
X70.728Y12.153
X71.2Y75.6
X71.2Y59.1
X71.2Y42.6
X71.2Y26.1
X71.2Y9.6
X72.0Y75.2
X72.0Y58.7
X72.0Y42.2
X72.0Y25.7
X72.0Y9.2
X72.8Y75.6
X72.8Y59.1
X72.8Y42.6
X72.8Y26.1
X72.8Y9.6
X73.268Y78.153
X73.268Y61.653
X73.268Y45.153
X73.268Y28.653
X73.268Y12.153
X73.821Y79.0
X73.821Y62.5
X73.821Y46.0
X73.821Y29.5
X73.821Y13.0
X76.648Y78.4
X76.648Y61.9
X76.648Y45.4
X76.648Y28.9
X76.648Y12.4
X79.048Y78.11
X79.048Y61.61
X79.048Y45.11
X79.048Y28.61
X79.048Y12.11
X88.048Y78.11
X88.048Y61.61
X88.048Y45.11
X88.048Y28.61
X88.048Y12.11
X89.728Y78.153
X89.728Y61.653
X89.728Y45.153
X89.728Y28.653
X89.728Y12.153
X90.2Y75.6
X90.2Y59.1
X90.2Y42.6
X90.2Y26.1
X90.2Y9.6
X91.0Y75.2
X91.0Y58.7
X91.0Y42.2
X91.0Y25.7
X91.0Y9.2
X91.8Y75.6
X91.8Y59.1
X91.8Y42.6
X91.8Y26.1
X91.8Y9.6
X92.268Y78.153
X92.268Y61.653
X92.268Y45.153
X92.268Y28.653
X92.268Y12.153
X92.821Y79.0
X92.821Y62.5
X92.821Y46.0
X92.821Y29.5
X92.821Y13.0
X95.648Y78.4
X95.648Y61.9
X95.648Y45.4
X95.648Y28.9
X95.648Y12.4
X98.048Y78.11
X98.048Y61.61
X98.048Y45.11
X98.048Y28.61
X98.048Y12.11
T2
X11.55Y73.45
X11.55Y72.65
X11.55Y56.95
X11.55Y56.15
X11.55Y40.45
X11.55Y39.65
X11.55Y23.95
X11.55Y23.15
X11.55Y7.45
X11.55Y6.65
X11.9Y73.05
X11.9Y56.55
X11.9Y40.05
X11.9Y23.55
X11.9Y7.05
X12.25Y73.45
X12.25Y72.65
X12.25Y56.95
X12.25Y56.15
X12.25Y40.45
X12.25Y39.65
X12.25Y23.95
X12.25Y23.15
X12.25Y7.45
X12.25Y6.65
X17.75Y73.45
X17.75Y72.65
X17.75Y56.95
X17.75Y56.15
X17.75Y40.45
X17.75Y39.65
X17.75Y23.95
X17.75Y23.15
X17.75Y7.45
X17.75Y6.65
X18.1Y73.05
X18.1Y56.55
X18.1Y40.05
X18.1Y23.55
X18.1Y7.05
X18.45Y73.45
X18.45Y72.65
X18.45Y56.95
X18.45Y56.15
X18.45Y40.45
X18.45Y39.65
X18.45Y23.95
X18.45Y23.15
X18.45Y7.45
X18.45Y6.65
X30.55Y73.45
X30.55Y72.65
X30.55Y56.95
X30.55Y56.15
X30.55Y40.45
X30.55Y39.65
X30.55Y23.95
X30.55Y23.15
X30.55Y7.45
X30.55Y6.65
X30.9Y73.05
X30.9Y56.55
X30.9Y40.05
X30.9Y23.55
X30.9Y7.05
X31.25Y73.45
X31.25Y72.65
X31.25Y56.95
X31.25Y56.15
X31.25Y40.45
X31.25Y39.65
X31.25Y23.95
X31.25Y23.15
X31.25Y7.45
X31.25Y6.65
X36.75Y73.45
X36.75Y72.65
X36.75Y56.95
X36.75Y56.15
X36.75Y40.45
X36.75Y39.65
X36.75Y23.95
X36.75Y23.15
X36.75Y7.45
X36.75Y6.65
X37.1Y73.05
X37.1Y56.55
X37.1Y40.05
X37.1Y23.55
X37.1Y7.05
X37.45Y73.45
X37.45Y72.65
X37.45Y56.95
X37.45Y56.15
X37.45Y40.45
X37.45Y39.65
X37.45Y23.95
X37.45Y23.15
X37.45Y7.45
X37.45Y6.65
X49.55Y73.45
X49.55Y72.65
X49.55Y56.95
X49.55Y56.15
X49.55Y40.45
X49.55Y39.65
X49.55Y23.95
X49.55Y23.15
X49.55Y7.45
X49.55Y6.65
X49.9Y73.05
X49.9Y56.55
X49.9Y40.05
X49.9Y23.55
X49.9Y7.05
X50.25Y73.45
X50.25Y72.65
X50.25Y56.95
X50.25Y56.15
X50.25Y40.45
X50.25Y39.65
X50.25Y23.95
X50.25Y23.15
X50.25Y7.45
X50.25Y6.65
X55.75Y73.45
X55.75Y72.65
X55.75Y56.95
X55.75Y56.15
X55.75Y40.45
X55.75Y39.65
X55.75Y23.95
X55.75Y23.15
X55.75Y7.45
X55.75Y6.65
X56.1Y73.05
X56.1Y56.55
X56.1Y40.05
X56.1Y23.55
X56.1Y7.05
X56.45Y73.45
X56.45Y72.65
X56.45Y56.95
X56.45Y56.15
X56.45Y40.45
X56.45Y39.65
X56.45Y23.95
X56.45Y23.15
X56.45Y7.45
X56.45Y6.65
X68.55Y73.45
X68.55Y72.65
X68.55Y56.95
X68.55Y56.15
X68.55Y40.45
X68.55Y39.65
X68.55Y23.95
X68.55Y23.15
X68.55Y7.45
X68.55Y6.65
X68.9Y73.05
X68.9Y56.55
X68.9Y40.05
X68.9Y23.55
X68.9Y7.05
X69.25Y73.45
X69.25Y72.65
X69.25Y56.95
X69.25Y56.15
X69.25Y40.45
X69.25Y39.65
X69.25Y23.95
X69.25Y23.15
X69.25Y7.45
X69.25Y6.65
X74.75Y73.45
X74.75Y72.65
X74.75Y56.95
X74.75Y56.15
X74.75Y40.45
X74.75Y39.65
X74.75Y23.95
X74.75Y23.15
X74.75Y7.45
X74.75Y6.65
X75.1Y73.05
X75.1Y56.55
X75.1Y40.05
X75.1Y23.55
X75.1Y7.05
X75.45Y73.45
X75.45Y72.65
X75.45Y56.95
X75.45Y56.15
X75.45Y40.45
X75.45Y39.65
X75.45Y23.95
X75.45Y23.15
X75.45Y7.45
X75.45Y6.65
X87.55Y73.45
X87.55Y72.65
X87.55Y56.95
X87.55Y56.15
X87.55Y40.45
X87.55Y39.65
X87.55Y23.95
X87.55Y23.15
X87.55Y7.45
X87.55Y6.65
X87.9Y73.05
X87.9Y56.55
X87.9Y40.05
X87.9Y23.55
X87.9Y7.05
X88.25Y73.45
X88.25Y72.65
X88.25Y56.95
X88.25Y56.15
X88.25Y40.45
X88.25Y39.65
X88.25Y23.95
X88.25Y23.15
X88.25Y7.45
X88.25Y6.65
X93.75Y73.45
X93.75Y72.65
X93.75Y56.95
X93.75Y56.15
X93.75Y40.45
X93.75Y39.65
X93.75Y23.95
X93.75Y23.15
X93.75Y7.45
X93.75Y6.65
X94.1Y73.05
X94.1Y56.55
X94.1Y40.05
X94.1Y23.55
X94.1Y7.05
X94.45Y73.45
X94.45Y72.65
X94.45Y56.95
X94.45Y56.15
X94.45Y40.45
X94.45Y39.65
X94.45Y23.95
X94.45Y23.15
X94.45Y7.45
X94.45Y6.65
T3
X8.236Y78.153
X8.236Y61.653
X8.236Y45.153
X8.236Y28.653
X8.236Y12.153
X9.486Y84.036
X9.486Y67.536
X9.486Y51.036
X9.486Y34.536
X9.486Y18.036
X11.617Y75.6
X11.617Y59.1
X11.617Y42.6
X11.617Y26.1
X11.617Y9.6
X12.398Y79.6
X12.398Y63.1
X12.398Y46.6
X12.398Y30.1
X12.398Y13.6
X17.598Y79.606
X17.598Y63.106
X17.598Y46.606
X17.598Y30.106
X17.598Y13.606
X27.236Y78.153
X27.236Y61.653
X27.236Y45.153
X27.236Y28.653
X27.236Y12.153
X28.486Y84.036
X28.486Y67.536
X28.486Y51.036
X28.486Y34.536
X28.486Y18.036
X30.617Y75.6
X30.617Y59.1
X30.617Y42.6
X30.617Y26.1
X30.617Y9.6
X31.398Y79.6
X31.398Y63.1
X31.398Y46.6
X31.398Y30.1
X31.398Y13.6
X36.598Y79.606
X36.598Y63.106
X36.598Y46.606
X36.598Y30.106
X36.598Y13.606
X46.236Y78.153
X46.236Y61.653
X46.236Y45.153
X46.236Y28.653
X46.236Y12.153
X47.486Y84.036
X47.486Y67.536
X47.486Y51.036
X47.486Y34.536
X47.486Y18.036
X49.617Y75.6
X49.617Y59.1
X49.617Y42.6
X49.617Y26.1
X49.617Y9.6
X50.398Y79.6
X50.398Y63.1
X50.398Y46.6
X50.398Y30.1
X50.398Y13.6
X55.598Y79.606
X55.598Y63.106
X55.598Y46.606
X55.598Y30.106
X55.598Y13.606
X65.236Y78.153
X65.236Y61.653
X65.236Y45.153
X65.236Y28.653
X65.236Y12.153
X66.486Y84.036
X66.486Y67.536
X66.486Y51.036
X66.486Y34.536
X66.486Y18.036
X68.617Y75.6
X68.617Y59.1
X68.617Y42.6
X68.617Y26.1
X68.617Y9.6
X69.398Y79.6
X69.398Y63.1
X69.398Y46.6
X69.398Y30.1
X69.398Y13.6
X74.598Y79.606
X74.598Y63.106
X74.598Y46.606
X74.598Y30.106
X74.598Y13.606
X84.236Y78.153
X84.236Y61.653
X84.236Y45.153
X84.236Y28.653
X84.236Y12.153
X85.486Y84.036
X85.486Y67.536
X85.486Y51.036
X85.486Y34.536
X85.486Y18.036
X87.617Y75.6
X87.617Y59.1
X87.617Y42.6
X87.617Y26.1
X87.617Y9.6
X88.398Y79.6
X88.398Y63.1
X88.398Y46.6
X88.398Y30.1
X88.398Y13.6
X93.598Y79.606
X93.598Y63.106
X93.598Y46.606
X93.598Y30.106
X93.598Y13.606
T5
X22.0Y86.5
X22.0Y70.0
X22.0Y53.5
X22.0Y37.0
X22.0Y20.5
X41.0Y86.5
X41.0Y70.0
X41.0Y53.5
X41.0Y37.0
X41.0Y20.5
X60.0Y86.5
X60.0Y70.0
X60.0Y53.5
X60.0Y37.0
X60.0Y20.5
X79.0Y86.5
X79.0Y70.0
X79.0Y53.5
X79.0Y37.0
X79.0Y20.5
X98.0Y86.5
X98.0Y70.0
X98.0Y53.5
X98.0Y37.0
X98.0Y20.5
T6
X12.108Y82.251
X12.108Y65.751
X12.108Y49.251
X12.108Y32.751
X12.108Y16.251
X17.888Y82.251
X17.888Y65.751
X17.888Y49.251
X17.888Y32.751
X17.888Y16.251
X31.108Y82.251
X31.108Y65.751
X31.108Y49.251
X31.108Y32.751
X31.108Y16.251
X36.888Y82.251
X36.888Y65.751
X36.888Y49.251
X36.888Y32.751
X36.888Y16.251
X50.108Y82.251
X50.108Y65.751
X50.108Y49.251
X50.108Y32.751
X50.108Y16.251
X55.888Y82.251
X55.888Y65.751
X55.888Y49.251
X55.888Y32.751
X55.888Y16.251
X69.108Y82.251
X69.108Y65.751
X69.108Y49.251
X69.108Y32.751
X69.108Y16.251
X74.888Y82.251
X74.888Y65.751
X74.888Y49.251
X74.888Y32.751
X74.888Y16.251
X88.108Y82.251
X88.108Y65.751
X88.108Y49.251
X88.108Y32.751
X88.108Y16.251
X93.888Y82.251
X93.888Y65.751
X93.888Y49.251
X93.888Y32.751
X93.888Y16.251
T7
X2.5Y92.0
X2.5Y2.5
X103.5Y92.0
T8
X8.0Y86.5
X8.0Y74.0
X8.0Y70.0
X8.0Y57.5
X8.0Y53.5
X8.0Y41.0
X8.0Y37.0
X8.0Y24.5
X8.0Y20.5
X8.0Y8.0
X22.0Y74.0
X22.0Y57.5
X22.0Y41.0
X22.0Y24.5
X22.0Y8.0
X27.0Y86.5
X27.0Y74.0
X27.0Y70.0
X27.0Y57.5
X27.0Y53.5
X27.0Y41.0
X27.0Y37.0
X27.0Y24.5
X27.0Y20.5
X27.0Y8.0
X41.0Y74.0
X41.0Y57.5
X41.0Y41.0
X41.0Y24.5
X41.0Y8.0
X46.0Y86.5
X46.0Y74.0
X46.0Y70.0
X46.0Y57.5
X46.0Y53.5
X46.0Y41.0
X46.0Y37.0
X46.0Y24.5
X46.0Y20.5
X46.0Y8.0
X60.0Y74.0
X60.0Y57.5
X60.0Y41.0
X60.0Y24.5
X60.0Y8.0
X65.0Y86.5
X65.0Y74.0
X65.0Y70.0
X65.0Y57.5
X65.0Y53.5
X65.0Y41.0
X65.0Y37.0
X65.0Y24.5
X65.0Y20.5
X65.0Y8.0
X79.0Y74.0
X79.0Y57.5
X79.0Y41.0
X79.0Y24.5
X79.0Y8.0
X84.0Y86.5
X84.0Y74.0
X84.0Y70.0
X84.0Y57.5
X84.0Y53.5
X84.0Y41.0
X84.0Y37.0
X84.0Y24.5
X84.0Y20.5
X84.0Y8.0
X98.0Y74.0
X98.0Y57.5
X98.0Y41.0
X98.0Y24.5
X98.0Y8.0
T4
X10.698Y85.6G85X10.698Y86.2
G05
X10.698Y81.15G85X10.698Y82.25
G05
X10.698Y69.1G85X10.698Y69.7
G05
X10.698Y64.65G85X10.698Y65.75
G05
X10.698Y52.6G85X10.698Y53.2
G05
X10.698Y48.15G85X10.698Y49.25
G05
X10.698Y36.1G85X10.698Y36.7
G05
X10.698Y31.65G85X10.698Y32.75
G05
X10.698Y19.6G85X10.698Y20.2
G05
X10.698Y15.15G85X10.698Y16.25
G05
X19.298Y85.6G85X19.298Y86.2
G05
X19.298Y81.15G85X19.298Y82.25
G05
X19.298Y69.1G85X19.298Y69.7
G05
X19.298Y64.65G85X19.298Y65.75
G05
X19.298Y52.6G85X19.298Y53.2
G05
X19.298Y48.15G85X19.298Y49.25
G05
X19.298Y36.1G85X19.298Y36.7
G05
X19.298Y31.65G85X19.298Y32.75
G05
X19.298Y19.6G85X19.298Y20.2
G05
X19.298Y15.15G85X19.298Y16.25
G05
X29.698Y85.6G85X29.698Y86.2
G05
X29.698Y81.15G85X29.698Y82.25
G05
X29.698Y69.1G85X29.698Y69.7
G05
X29.698Y64.65G85X29.698Y65.75
G05
X29.698Y52.6G85X29.698Y53.2
G05
X29.698Y48.15G85X29.698Y49.25
G05
X29.698Y36.1G85X29.698Y36.7
G05
X29.698Y31.65G85X29.698Y32.75
G05
X29.698Y19.6G85X29.698Y20.2
G05
X29.698Y15.15G85X29.698Y16.25
G05
X38.298Y85.6G85X38.298Y86.2
G05
X38.298Y81.15G85X38.298Y82.25
G05
X38.298Y69.1G85X38.298Y69.7
G05
X38.298Y64.65G85X38.298Y65.75
G05
X38.298Y52.6G85X38.298Y53.2
G05
X38.298Y48.15G85X38.298Y49.25
G05
X38.298Y36.1G85X38.298Y36.7
G05
X38.298Y31.65G85X38.298Y32.75
G05
X38.298Y19.6G85X38.298Y20.2
G05
X38.298Y15.15G85X38.298Y16.25
G05
X48.698Y85.6G85X48.698Y86.2
G05
X48.698Y81.15G85X48.698Y82.25
G05
X48.698Y69.1G85X48.698Y69.7
G05
X48.698Y64.65G85X48.698Y65.75
G05
X48.698Y52.6G85X48.698Y53.2
G05
X48.698Y48.15G85X48.698Y49.25
G05
X48.698Y36.1G85X48.698Y36.7
G05
X48.698Y31.65G85X48.698Y32.75
G05
X48.698Y19.6G85X48.698Y20.2
G05
X48.698Y15.15G85X48.698Y16.25
G05
X57.298Y85.6G85X57.298Y86.2
G05
X57.298Y81.15G85X57.298Y82.25
G05
X57.298Y69.1G85X57.298Y69.7
G05
X57.298Y64.65G85X57.298Y65.75
G05
X57.298Y52.6G85X57.298Y53.2
G05
X57.298Y48.15G85X57.298Y49.25
G05
X57.298Y36.1G85X57.298Y36.7
G05
X57.298Y31.65G85X57.298Y32.75
G05
X57.298Y19.6G85X57.298Y20.2
G05
X57.298Y15.15G85X57.298Y16.25
G05
X67.698Y85.6G85X67.698Y86.2
G05
X67.698Y81.15G85X67.698Y82.25
G05
X67.698Y69.1G85X67.698Y69.7
G05
X67.698Y64.65G85X67.698Y65.75
G05
X67.698Y52.6G85X67.698Y53.2
G05
X67.698Y48.15G85X67.698Y49.25
G05
X67.698Y36.1G85X67.698Y36.7
G05
X67.698Y31.65G85X67.698Y32.75
G05
X67.698Y19.6G85X67.698Y20.2
G05
X67.698Y15.15G85X67.698Y16.25
G05
X76.298Y85.6G85X76.298Y86.2
G05
X76.298Y81.15G85X76.298Y82.25
G05
X76.298Y69.1G85X76.298Y69.7
G05
X76.298Y64.65G85X76.298Y65.75
G05
X76.298Y52.6G85X76.298Y53.2
G05
X76.298Y48.15G85X76.298Y49.25
G05
X76.298Y36.1G85X76.298Y36.7
G05
X76.298Y31.65G85X76.298Y32.75
G05
X76.298Y19.6G85X76.298Y20.2
G05
X76.298Y15.15G85X76.298Y16.25
G05
X86.698Y85.6G85X86.698Y86.2
G05
X86.698Y81.15G85X86.698Y82.25
G05
X86.698Y69.1G85X86.698Y69.7
G05
X86.698Y64.65G85X86.698Y65.75
G05
X86.698Y52.6G85X86.698Y53.2
G05
X86.698Y48.15G85X86.698Y49.25
G05
X86.698Y36.1G85X86.698Y36.7
G05
X86.698Y31.65G85X86.698Y32.75
G05
X86.698Y19.6G85X86.698Y20.2
G05
X86.698Y15.15G85X86.698Y16.25
G05
X95.298Y85.6G85X95.298Y86.2
G05
X95.298Y81.15G85X95.298Y82.25
G05
X95.298Y69.1G85X95.298Y69.7
G05
X95.298Y64.65G85X95.298Y65.75
G05
X95.298Y52.6G85X95.298Y53.2
G05
X95.298Y48.15G85X95.298Y49.25
G05
X95.298Y36.1G85X95.298Y36.7
G05
X95.298Y31.65G85X95.298Y32.75
G05
X95.298Y19.6G85X95.298Y20.2
G05
X95.298Y15.15G85X95.298Y16.25
G05
T0
M30
