G04 #@! TF.GenerationSoftware,KiCad,Pcbnew,(6.0.11)*
G04 #@! TF.CreationDate,2023-02-11T17:54:07+01:00*
G04 #@! TF.ProjectId,UDB-panel,5544422d-7061-46e6-956c-2e6b69636164,C4-RC1*
G04 #@! TF.SameCoordinates,Original*
G04 #@! TF.FileFunction,Other,Comment*
%FSLAX46Y46*%
G04 Gerber Fmt 4.6, Leading zero omitted, Abs format (unit mm)*
G04 Created by KiCad (PCBNEW (6.0.11)) date 2023-02-11 17:54:07*
%MOMM*%
%LPD*%
G01*
G04 APERTURE LIST*
%ADD10C,0.400000*%
%ADD11C,0.150000*%
G04 APERTURE END LIST*
D10*
X100000000Y97500000D02*
X100000000Y-3000000D01*
X-3000000Y39000000D02*
X109000000Y39000000D01*
X-3000000Y88500000D02*
X109000000Y88500000D01*
X6000000Y97500000D02*
X6000000Y-3000000D01*
X-3000000Y55500000D02*
X109000000Y55500000D01*
X-3000000Y72000000D02*
X109000000Y72000000D01*
X-3000000Y22500000D02*
X109000000Y22500000D01*
X-3000000Y6000000D02*
X109000000Y6000000D01*
X98904761Y100950477D02*
X100904761Y101617143D01*
X98904761Y102283810D01*
X100142857Y102950477D02*
X100142857Y104474286D01*
X100714285Y106569524D02*
X100809523Y106474286D01*
X100904761Y106188572D01*
X100904761Y105998096D01*
X100809523Y105712381D01*
X100619047Y105521905D01*
X100428571Y105426667D01*
X100047619Y105331429D01*
X99761904Y105331429D01*
X99380952Y105426667D01*
X99190476Y105521905D01*
X99000000Y105712381D01*
X98904761Y105998096D01*
X98904761Y106188572D01*
X99000000Y106474286D01*
X99095238Y106569524D01*
X98904761Y107426667D02*
X100523809Y107426667D01*
X100714285Y107521905D01*
X100809523Y107617143D01*
X100904761Y107807620D01*
X100904761Y108188572D01*
X100809523Y108379048D01*
X100714285Y108474286D01*
X100523809Y108569524D01*
X98904761Y108569524D01*
X98904761Y109236191D02*
X98904761Y110379048D01*
X100904761Y109807620D02*
X98904761Y109807620D01*
X112450476Y73095239D02*
X113117142Y71095239D01*
X113783809Y73095239D01*
X114450476Y71857143D02*
X115974285Y71857143D01*
X118069523Y71285715D02*
X117974285Y71190477D01*
X117688571Y71095239D01*
X117498095Y71095239D01*
X117212380Y71190477D01*
X117021904Y71380953D01*
X116926666Y71571429D01*
X116831428Y71952381D01*
X116831428Y72238096D01*
X116926666Y72619048D01*
X117021904Y72809524D01*
X117212380Y73000000D01*
X117498095Y73095239D01*
X117688571Y73095239D01*
X117974285Y73000000D01*
X118069523Y72904762D01*
X118926666Y73095239D02*
X118926666Y71476191D01*
X119021904Y71285715D01*
X119117142Y71190477D01*
X119307619Y71095239D01*
X119688571Y71095239D01*
X119879047Y71190477D01*
X119974285Y71285715D01*
X120069523Y71476191D01*
X120069523Y73095239D01*
X120736190Y73095239D02*
X121879047Y73095239D01*
X121307619Y71095239D02*
X121307619Y73095239D01*
X112450476Y23595239D02*
X113117142Y21595239D01*
X113783809Y23595239D01*
X114450476Y22357143D02*
X115974285Y22357143D01*
X118069523Y21785715D02*
X117974285Y21690477D01*
X117688571Y21595239D01*
X117498095Y21595239D01*
X117212380Y21690477D01*
X117021904Y21880953D01*
X116926666Y22071429D01*
X116831428Y22452381D01*
X116831428Y22738096D01*
X116926666Y23119048D01*
X117021904Y23309524D01*
X117212380Y23500000D01*
X117498095Y23595239D01*
X117688571Y23595239D01*
X117974285Y23500000D01*
X118069523Y23404762D01*
X118926666Y23595239D02*
X118926666Y21976191D01*
X119021904Y21785715D01*
X119117142Y21690477D01*
X119307619Y21595239D01*
X119688571Y21595239D01*
X119879047Y21690477D01*
X119974285Y21785715D01*
X120069523Y21976191D01*
X120069523Y23595239D01*
X120736190Y23595239D02*
X121879047Y23595239D01*
X121307619Y21595239D02*
X121307619Y23595239D01*
X112450476Y56595239D02*
X113117142Y54595239D01*
X113783809Y56595239D01*
X114450476Y55357143D02*
X115974285Y55357143D01*
X118069523Y54785715D02*
X117974285Y54690477D01*
X117688571Y54595239D01*
X117498095Y54595239D01*
X117212380Y54690477D01*
X117021904Y54880953D01*
X116926666Y55071429D01*
X116831428Y55452381D01*
X116831428Y55738096D01*
X116926666Y56119048D01*
X117021904Y56309524D01*
X117212380Y56500000D01*
X117498095Y56595239D01*
X117688571Y56595239D01*
X117974285Y56500000D01*
X118069523Y56404762D01*
X118926666Y56595239D02*
X118926666Y54976191D01*
X119021904Y54785715D01*
X119117142Y54690477D01*
X119307619Y54595239D01*
X119688571Y54595239D01*
X119879047Y54690477D01*
X119974285Y54785715D01*
X120069523Y54976191D01*
X120069523Y56595239D01*
X120736190Y56595239D02*
X121879047Y56595239D01*
X121307619Y54595239D02*
X121307619Y56595239D01*
X4904761Y100950477D02*
X6904761Y101617143D01*
X4904761Y102283810D01*
X6142857Y102950477D02*
X6142857Y104474286D01*
X6714285Y106569524D02*
X6809523Y106474286D01*
X6904761Y106188572D01*
X6904761Y105998096D01*
X6809523Y105712381D01*
X6619047Y105521905D01*
X6428571Y105426667D01*
X6047619Y105331429D01*
X5761904Y105331429D01*
X5380952Y105426667D01*
X5190476Y105521905D01*
X5000000Y105712381D01*
X4904761Y105998096D01*
X4904761Y106188572D01*
X5000000Y106474286D01*
X5095238Y106569524D01*
X4904761Y107426667D02*
X6523809Y107426667D01*
X6714285Y107521905D01*
X6809523Y107617143D01*
X6904761Y107807620D01*
X6904761Y108188572D01*
X6809523Y108379048D01*
X6714285Y108474286D01*
X6523809Y108569524D01*
X4904761Y108569524D01*
X4904761Y109236191D02*
X4904761Y110379048D01*
X6904761Y109807620D02*
X4904761Y109807620D01*
X112450476Y7095239D02*
X113117142Y5095239D01*
X113783809Y7095239D01*
X114450476Y5857143D02*
X115974285Y5857143D01*
X118069523Y5285715D02*
X117974285Y5190477D01*
X117688571Y5095239D01*
X117498095Y5095239D01*
X117212380Y5190477D01*
X117021904Y5380953D01*
X116926666Y5571429D01*
X116831428Y5952381D01*
X116831428Y6238096D01*
X116926666Y6619048D01*
X117021904Y6809524D01*
X117212380Y7000000D01*
X117498095Y7095239D01*
X117688571Y7095239D01*
X117974285Y7000000D01*
X118069523Y6904762D01*
X118926666Y7095239D02*
X118926666Y5476191D01*
X119021904Y5285715D01*
X119117142Y5190477D01*
X119307619Y5095239D01*
X119688571Y5095239D01*
X119879047Y5190477D01*
X119974285Y5285715D01*
X120069523Y5476191D01*
X120069523Y7095239D01*
X120736190Y7095239D02*
X121879047Y7095239D01*
X121307619Y5095239D02*
X121307619Y7095239D01*
X112450476Y40095239D02*
X113117142Y38095239D01*
X113783809Y40095239D01*
X114450476Y38857143D02*
X115974285Y38857143D01*
X118069523Y38285715D02*
X117974285Y38190477D01*
X117688571Y38095239D01*
X117498095Y38095239D01*
X117212380Y38190477D01*
X117021904Y38380953D01*
X116926666Y38571429D01*
X116831428Y38952381D01*
X116831428Y39238096D01*
X116926666Y39619048D01*
X117021904Y39809524D01*
X117212380Y40000000D01*
X117498095Y40095239D01*
X117688571Y40095239D01*
X117974285Y40000000D01*
X118069523Y39904762D01*
X118926666Y40095239D02*
X118926666Y38476191D01*
X119021904Y38285715D01*
X119117142Y38190477D01*
X119307619Y38095239D01*
X119688571Y38095239D01*
X119879047Y38190477D01*
X119974285Y38285715D01*
X120069523Y38476191D01*
X120069523Y40095239D01*
X120736190Y40095239D02*
X121879047Y40095239D01*
X121307619Y38095239D02*
X121307619Y40095239D01*
X112450476Y89595239D02*
X113117142Y87595239D01*
X113783809Y89595239D01*
X114450476Y88357143D02*
X115974285Y88357143D01*
X118069523Y87785715D02*
X117974285Y87690477D01*
X117688571Y87595239D01*
X117498095Y87595239D01*
X117212380Y87690477D01*
X117021904Y87880953D01*
X116926666Y88071429D01*
X116831428Y88452381D01*
X116831428Y88738096D01*
X116926666Y89119048D01*
X117021904Y89309524D01*
X117212380Y89500000D01*
X117498095Y89595239D01*
X117688571Y89595239D01*
X117974285Y89500000D01*
X118069523Y89404762D01*
X118926666Y89595239D02*
X118926666Y87976191D01*
X119021904Y87785715D01*
X119117142Y87690477D01*
X119307619Y87595239D01*
X119688571Y87595239D01*
X119879047Y87690477D01*
X119974285Y87785715D01*
X120069523Y87976191D01*
X120069523Y89595239D01*
X120736190Y89595239D02*
X121879047Y89595239D01*
X121307619Y87595239D02*
X121307619Y89595239D01*
D11*
G04 #@! TO.C,J1*
X48198000Y88620000D02*
X57798000Y88620000D01*
X48198000Y22620000D02*
X57798000Y22620000D01*
X67198000Y39120000D02*
X76798000Y39120000D01*
X29198000Y22620000D02*
X38798000Y22620000D01*
X86198000Y22620000D02*
X95798000Y22620000D01*
X48198000Y72120000D02*
X57798000Y72120000D01*
X67198000Y55620000D02*
X76798000Y55620000D01*
X10198000Y55620000D02*
X19798000Y55620000D01*
X29198000Y88620000D02*
X38798000Y88620000D01*
X10198000Y72120000D02*
X19798000Y72120000D01*
X29198000Y39120000D02*
X38798000Y39120000D01*
X29198000Y72120000D02*
X38798000Y72120000D01*
X86198000Y55620000D02*
X95798000Y55620000D01*
X86198000Y72120000D02*
X95798000Y72120000D01*
X67198000Y72120000D02*
X76798000Y72120000D01*
X86198000Y39120000D02*
X95798000Y39120000D01*
X10198000Y39120000D02*
X19798000Y39120000D01*
X29198000Y55620000D02*
X38798000Y55620000D01*
X67198000Y88620000D02*
X76798000Y88620000D01*
X67198000Y22620000D02*
X76798000Y22620000D01*
X10198000Y22620000D02*
X19798000Y22620000D01*
X48198000Y55620000D02*
X57798000Y55620000D01*
X10198000Y88620000D02*
X19798000Y88620000D01*
X48198000Y39120000D02*
X57798000Y39120000D01*
X86198000Y88620000D02*
X95798000Y88620000D01*
G04 #@! TD*
M02*
