G04 #@! TF.GenerationSoftware,KiCad,Pcbnew,(6.0.11)*
G04 #@! TF.CreationDate,2023-02-11T17:54:07+01:00*
G04 #@! TF.ProjectId,UDB-panel,5544422d-7061-46e6-956c-2e6b69636164,C4-RC1*
G04 #@! TF.SameCoordinates,Original*
G04 #@! TF.FileFunction,Profile,NP*
%FSLAX46Y46*%
G04 Gerber Fmt 4.6, Leading zero omitted, Abs format (unit mm)*
G04 Created by KiCad (PCBNEW (6.0.11)) date 2023-02-11 17:54:07*
%MOMM*%
%LPD*%
G01*
G04 APERTURE LIST*
G04 #@! TA.AperFunction,Profile*
%ADD10C,0.100000*%
G04 #@! TD*
G04 APERTURE END LIST*
D10*
X25251306Y87470604D02*
X25204390Y87380789D01*
X61581551Y54724212D02*
X61517516Y54802745D01*
X6302711Y72942072D02*
X6358473Y72857464D01*
X79694610Y22375505D02*
X79598726Y22408279D01*
X23997433Y86601299D02*
X23989738Y86702337D01*
X41101298Y22497434D02*
X41000000Y22500000D01*
X63204390Y21380789D02*
X63162084Y21288712D01*
X22101298Y55497434D02*
X22000000Y55500000D01*
X82942071Y55197289D02*
X82857463Y55141527D01*
X45119211Y6204391D02*
X45211288Y6162085D01*
X25162084Y23711289D02*
X25204390Y23619212D01*
X7401273Y71908279D02*
X7305389Y71875505D01*
X99837915Y70788712D02*
X99795609Y70880789D01*
X99581551Y54724212D02*
X99517516Y54802745D01*
X42224211Y71581552D02*
X42142536Y71641527D01*
X25550414Y56122067D02*
X25622066Y56050415D01*
X63550414Y87877934D02*
X63482483Y87802745D01*
X25482483Y39697256D02*
X25550414Y39622067D01*
X25063845Y7498695D02*
X25091721Y7401274D01*
X63204390Y40119212D02*
X63251306Y40029397D01*
X44857463Y6358474D02*
X44942071Y6302712D01*
X26898701Y88497434D02*
X26797663Y88489739D01*
X82697255Y55982484D02*
X82775788Y55918449D01*
X60402597Y88459060D02*
X60302855Y88476937D01*
X98598726Y38908279D02*
X98501305Y38936155D01*
X6775788Y88081552D02*
X6697255Y88017517D01*
X42959059Y37402598D02*
X42936154Y37501306D01*
X25010261Y70202337D02*
X25002566Y70101299D01*
X44124495Y54194611D02*
X44091721Y54098727D01*
X45305389Y38875505D02*
X45211288Y38837916D01*
X41402597Y55540941D02*
X41501305Y55563846D01*
X44124495Y40305390D02*
X44162084Y40211289D01*
X44204390Y87380789D02*
X44162084Y87288712D01*
X82358473Y72857464D02*
X82418448Y72775789D01*
X98598726Y71908279D02*
X98501305Y71936155D01*
X98788711Y6162085D02*
X98880788Y6204391D01*
X41302855Y6023064D02*
X41302855Y6023064D01*
X44251306Y21470604D02*
X44204390Y21380789D01*
X42697288Y56442072D02*
X42748693Y56529397D01*
X60970603Y38748694D02*
X60880788Y38795610D01*
X64597402Y55540941D02*
X64697144Y55523064D01*
X45211288Y72162085D02*
X45305389Y72124496D01*
X45305389Y6124496D02*
X45401273Y6091722D01*
X46000000Y39000000D02*
X45898701Y38997434D01*
X44358473Y39857464D02*
X44418448Y39775789D01*
X82697255Y22017517D02*
X82622066Y21949586D01*
X61697288Y39942072D02*
X61748693Y40029397D01*
X82040940Y40597403D02*
X82063845Y40498695D01*
X82023063Y53802856D02*
X82010261Y53702337D01*
X80641526Y6857464D02*
X80697288Y6942072D01*
X44622066Y21949586D02*
X44550414Y21877934D01*
X61142536Y22858474D02*
X61224211Y22918449D01*
X6697255Y55017517D02*
X6622066Y54949586D01*
X42837915Y87288712D02*
X42795609Y87380789D01*
X22000000Y6000000D02*
X22101298Y6002567D01*
X25091721Y7401274D02*
X25124495Y7305390D01*
X7597402Y22459060D02*
X7498694Y22436155D01*
X44550414Y39622067D02*
X44622066Y39550415D01*
X60970603Y72251307D02*
X61057928Y72302712D01*
X45498694Y88436155D02*
X45401273Y88408279D01*
X82002566Y24398702D02*
X82010261Y24297664D01*
X41598726Y6091722D02*
X41694610Y6124496D01*
X42936154Y70501306D02*
X42908278Y70598727D01*
X23936154Y37501306D02*
X23908278Y37598727D01*
X22694610Y88375505D02*
X22598726Y88408279D01*
X61959059Y7597403D02*
X61976936Y7697145D01*
X82000000Y74000000D02*
X82002566Y73898702D01*
X64305389Y6124496D02*
X64401273Y6091722D01*
X44091721Y21098727D02*
X44063845Y21001306D01*
X23997433Y20601299D02*
X23989738Y20702337D01*
X99837915Y37788712D02*
X99795609Y37880789D01*
X61795609Y54380789D02*
X61748693Y54470604D01*
X99748693Y70970604D02*
X99697288Y71057929D01*
X7498694Y38936155D02*
X7401273Y38908279D01*
X60302855Y38976937D02*
X60202336Y38989739D01*
X105707106Y94207107D02*
X105634393Y94273011D01*
X25418448Y23275789D02*
X25482483Y23197256D01*
X79101298Y39002567D02*
X79202336Y39010262D01*
X82040940Y73597403D02*
X82063845Y73498695D01*
X99976936Y73697145D02*
X99989738Y73797664D01*
X6063845Y23998695D02*
X6091721Y23901274D01*
X45029396Y55248694D02*
X44942071Y55197289D01*
X60694610Y22624496D02*
X60788711Y22662085D01*
X98101298Y6002567D02*
X98202336Y6010262D01*
X63010261Y70202337D02*
X63002566Y70101299D01*
X44302711Y23442072D02*
X44358473Y23357464D01*
X7029396Y39251307D02*
X7119211Y39204391D01*
X6124495Y56805390D02*
X6162084Y56711289D01*
X81000000Y74000000D02*
X81000000Y86500000D01*
X64401273Y55591722D02*
X64498694Y55563846D01*
X63000000Y53500000D02*
X63000000Y41000000D01*
X82697255Y22982484D02*
X82775788Y22918449D01*
X79598726Y22591722D02*
X79694610Y22624496D01*
X42795609Y87380789D02*
X42748693Y87470604D01*
X64029396Y38748694D02*
X63942071Y38697289D01*
X60302855Y6023064D02*
X60402597Y6040941D01*
X22880788Y88295610D02*
X22788711Y88337916D01*
X25482483Y71302745D02*
X25418448Y71224212D01*
X25000000Y74000000D02*
X25002566Y73898702D01*
X64797663Y71989739D02*
X64697144Y71976937D01*
X64119211Y55704391D02*
X64211288Y55662085D01*
X64029396Y88248694D02*
X63942071Y88197289D01*
X79501305Y88436155D02*
X79402597Y88459060D01*
X22788711Y39162085D02*
X22880788Y39204391D01*
X60101298Y38997434D02*
X60000000Y39000000D01*
X82002566Y40898702D02*
X82010261Y40797664D01*
X44418448Y39775789D02*
X44482483Y39697256D01*
X98694610Y55624496D02*
X98788711Y55662085D01*
X26797663Y38989739D02*
X26697144Y38976937D01*
X26119211Y6204391D02*
X26211288Y6162085D01*
X42976936Y24197145D02*
X42989738Y24297664D01*
X83401273Y71908279D02*
X83305389Y71875505D01*
X6040940Y37402598D02*
X6023063Y37302856D01*
X82775788Y22081552D02*
X82697255Y22017517D01*
X25010261Y86702337D02*
X25002566Y86601299D01*
X99989738Y70202337D02*
X99976936Y70302856D01*
X63358473Y54642537D02*
X63302711Y54557929D01*
X80224211Y55918449D02*
X80302744Y55982484D01*
X82550414Y39622067D02*
X82622066Y39550415D01*
X9000000Y89500000D02*
X9000000Y88500000D01*
X25010261Y7797664D02*
X25023063Y7697145D01*
X7597402Y39040941D02*
X7697144Y39023064D01*
X99641526Y54642537D02*
X99581551Y54724212D01*
X80697288Y39942072D02*
X80748693Y40029397D01*
X80057928Y72302712D02*
X80142536Y72358474D01*
X168530Y444430D02*
X226989Y365607D01*
X41970603Y22248694D02*
X41880788Y22295610D01*
X63550414Y39622067D02*
X63622066Y39550415D01*
X60970603Y39251307D02*
X61057928Y39302712D01*
X64119211Y39204391D02*
X64211288Y39162085D01*
X99302744Y55982484D02*
X99377933Y56050415D01*
X23142536Y55141527D02*
X23057928Y55197289D01*
X80302744Y71517517D02*
X80224211Y71581552D01*
X6040940Y70402598D02*
X6023063Y70302856D01*
X83597402Y39040941D02*
X83697144Y39023064D01*
X23302744Y6482484D02*
X23377933Y6550415D01*
X82162084Y40211289D02*
X82204390Y40119212D01*
X105555570Y94331470D02*
X105471396Y94381922D01*
X6162084Y54288712D02*
X6124495Y54194611D01*
X44251306Y56529397D02*
X44302711Y56442072D01*
X22598726Y38908279D02*
X22501305Y38936155D01*
X25857463Y88141527D02*
X25775788Y88081552D01*
X23302744Y88017517D02*
X23224211Y88081552D01*
X6002566Y86601299D02*
X6000000Y86500000D01*
X61581551Y39775789D02*
X61641526Y39857464D01*
X79598726Y39091722D02*
X79694610Y39124496D01*
X25622066Y54949586D02*
X25550414Y54877934D01*
X82358473Y54642537D02*
X82302711Y54557929D01*
X63942071Y55197289D02*
X63857463Y55141527D01*
X82302711Y6942072D02*
X82358473Y6857464D01*
X60202336Y22489739D02*
X60101298Y22497434D01*
X80959059Y37402598D02*
X80936154Y37501306D01*
X98970603Y55248694D02*
X98880788Y55295610D01*
X42908278Y23901274D02*
X42936154Y23998695D01*
X64211288Y38837916D02*
X64119211Y38795610D01*
X80697288Y23442072D02*
X80748693Y23529397D01*
X44204390Y7119212D02*
X44251306Y7029397D01*
X42989738Y24297664D02*
X42997433Y24398702D01*
X42997433Y24398702D02*
X43000000Y24500000D01*
X63857463Y22141527D02*
X63775788Y22081552D01*
X99989738Y53702337D02*
X99976936Y53802856D01*
X25622066Y71449586D02*
X25550414Y71377934D01*
X23976936Y20802856D02*
X23959059Y20902598D01*
X6124495Y23805390D02*
X6162084Y23711289D01*
X42795609Y70880789D02*
X42748693Y70970604D01*
X22598726Y39091722D02*
X22694610Y39124496D01*
X42377933Y38449586D02*
X42302744Y38517517D01*
X61449585Y54877934D02*
X61377933Y54949586D01*
X45898701Y22497434D02*
X45797663Y22489739D01*
X80641526Y21642537D02*
X80581551Y21724212D01*
X80837915Y73211289D02*
X80875504Y73305390D01*
X25040940Y57097403D02*
X25063845Y56998695D01*
X82418448Y21724212D02*
X82358473Y21642537D01*
X25002566Y57398702D02*
X25010261Y57297664D01*
X45797663Y88489739D02*
X45697144Y88476937D01*
X82857463Y71641527D02*
X82775788Y71581552D01*
X80989738Y53702337D02*
X80976936Y53802856D01*
X23837915Y73211289D02*
X23875504Y73305390D01*
X99976936Y86802856D02*
X99959059Y86902598D01*
X45898701Y22502567D02*
X46000000Y22500000D01*
X63418448Y21724212D02*
X63358473Y21642537D01*
X25010261Y73797664D02*
X25023063Y73697145D01*
X25204390Y56619212D02*
X25251306Y56529397D01*
X45029396Y71748694D02*
X44942071Y71697289D01*
X82002566Y70101299D02*
X82000000Y70000000D01*
X44000000Y74000000D02*
X44002566Y73898702D01*
X63010261Y86702337D02*
X63002566Y86601299D01*
X99581551Y56275789D02*
X99641526Y56357464D01*
X7797663Y88489739D02*
X7697144Y88476937D01*
X9000000Y5000000D02*
X5000000Y5000000D01*
X82857463Y39358474D02*
X82942071Y39302712D01*
X82622066Y71449586D02*
X82550414Y71377934D01*
X23377933Y71449586D02*
X23302744Y71517517D01*
X105773010Y365607D02*
X105831469Y444430D01*
X63251306Y40029397D02*
X63302711Y39942072D01*
X41598726Y39091722D02*
X41694610Y39124496D01*
X41302855Y72023064D02*
X41402597Y72040941D01*
X60101298Y22502567D02*
X60202336Y22510262D01*
X42936154Y37501306D02*
X42908278Y37598727D01*
X106000000Y1000000D02*
X106000000Y93500000D01*
X63091721Y73401274D02*
X63124495Y73305390D01*
X99224211Y55918449D02*
X99302744Y55982484D01*
X22202336Y55510262D02*
X22302855Y55523064D01*
X101000000Y5000000D02*
X97000000Y5000000D01*
X84000000Y6000000D02*
X85000000Y6000000D01*
X98598726Y22408279D02*
X98501305Y22436155D01*
X80581551Y6775789D02*
X80641526Y6857464D01*
X22101298Y22497434D02*
X22000000Y22500000D01*
X83211288Y38837916D02*
X83119211Y38795610D01*
X26305389Y22624496D02*
X26401273Y22591722D01*
X26211288Y6162085D02*
X26305389Y6124496D01*
X44857463Y72358474D02*
X44942071Y72302712D01*
X42748693Y37970604D02*
X42697288Y38057929D01*
X98101298Y6002567D02*
X98101298Y6002567D01*
X46000000Y72000000D02*
X45898701Y71997434D01*
X83211288Y6162085D02*
X83305389Y6124496D01*
X80959059Y53902598D02*
X80936154Y54001306D01*
X97000000Y6000000D02*
X98000000Y6000000D01*
X25358473Y38142537D02*
X25302711Y38057929D01*
X25000000Y8000000D02*
X25002566Y7898702D01*
X6023063Y40697145D02*
X6040940Y40597403D01*
X63775788Y22918449D02*
X63857463Y22858474D01*
X64797663Y39010262D02*
X64898701Y39002567D01*
X23057928Y22802712D02*
X23142536Y22858474D01*
X63063845Y37501306D02*
X63040940Y37402598D01*
X26211288Y22337916D02*
X26119211Y22295610D01*
X22880788Y39204391D02*
X22970603Y39251307D01*
X25091721Y23901274D02*
X25124495Y23805390D01*
X26401273Y72091722D02*
X26498694Y72063846D01*
X99697288Y23442072D02*
X99748693Y23529397D01*
X23142536Y38641527D02*
X23057928Y38697289D01*
X63302711Y56442072D02*
X63358473Y56357464D01*
X41970603Y39251307D02*
X42057928Y39302712D01*
X45401273Y22408279D02*
X45305389Y22375505D01*
X99989738Y73797664D02*
X99997433Y73898702D01*
X6550414Y6622067D02*
X6622066Y6550415D01*
X23936154Y21001306D02*
X23908278Y21098727D01*
X99517516Y72697256D02*
X99581551Y72775789D01*
X26898701Y55502567D02*
X27000000Y55500000D01*
X7119211Y22295610D02*
X7029396Y22248694D01*
X61449585Y72622067D02*
X61517516Y72697256D01*
X63040940Y73597403D02*
X63063845Y73498695D01*
X6124495Y40305390D02*
X6162084Y40211289D01*
X99976936Y70302856D02*
X99959059Y70402598D01*
X25023063Y73697145D02*
X25040940Y73597403D01*
X98788711Y39162085D02*
X98880788Y39204391D01*
X45597402Y22540941D02*
X45697144Y22523064D01*
X82002566Y20601299D02*
X82000000Y20500000D01*
X44063845Y23998695D02*
X44091721Y23901274D01*
X80517516Y87802745D02*
X80449585Y87877934D01*
X44010261Y53702337D02*
X44002566Y53601299D01*
X25091721Y56901274D02*
X25124495Y56805390D01*
X22880788Y6204391D02*
X22970603Y6251307D01*
X44162084Y7211289D02*
X44204390Y7119212D01*
X23697288Y39942072D02*
X23748693Y40029397D01*
X25091721Y54098727D02*
X25063845Y54001306D01*
X78000000Y88500000D02*
X78000000Y89500000D01*
X98501305Y55563846D02*
X98598726Y55591722D01*
X44000000Y37000000D02*
X44000000Y24500000D01*
X26119211Y22704391D02*
X26211288Y22662085D01*
X25063845Y21001306D02*
X25040940Y20902598D01*
X22598726Y88408279D02*
X22501305Y88436155D01*
X44482483Y23197256D02*
X44550414Y23122067D01*
X99997433Y53601299D02*
X99989738Y53702337D01*
X60302855Y55523064D02*
X60402597Y55540941D01*
X45305389Y71875505D02*
X45211288Y71837916D01*
X79694610Y6124496D02*
X79788711Y6162085D01*
X83797663Y55510262D02*
X83898701Y55502567D01*
X82697255Y55017517D02*
X82622066Y54949586D01*
X45498694Y6063846D02*
X45597402Y6040941D01*
X83029396Y55751307D02*
X83119211Y55704391D01*
X60302855Y72023064D02*
X60402597Y72040941D01*
X44023063Y37302856D02*
X44010261Y37202337D01*
X45498694Y72063846D02*
X45597402Y72040941D01*
X82942071Y39302712D02*
X83029396Y39251307D01*
X28000000Y5000000D02*
X21000000Y5000000D01*
X6040940Y40597403D02*
X6063845Y40498695D01*
X41788711Y55337916D02*
X41694610Y55375505D01*
X22501305Y22563846D02*
X22598726Y22591722D01*
X79101298Y38997434D02*
X79000000Y39000000D01*
X6124495Y54194611D02*
X6091721Y54098727D01*
X98880788Y55704391D02*
X98970603Y55751307D01*
X63775788Y6418449D02*
X63857463Y6358474D01*
X45029396Y6251307D02*
X45119211Y6204391D01*
X80581551Y21724212D02*
X80517516Y21802745D01*
X6023063Y7697145D02*
X6040940Y7597403D01*
X79970603Y88248694D02*
X79880788Y88295610D01*
X25697255Y6482484D02*
X25775788Y6418449D01*
X61837915Y70788712D02*
X61795609Y70880789D01*
X98101298Y72002567D02*
X98202336Y72010262D01*
X64305389Y22375505D02*
X64211288Y22337916D01*
X23989738Y73797664D02*
X23997433Y73898702D01*
X44942071Y55197289D02*
X44857463Y55141527D01*
X44162084Y23711289D02*
X44204390Y23619212D01*
X82775788Y22918449D02*
X82857463Y22858474D01*
X60694610Y22375505D02*
X60598726Y22408279D01*
X99449585Y39622067D02*
X99517516Y39697256D01*
X61875504Y70694611D02*
X61837915Y70788712D01*
X61641526Y56357464D02*
X61697288Y56442072D01*
X23377933Y38449586D02*
X23302744Y38517517D01*
X60788711Y71837916D02*
X60694610Y71875505D01*
X80908278Y56901274D02*
X80936154Y56998695D01*
X83029396Y72251307D02*
X83119211Y72204391D01*
X99517516Y87802745D02*
X99449585Y87877934D01*
X6040940Y73597403D02*
X6063845Y73498695D01*
X61581551Y72775789D02*
X61641526Y72857464D01*
X79302855Y22476937D02*
X79202336Y22489739D01*
X80976936Y73697145D02*
X80989738Y73797664D01*
X79101298Y55502567D02*
X79202336Y55510262D01*
X7697144Y55523064D02*
X7797663Y55510262D01*
X44857463Y22141527D02*
X44775788Y22081552D01*
X42837915Y21288712D02*
X42795609Y21380789D01*
X83797663Y88489739D02*
X83697144Y88476937D01*
X6418448Y38224212D02*
X6358473Y38142537D01*
X25775788Y71581552D02*
X25697255Y71517517D01*
X61908278Y73401274D02*
X61936154Y73498695D01*
X23837915Y40211289D02*
X23875504Y40305390D01*
X8000000Y6000000D02*
X9000000Y6000000D01*
X25302711Y39942072D02*
X25358473Y39857464D01*
X44942071Y22197289D02*
X44857463Y22141527D01*
X6162084Y7211289D02*
X6204390Y7119212D01*
X80057928Y88197289D02*
X79970603Y88248694D01*
X7498694Y39063846D02*
X7597402Y39040941D01*
X23908278Y73401274D02*
X23936154Y73498695D01*
X99697288Y87557929D02*
X99641526Y87642537D01*
X83401273Y55591722D02*
X83498694Y55563846D01*
X23837915Y54288712D02*
X23795609Y54380789D01*
X24000000Y57500000D02*
X24000000Y70000000D01*
X64498694Y71936155D02*
X64401273Y71908279D01*
X44358473Y38142537D02*
X44302711Y38057929D01*
X63162084Y87288712D02*
X63124495Y87194611D01*
X98302855Y38976937D02*
X98202336Y38989739D01*
X42989738Y37202337D02*
X42976936Y37302856D01*
X99748693Y37970604D02*
X99697288Y38057929D01*
X63162084Y70788712D02*
X63124495Y70694611D01*
X82775788Y71581552D02*
X82697255Y71517517D01*
X83305389Y22624496D02*
X83401273Y22591722D01*
X42302744Y72482484D02*
X42377933Y72550415D01*
X83898701Y55497434D02*
X83797663Y55489739D01*
X76120Y617317D02*
X118078Y528604D01*
X42449585Y39622067D02*
X42517516Y39697256D01*
X23837915Y21288712D02*
X23795609Y21380789D01*
X61976936Y70302856D02*
X61959059Y70402598D01*
X82775788Y55918449D02*
X82857463Y55858474D01*
X61224211Y71581552D02*
X61142536Y71641527D01*
X25302711Y56442072D02*
X25358473Y56357464D01*
X7119211Y88295610D02*
X7029396Y88248694D01*
X42936154Y73498695D02*
X42959059Y73597403D01*
X44023063Y20802856D02*
X44010261Y20702337D01*
X25000000Y53500000D02*
X25000000Y41000000D01*
X6002566Y40898702D02*
X6010261Y40797664D01*
X99976936Y24197145D02*
X99989738Y24297664D01*
X63124495Y23805390D02*
X63162084Y23711289D01*
X6162084Y40211289D02*
X6204390Y40119212D01*
X44942071Y72302712D02*
X45029396Y72251307D01*
X23997433Y70101299D02*
X23989738Y70202337D01*
X60694610Y39124496D02*
X60788711Y39162085D01*
X23697288Y38057929D02*
X23641526Y38142537D01*
X63000000Y70000000D02*
X63000000Y57500000D01*
X79880788Y55704391D02*
X79970603Y55751307D01*
X6775788Y71581552D02*
X6697255Y71517517D01*
X41101298Y55502567D02*
X41202336Y55510262D01*
X42581551Y56275789D02*
X42641526Y56357464D01*
X80224211Y55081552D02*
X80142536Y55141527D01*
X60202336Y71989739D02*
X60101298Y71997434D01*
X66000000Y89500000D02*
X66000000Y88500000D01*
X6482483Y87802745D02*
X6418448Y87724212D01*
X6302711Y6942072D02*
X6358473Y6857464D01*
X63162084Y37788712D02*
X63124495Y37694611D01*
X6857463Y55858474D02*
X6942071Y55802712D01*
X41694610Y88375505D02*
X41598726Y88408279D01*
X60694610Y55375505D02*
X60598726Y55408279D01*
X79501305Y38936155D02*
X79402597Y38959060D01*
X42224211Y39418449D02*
X42302744Y39482484D01*
X63000000Y37000000D02*
X63000000Y24500000D01*
X25023063Y70302856D02*
X25010261Y70202337D01*
X23959059Y86902598D02*
X23936154Y87001306D01*
X60788711Y6162085D02*
X60880788Y6204391D01*
X60501305Y88436155D02*
X60402597Y88459060D01*
X60202336Y55489739D02*
X60101298Y55497434D01*
X6622066Y39550415D02*
X6697255Y39482484D01*
X63063845Y23998695D02*
X63091721Y23901274D01*
X22302855Y39023064D02*
X22402597Y39040941D01*
X45401273Y6091722D02*
X45498694Y6063846D01*
X41788711Y55662085D02*
X41880788Y55704391D01*
X98402597Y71959060D02*
X98302855Y71976937D01*
X41880788Y38795610D02*
X41788711Y38837916D01*
X23976936Y24197145D02*
X23989738Y24297664D01*
X42989738Y40797664D02*
X42997433Y40898702D01*
X26797663Y55489739D02*
X26697144Y55476937D01*
X22788711Y55337916D02*
X22694610Y55375505D01*
X61997433Y53601299D02*
X61989738Y53702337D01*
X23976936Y73697145D02*
X23989738Y73797664D01*
X23837915Y56711289D02*
X23875504Y56805390D01*
X63622066Y38449586D02*
X63550414Y38377934D01*
X25063845Y56998695D02*
X25091721Y56901274D01*
X41402597Y22540941D02*
X41501305Y22563846D01*
X42142536Y88141527D02*
X42057928Y88197289D01*
X63418448Y87724212D02*
X63358473Y87642537D01*
X79402597Y88459060D02*
X79302855Y88476937D01*
X44023063Y53802856D02*
X44010261Y53702337D01*
X97000000Y5000000D02*
X97000000Y6000000D01*
X23795609Y56619212D02*
X23837915Y56711289D01*
X98598726Y88408279D02*
X98501305Y88436155D01*
X83119211Y55295610D02*
X83029396Y55248694D01*
X98788711Y55662085D02*
X98880788Y55704391D01*
X41501305Y71936155D02*
X41402597Y71959060D01*
X23641526Y87642537D02*
X23581551Y87724212D01*
X83697144Y22476937D02*
X83597402Y22459060D01*
X44251306Y87470604D02*
X44204390Y87380789D01*
X23581551Y87724212D02*
X23517516Y87802745D01*
X61837915Y21288712D02*
X61795609Y21380789D01*
X99581551Y6775789D02*
X99641526Y6857464D01*
X41970603Y55751307D02*
X42057928Y55802712D01*
X42377933Y87949586D02*
X42302744Y88017517D01*
X23936154Y70501306D02*
X23908278Y70598727D01*
X22202336Y6010262D02*
X22302855Y6023064D01*
X99224211Y22918449D02*
X99302744Y22982484D01*
X61989738Y70202337D02*
X61976936Y70302856D01*
X44418448Y56275789D02*
X44482483Y56197256D01*
X60101298Y39002567D02*
X60202336Y39010262D01*
X61795609Y37880789D02*
X61748693Y37970604D01*
X25302711Y71057929D02*
X25251306Y70970604D01*
X82622066Y56050415D02*
X82697255Y55982484D01*
X80057928Y6302712D02*
X80142536Y6358474D01*
X83597402Y72040941D02*
X83697144Y72023064D01*
X44942071Y55802712D02*
X45029396Y55751307D01*
X63091721Y40401274D02*
X63124495Y40305390D01*
X98302855Y72023064D02*
X98402597Y72040941D01*
X82063845Y56998695D02*
X82091721Y56901274D01*
X23936154Y7498695D02*
X23959059Y7597403D01*
X79880788Y39204391D02*
X79970603Y39251307D01*
X25482483Y38302745D02*
X25418448Y38224212D01*
X23449585Y38377934D02*
X23377933Y38449586D01*
X7498694Y72063846D02*
X7597402Y72040941D01*
X25063845Y37501306D02*
X25040940Y37402598D01*
X79101298Y72002567D02*
X79202336Y72010262D01*
X63040940Y40597403D02*
X63063845Y40498695D01*
X60880788Y55295610D02*
X60788711Y55337916D01*
X22880788Y22704391D02*
X22970603Y22751307D01*
X82550414Y21877934D02*
X82482483Y21802745D01*
X61581551Y23275789D02*
X61641526Y23357464D01*
X42449585Y87877934D02*
X42377933Y87949586D01*
X63124495Y54194611D02*
X63091721Y54098727D01*
X45305389Y22375505D02*
X45211288Y22337916D01*
X44550414Y71377934D02*
X44482483Y71302745D01*
X45401273Y88408279D02*
X45305389Y88375505D01*
X61449585Y21877934D02*
X61377933Y21949586D01*
X25697255Y55982484D02*
X25775788Y55918449D01*
X25204390Y7119212D02*
X25251306Y7029397D01*
X6942071Y55802712D02*
X7029396Y55751307D01*
X61377933Y71449586D02*
X61302744Y71517517D01*
X7119211Y55295610D02*
X7029396Y55248694D01*
X80875504Y70694611D02*
X80837915Y70788712D01*
X98501305Y88436155D02*
X98402597Y88459060D01*
X80959059Y57097403D02*
X80976936Y57197145D01*
X61795609Y70880789D02*
X61748693Y70970604D01*
X42377933Y23050415D02*
X42449585Y23122067D01*
X82124495Y73305390D02*
X82162084Y73211289D01*
X63023063Y73697145D02*
X63040940Y73597403D01*
X98598726Y22591722D02*
X98694610Y22624496D01*
X79970603Y55751307D02*
X80057928Y55802712D01*
X23057928Y39302712D02*
X23142536Y39358474D01*
X25124495Y23805390D02*
X25162084Y23711289D01*
X76120Y93882684D02*
X43059Y93790285D01*
X98970603Y39251307D02*
X99057928Y39302712D01*
X64898701Y88497434D02*
X64797663Y88489739D01*
X101000000Y89500000D02*
X101000000Y5000000D01*
X80748693Y56529397D02*
X80795609Y56619212D01*
X61517516Y39697256D02*
X61581551Y39775789D01*
X64697144Y22523064D02*
X64797663Y22510262D01*
X99142536Y39358474D02*
X99224211Y39418449D01*
X44418448Y54724212D02*
X44358473Y54642537D01*
X804909Y19215D02*
X901982Y4816D01*
X41880788Y6204391D02*
X41970603Y6251307D01*
X82942071Y55802712D02*
X83029396Y55751307D01*
X26498694Y38936155D02*
X26401273Y38908279D01*
X44010261Y37202337D02*
X44002566Y37101299D01*
X45401273Y55591722D02*
X45498694Y55563846D01*
X25857463Y6358474D02*
X25942071Y6302712D01*
X80697288Y21557929D02*
X80641526Y21642537D01*
X45797663Y22489739D02*
X45697144Y22476937D01*
X61936154Y54001306D02*
X61908278Y54098727D01*
X82162084Y56711289D02*
X82204390Y56619212D01*
X41202336Y39010262D02*
X41302855Y39023064D01*
X44204390Y73119212D02*
X44251306Y73029397D01*
X26029396Y55751307D02*
X26119211Y55704391D01*
X82000000Y37000000D02*
X82000000Y24500000D01*
X26305389Y6124496D02*
X26401273Y6091722D01*
X6023063Y37302856D02*
X6010261Y37202337D01*
X7119211Y38795610D02*
X7029396Y38748694D01*
X61997433Y24398702D02*
X62000000Y24500000D01*
X82000000Y20500000D02*
X82000000Y8000000D01*
X42748693Y70970604D02*
X42697288Y71057929D01*
X42697288Y38057929D02*
X42641526Y38142537D01*
X99449585Y56122067D02*
X99517516Y56197256D01*
X79970603Y39251307D02*
X80057928Y39302712D01*
X23581551Y23275789D02*
X23641526Y23357464D01*
X83697144Y22523064D02*
X83797663Y22510262D01*
X64211288Y72162085D02*
X64305389Y72124496D01*
X23875504Y37694611D02*
X23837915Y37788712D01*
X5000000Y5000000D02*
X5000000Y89500000D01*
X25023063Y57197145D02*
X25040940Y57097403D01*
X82550414Y71377934D02*
X82482483Y71302745D01*
X82063845Y7498695D02*
X82091721Y7401274D01*
X6000000Y37000000D02*
X6000000Y24500000D01*
X60880788Y22704391D02*
X60970603Y22751307D01*
X22402597Y38959060D02*
X22302855Y38976937D01*
X82857463Y38641527D02*
X82775788Y38581552D01*
X85000000Y88500000D02*
X84000000Y88500000D01*
X23795609Y73119212D02*
X23837915Y73211289D01*
X64498694Y55436155D02*
X64401273Y55408279D01*
X44023063Y70302856D02*
X44010261Y70202337D01*
X82418448Y38224212D02*
X82358473Y38142537D01*
X64211288Y71837916D02*
X64119211Y71795610D01*
X7797663Y55510262D02*
X7898701Y55502567D01*
X41000000Y39000000D02*
X41101298Y39002567D01*
X23142536Y88141527D02*
X23057928Y88197289D01*
X99224211Y38581552D02*
X99142536Y38641527D01*
X83119211Y71795610D02*
X83029396Y71748694D01*
X99795609Y73119212D02*
X99837915Y73211289D01*
X22598726Y22408279D02*
X22501305Y22436155D01*
X60000000Y72000000D02*
X60101298Y72002567D01*
X62000000Y57500000D02*
X62000000Y70000000D01*
X63550414Y23122067D02*
X63622066Y23050415D01*
X25000000Y57500000D02*
X25002566Y57398702D01*
X80377933Y23050415D02*
X80449585Y23122067D01*
X6550414Y39622067D02*
X6622066Y39550415D01*
X83797663Y71989739D02*
X83697144Y71976937D01*
X63775788Y55081552D02*
X63697255Y55017517D01*
X84000000Y22500000D02*
X83898701Y22497434D01*
X44251306Y37970604D02*
X44204390Y37880789D01*
X25550414Y23122067D02*
X25622066Y23050415D01*
X23997433Y7898702D02*
X24000000Y8000000D01*
X80697288Y56442072D02*
X80748693Y56529397D01*
X83211288Y88337916D02*
X83119211Y88295610D01*
X61641526Y39857464D02*
X61697288Y39942072D01*
X42989738Y70202337D02*
X42976936Y70302856D01*
X63358473Y38142537D02*
X63302711Y38057929D01*
X80748693Y37970604D02*
X80697288Y38057929D01*
X79880788Y22295610D02*
X79788711Y22337916D01*
X23997433Y37101299D02*
X23989738Y37202337D01*
X80517516Y71302745D02*
X80449585Y71377934D01*
X83797663Y22510262D02*
X83898701Y22502567D01*
X6162084Y56711289D02*
X6204390Y56619212D01*
X99837915Y56711289D02*
X99875504Y56805390D01*
X61057928Y55197289D02*
X60970603Y55248694D01*
X23795609Y87380789D02*
X23748693Y87470604D01*
X45119211Y22704391D02*
X45211288Y22662085D01*
X6358473Y72857464D02*
X6418448Y72775789D01*
X44162084Y54288712D02*
X44124495Y54194611D01*
X99989738Y40797664D02*
X99997433Y40898702D01*
X226989Y94134394D02*
X168530Y94055571D01*
X6002566Y53601299D02*
X6000000Y53500000D01*
X63091721Y7401274D02*
X63124495Y7305390D01*
X81000000Y57500000D02*
X81000000Y70000000D01*
X82162084Y70788712D02*
X82124495Y70694611D01*
X23224211Y88081552D02*
X23142536Y88141527D01*
X23875504Y73305390D02*
X23908278Y73401274D01*
X22202336Y55489739D02*
X22101298Y55497434D01*
X6622066Y72550415D02*
X6697255Y72482484D01*
X26401273Y22408279D02*
X26305389Y22375505D01*
X82857463Y55858474D02*
X82942071Y55802712D01*
X98302855Y55476937D02*
X98202336Y55489739D01*
X99959059Y40597403D02*
X99976936Y40697145D01*
X99142536Y22858474D02*
X99224211Y22918449D01*
X7401273Y55408279D02*
X7305389Y55375505D01*
X7697144Y71976937D02*
X7597402Y71959060D01*
X98880788Y38795610D02*
X98788711Y38837916D01*
X44000000Y53500000D02*
X44000000Y41000000D01*
X64029396Y55248694D02*
X63942071Y55197289D01*
X44418448Y72775789D02*
X44482483Y72697256D01*
X63482483Y71302745D02*
X63418448Y71224212D01*
X64119211Y71795610D02*
X64029396Y71748694D01*
X83119211Y72204391D02*
X83211288Y72162085D01*
X25162084Y37788712D02*
X25124495Y37694611D01*
X25418448Y39775789D02*
X25482483Y39697256D01*
X22202336Y39010262D02*
X22302855Y39023064D01*
X25124495Y21194611D02*
X25091721Y21098727D01*
X63040940Y53902598D02*
X63023063Y53802856D01*
X80377933Y56050415D02*
X80449585Y56122067D01*
X45211288Y6162085D02*
X45305389Y6124496D01*
X45797663Y6010262D02*
X45898701Y6002567D01*
X25622066Y23050415D02*
X25697255Y22982484D01*
X61224211Y22918449D02*
X61302744Y22982484D01*
X25000000Y37000000D02*
X25000000Y24500000D01*
X83697144Y39023064D02*
X83797663Y39010262D01*
X45029396Y39251307D02*
X45119211Y39204391D01*
X82002566Y86601299D02*
X82000000Y86500000D01*
X6550414Y71377934D02*
X6482483Y71302745D01*
X22402597Y88459060D02*
X22302855Y88476937D01*
X61517516Y6697256D02*
X61581551Y6775789D01*
X25857463Y55858474D02*
X25942071Y55802712D01*
X80997433Y86601299D02*
X80989738Y86702337D01*
X44000000Y8000000D02*
X44002566Y7898702D01*
X79694610Y22624496D02*
X79788711Y22662085D01*
X63124495Y37694611D02*
X63091721Y37598727D01*
X41501305Y72063846D02*
X41598726Y72091722D01*
X26797663Y6010262D02*
X26898701Y6002567D01*
X41880788Y88295610D02*
X41788711Y88337916D01*
X7211288Y38837916D02*
X7119211Y38795610D01*
X41970603Y6251307D02*
X42057928Y6302712D01*
X6000000Y86500000D02*
X6000000Y74000000D01*
X82091721Y7401274D02*
X82124495Y7305390D01*
X83898701Y88497434D02*
X83797663Y88489739D01*
X22694610Y72124496D02*
X22788711Y72162085D01*
X60101298Y55502567D02*
X60202336Y55510262D01*
X99517516Y71302745D02*
X99449585Y71377934D01*
X99875504Y73305390D02*
X99908278Y73401274D01*
X23976936Y7697145D02*
X23989738Y7797664D01*
X63023063Y7697145D02*
X63040940Y7597403D01*
X41101298Y38997434D02*
X41000000Y39000000D01*
X82942071Y72302712D02*
X83029396Y72251307D01*
X7597402Y55540941D02*
X7697144Y55523064D01*
X26119211Y55704391D02*
X26211288Y55662085D01*
X45597402Y55459060D02*
X45498694Y55436155D01*
X61641526Y6857464D02*
X61697288Y6942072D01*
X45597402Y72040941D02*
X45697144Y72023064D01*
X44091721Y56901274D02*
X44124495Y56805390D01*
X63023063Y37302856D02*
X63010261Y37202337D01*
X82550414Y6622067D02*
X82622066Y6550415D01*
X25482483Y72697256D02*
X25550414Y72622067D01*
X7697144Y72023064D02*
X7797663Y72010262D01*
X64697144Y39023064D02*
X64797663Y39010262D01*
X6063845Y7498695D02*
X6091721Y7401274D01*
X44697255Y22982484D02*
X44775788Y22918449D01*
X82023063Y40697145D02*
X82040940Y40597403D01*
X105831469Y94055571D02*
X105773010Y94134394D01*
X79302855Y55523064D02*
X79402597Y55540941D01*
X60402597Y22540941D02*
X60501305Y22563846D01*
X7797663Y72010262D02*
X7898701Y72002567D01*
X23302744Y55982484D02*
X23377933Y56050415D01*
X6091721Y23901274D02*
X6124495Y23805390D01*
X45898701Y71997434D02*
X45797663Y71989739D01*
X83305389Y71875505D02*
X83211288Y71837916D01*
X66000000Y6000000D02*
X66000000Y5000000D01*
X83029396Y38748694D02*
X82942071Y38697289D01*
X26119211Y55295610D02*
X26029396Y55248694D01*
X42581551Y21724212D02*
X42517516Y21802745D01*
X24000000Y24500000D02*
X24000000Y37000000D01*
X23057928Y55802712D02*
X23142536Y55858474D01*
X42936154Y40498695D02*
X42959059Y40597403D01*
X45498694Y39063846D02*
X45597402Y39040941D01*
X61936154Y56998695D02*
X61959059Y57097403D01*
X100000000Y86500000D02*
X99997433Y86601299D01*
X42748693Y56529397D02*
X42795609Y56619212D01*
X42641526Y56357464D02*
X42697288Y56442072D01*
X61837915Y40211289D02*
X61875504Y40305390D01*
X99641526Y72857464D02*
X99697288Y72942072D01*
X44775788Y22918449D02*
X44857463Y22858474D01*
X61748693Y87470604D02*
X61697288Y87557929D01*
X25251306Y73029397D02*
X25302711Y72942072D01*
X6002566Y73898702D02*
X6010261Y73797664D01*
X44251306Y73029397D02*
X44302711Y72942072D01*
X26898701Y22502567D02*
X27000000Y22500000D01*
X63010261Y7797664D02*
X63023063Y7697145D01*
X80748693Y73029397D02*
X80795609Y73119212D01*
X46000000Y22500000D02*
X45898701Y22497434D01*
X82302711Y23442072D02*
X82358473Y23357464D01*
X45498694Y38936155D02*
X45401273Y38908279D01*
X82010261Y70202337D02*
X82002566Y70101299D01*
X25482483Y23197256D02*
X25550414Y23122067D01*
X21000000Y88500000D02*
X21000000Y89500000D01*
X61057928Y71697289D02*
X60970603Y71748694D01*
X23641526Y21642537D02*
X23581551Y21724212D01*
X42581551Y6775789D02*
X42641526Y6857464D01*
X80449585Y71377934D02*
X80377933Y71449586D01*
X60694610Y88375505D02*
X60598726Y88408279D01*
X62000000Y70000000D02*
X61997433Y70101299D01*
X6622066Y38449586D02*
X6550414Y38377934D01*
X80837915Y70788712D02*
X80795609Y70880789D01*
X80959059Y40597403D02*
X80976936Y40697145D01*
X23875504Y7305390D02*
X23908278Y7401274D01*
X23057928Y55197289D02*
X22970603Y55248694D01*
X83029396Y39251307D02*
X83119211Y39204391D01*
X26305389Y88375505D02*
X26211288Y88337916D01*
X42795609Y23619212D02*
X42837915Y23711289D01*
X98880788Y6204391D02*
X98970603Y6251307D01*
X63251306Y37970604D02*
X63204390Y37880789D01*
X42057928Y55197289D02*
X41970603Y55248694D01*
X82091721Y40401274D02*
X82124495Y40305390D01*
X6857463Y22141527D02*
X6775788Y22081552D01*
X23837915Y87288712D02*
X23795609Y87380789D01*
X99057928Y55197289D02*
X98970603Y55248694D01*
X99302744Y22017517D02*
X99224211Y22081552D01*
X63091721Y54098727D02*
X63063845Y54001306D01*
X44204390Y37880789D02*
X44162084Y37788712D01*
X83597402Y55459060D02*
X83498694Y55436155D01*
X25942071Y88197289D02*
X25857463Y88141527D01*
X80837915Y40211289D02*
X80875504Y40305390D01*
X41880788Y72204391D02*
X41970603Y72251307D01*
X40000000Y89500000D02*
X47000000Y89500000D01*
X83597402Y6040941D02*
X83697144Y6023064D01*
X64305389Y22624496D02*
X64401273Y22591722D01*
X80837915Y7211289D02*
X80875504Y7305390D01*
X60880788Y38795610D02*
X60788711Y38837916D01*
X6302711Y38057929D02*
X6251306Y37970604D01*
X26029396Y55248694D02*
X25942071Y55197289D01*
X61057928Y22802712D02*
X61142536Y22858474D01*
X82302711Y71057929D02*
X82251306Y70970604D01*
X23517516Y23197256D02*
X23581551Y23275789D01*
X7898701Y71997434D02*
X7797663Y71989739D01*
X42517516Y54802745D02*
X42449585Y54877934D01*
X6550414Y87877934D02*
X6482483Y87802745D01*
X25942071Y22802712D02*
X26029396Y22751307D01*
X7498694Y22436155D02*
X7401273Y22408279D01*
X25040940Y24097403D02*
X25063845Y23998695D01*
X25251306Y54470604D02*
X25204390Y54380789D01*
X63040940Y86902598D02*
X63023063Y86802856D01*
X63358473Y39857464D02*
X63418448Y39775789D01*
X41302855Y38976937D02*
X41202336Y38989739D01*
X41970603Y71748694D02*
X41880788Y71795610D01*
X99581551Y72775789D02*
X99641526Y72857464D01*
X100000000Y74000000D02*
X100000000Y86500000D01*
X42959059Y20902598D02*
X42936154Y21001306D01*
X99997433Y70101299D02*
X99989738Y70202337D01*
X23517516Y6697256D02*
X23581551Y6775789D01*
X6204390Y21380789D02*
X6162084Y21288712D01*
X25550414Y54877934D02*
X25482483Y54802745D01*
X61641526Y23357464D02*
X61697288Y23442072D01*
X98788711Y88337916D02*
X98694610Y88375505D01*
X42908278Y21098727D02*
X42875504Y21194611D01*
X25091721Y70598727D02*
X25063845Y70501306D01*
X44857463Y55141527D02*
X44775788Y55081552D01*
X709715Y94456941D02*
X617316Y94423880D01*
X63002566Y53601299D02*
X63000000Y53500000D01*
X63697255Y6482484D02*
X63775788Y6418449D01*
X61908278Y21098727D02*
X61875504Y21194611D01*
X44775788Y71581552D02*
X44697255Y71517517D01*
X42697288Y23442072D02*
X42748693Y23529397D01*
X105098017Y94495185D02*
X105000000Y94500000D01*
X81000000Y24500000D02*
X81000000Y37000000D01*
X45401273Y72091722D02*
X45498694Y72063846D01*
X99302744Y55017517D02*
X99224211Y55081552D01*
X64029396Y71748694D02*
X63942071Y71697289D01*
X23908278Y56901274D02*
X23936154Y56998695D01*
X7697144Y88476937D02*
X7597402Y88459060D01*
X26498694Y6063846D02*
X26597402Y6040941D01*
X83898701Y6002567D02*
X84000000Y6000000D01*
X26211288Y72162085D02*
X26305389Y72124496D01*
X83898701Y55502567D02*
X84000000Y55500000D01*
X61748693Y56529397D02*
X61795609Y56619212D01*
X83697144Y55476937D02*
X83597402Y55459060D01*
X41302855Y55476937D02*
X41202336Y55489739D01*
X83305389Y55375505D02*
X83211288Y55337916D01*
X23641526Y72857464D02*
X23697288Y72942072D01*
X7211288Y72162085D02*
X7305389Y72124496D01*
X24000000Y74000000D02*
X24000000Y86500000D01*
X45305389Y72124496D02*
X45401273Y72091722D01*
X6550414Y72622067D02*
X6622066Y72550415D01*
X44040940Y70402598D02*
X44023063Y70302856D01*
X82418448Y39775789D02*
X82482483Y39697256D01*
X26697144Y55523064D02*
X26797663Y55510262D01*
X60598726Y71908279D02*
X60501305Y71936155D01*
X63063845Y40498695D02*
X63091721Y40401274D01*
X26305389Y39124496D02*
X26401273Y39091722D01*
X83697144Y88476937D02*
X83697144Y88476937D01*
X79202336Y72010262D02*
X79302855Y72023064D01*
X60402597Y72040941D02*
X60501305Y72063846D01*
X63204390Y37880789D02*
X63162084Y37788712D01*
X80908278Y54098727D02*
X80875504Y54194611D01*
X63162084Y54288712D02*
X63124495Y54194611D01*
X80908278Y21098727D02*
X80875504Y21194611D01*
X60000000Y6000000D02*
X60101298Y6002567D01*
X42989738Y53702337D02*
X42976936Y53802856D01*
X83119211Y6204391D02*
X83211288Y6162085D01*
X61936154Y23998695D02*
X61959059Y24097403D01*
X64498694Y38936155D02*
X64401273Y38908279D01*
X80989738Y20702337D02*
X80976936Y20802856D01*
X6775788Y38581552D02*
X6697255Y38517517D01*
X6550414Y23122067D02*
X6622066Y23050415D01*
X83305389Y39124496D02*
X83401273Y39091722D01*
X63010261Y40797664D02*
X63023063Y40697145D01*
X99875504Y56805390D02*
X99908278Y56901274D01*
X98501305Y6063846D02*
X98598726Y6091722D01*
X44302711Y71057929D02*
X44251306Y70970604D01*
X79202336Y88489739D02*
X79101298Y88497434D01*
X82251306Y37970604D02*
X82204390Y37880789D01*
X23976936Y53802856D02*
X23959059Y53902598D01*
X43059Y93790285D02*
X19214Y93695091D01*
X99976936Y7697145D02*
X99989738Y7797664D01*
X25162084Y21288712D02*
X25124495Y21194611D01*
X82000000Y57500000D02*
X82002566Y57398702D01*
X83898701Y39002567D02*
X84000000Y39000000D01*
X41302855Y22476937D02*
X41202336Y22489739D01*
X60598726Y6091722D02*
X60694610Y6124496D01*
X41302855Y6023064D02*
X41402597Y6040941D01*
X6358473Y38142537D02*
X6302711Y38057929D01*
X26498694Y22563846D02*
X26597402Y22540941D01*
X45211288Y22662085D02*
X45305389Y22624496D01*
X41202336Y72010262D02*
X41302855Y72023064D01*
X64597402Y88459060D02*
X64498694Y88436155D01*
X292893Y292894D02*
X365606Y226990D01*
X42908278Y37598727D02*
X42875504Y37694611D01*
X64029396Y39251307D02*
X64119211Y39204391D01*
X23989738Y24297664D02*
X23997433Y24398702D01*
X7305389Y71875505D02*
X7211288Y71837916D01*
X64898701Y72002567D02*
X65000000Y72000000D01*
X63697255Y72482484D02*
X63775788Y72418449D01*
X25002566Y20601299D02*
X25000000Y20500000D01*
X42875504Y56805390D02*
X42908278Y56901274D01*
X26119211Y22295610D02*
X26029396Y22248694D01*
X25418448Y56275789D02*
X25482483Y56197256D01*
X44063845Y21001306D02*
X44040940Y20902598D01*
X82857463Y22141527D02*
X82775788Y22081552D01*
X82091721Y70598727D02*
X82063845Y70501306D01*
X23875504Y70694611D02*
X23837915Y70788712D01*
X100000000Y20500000D02*
X99997433Y20601299D01*
X60880788Y88295610D02*
X60788711Y88337916D01*
X60788711Y22337916D02*
X60694610Y22375505D01*
X7898701Y22502567D02*
X8000000Y22500000D01*
X23142536Y22141527D02*
X23057928Y22197289D01*
X23581551Y56275789D02*
X23641526Y56357464D01*
X41501305Y6063846D02*
X41598726Y6091722D01*
X6622066Y21949586D02*
X6550414Y21877934D01*
X6251306Y37970604D02*
X6204390Y37880789D01*
X80989738Y57297664D02*
X80997433Y57398702D01*
X41402597Y38959060D02*
X41302855Y38976937D01*
X22694610Y71875505D02*
X22598726Y71908279D01*
X61795609Y23619212D02*
X61837915Y23711289D01*
X60000000Y55500000D02*
X60101298Y55502567D01*
X42997433Y57398702D02*
X43000000Y57500000D01*
X82942071Y38697289D02*
X82857463Y38641527D01*
X23837915Y7211289D02*
X23875504Y7305390D01*
X79202336Y6010262D02*
X79302855Y6023064D01*
X7211288Y55337916D02*
X7119211Y55295610D01*
X82000000Y24500000D02*
X82002566Y24398702D01*
X80449585Y56122067D02*
X80517516Y56197256D01*
X25162084Y70788712D02*
X25124495Y70694611D01*
X44091721Y40401274D02*
X44124495Y40305390D01*
X79402597Y72040941D02*
X79501305Y72063846D01*
X25775788Y55918449D02*
X25857463Y55858474D01*
X98694610Y55375505D02*
X98598726Y55408279D01*
X25162084Y7211289D02*
X25204390Y7119212D01*
X25857463Y72358474D02*
X25942071Y72302712D01*
X6162084Y87288712D02*
X6124495Y87194611D01*
X80875504Y40305390D02*
X80908278Y40401274D01*
X44302711Y38057929D02*
X44251306Y37970604D01*
X98000000Y39000000D02*
X98101298Y39002567D01*
X42449585Y23122067D02*
X42517516Y23197256D01*
X6124495Y7305390D02*
X6162084Y7211289D01*
X22101298Y71997434D02*
X22000000Y72000000D01*
X63358473Y21642537D02*
X63302711Y21557929D01*
X7211288Y6162085D02*
X7305389Y6124496D01*
X26211288Y39162085D02*
X26305389Y39124496D01*
X80908278Y87098727D02*
X80875504Y87194611D01*
X99449585Y21877934D02*
X99377933Y21949586D01*
X6418448Y6775789D02*
X6482483Y6697256D01*
X42875504Y73305390D02*
X42908278Y73401274D01*
X83119211Y55704391D02*
X83211288Y55662085D01*
X63063845Y70501306D02*
X63040940Y70402598D01*
X97000000Y88500000D02*
X97000000Y89500000D01*
X80142536Y55141527D02*
X80057928Y55197289D01*
X42581551Y72775789D02*
X42641526Y72857464D01*
X25204390Y70880789D02*
X25162084Y70788712D01*
X44002566Y24398702D02*
X44010261Y24297664D01*
X98000000Y88500000D02*
X97000000Y88500000D01*
X23377933Y6550415D02*
X23449585Y6622067D01*
X45898701Y88497434D02*
X45797663Y88489739D01*
X61057928Y39302712D02*
X61142536Y39358474D01*
X80302744Y72482484D02*
X80377933Y72550415D01*
X6010261Y73797664D02*
X6023063Y73697145D01*
X42224211Y55918449D02*
X42302744Y55982484D01*
X80581551Y56275789D02*
X80641526Y56357464D01*
X63622066Y71449586D02*
X63550414Y71377934D01*
X44124495Y23805390D02*
X44162084Y23711289D01*
X42057928Y72302712D02*
X42142536Y72358474D01*
X42449585Y6622067D02*
X42517516Y6697256D01*
X82482483Y54802745D02*
X82418448Y54724212D01*
X98694610Y71875505D02*
X98598726Y71908279D01*
X79788711Y38837916D02*
X79694610Y38875505D01*
X83797663Y72010262D02*
X83898701Y72002567D01*
X25002566Y24398702D02*
X25010261Y24297664D01*
X45498694Y22563846D02*
X45597402Y22540941D01*
X79501305Y39063846D02*
X79598726Y39091722D01*
X7211288Y71837916D02*
X7119211Y71795610D01*
X82010261Y20702337D02*
X82002566Y20601299D01*
X6040940Y86902598D02*
X6023063Y86802856D01*
X42908278Y87098727D02*
X42875504Y87194611D01*
X63857463Y38641527D02*
X63775788Y38581552D01*
X7029396Y55248694D02*
X6942071Y55197289D01*
X7898701Y55497434D02*
X7797663Y55489739D01*
X79598726Y71908279D02*
X79501305Y71936155D01*
X63091721Y56901274D02*
X63124495Y56805390D01*
X99641526Y23357464D02*
X99697288Y23442072D01*
X6418448Y56275789D02*
X6482483Y56197256D01*
X26305389Y55375505D02*
X26211288Y55337916D01*
X6251306Y54470604D02*
X6204390Y54380789D01*
X23997433Y57398702D02*
X24000000Y57500000D01*
X64697144Y72023064D02*
X64797663Y72010262D01*
X23302744Y72482484D02*
X23377933Y72550415D01*
X7029396Y71748694D02*
X6942071Y71697289D01*
X6063845Y73498695D02*
X6091721Y73401274D01*
X63697255Y38517517D02*
X63622066Y38449586D01*
X25550414Y72622067D02*
X25622066Y72550415D01*
X82010261Y40797664D02*
X82023063Y40697145D01*
X80748693Y21470604D02*
X80697288Y21557929D01*
X80936154Y7498695D02*
X80959059Y7597403D01*
X80057928Y55802712D02*
X80142536Y55858474D01*
X60202336Y55510262D02*
X60302855Y55523064D01*
X80936154Y56998695D02*
X80959059Y57097403D01*
X83029396Y22248694D02*
X82942071Y22197289D01*
X63251306Y23529397D02*
X63302711Y23442072D01*
X42875504Y40305390D02*
X42908278Y40401274D01*
X42517516Y56197256D02*
X42581551Y56275789D01*
X44697255Y22017517D02*
X44622066Y21949586D01*
X60402597Y55459060D02*
X60302855Y55476937D01*
X80449585Y72622067D02*
X80517516Y72697256D01*
X44775788Y55081552D02*
X44697255Y55017517D01*
X41501305Y22563846D02*
X41598726Y22591722D01*
X41302855Y22523064D02*
X41402597Y22540941D01*
X23377933Y87949586D02*
X23302744Y88017517D01*
X42517516Y39697256D02*
X42581551Y39775789D01*
X63482483Y56197256D02*
X63550414Y56122067D01*
X79788711Y71837916D02*
X79694610Y71875505D01*
X61517516Y54802745D02*
X61449585Y54877934D01*
X64498694Y6063846D02*
X64597402Y6040941D01*
X80449585Y38377934D02*
X80377933Y38449586D01*
X25358473Y87642537D02*
X25302711Y87557929D01*
X6002566Y37101299D02*
X6000000Y37000000D01*
X82358473Y6857464D02*
X82418448Y6775789D01*
X79302855Y55476937D02*
X79202336Y55489739D01*
X61517516Y38302745D02*
X61449585Y38377934D01*
X63002566Y40898702D02*
X63010261Y40797664D01*
X63775788Y55918449D02*
X63857463Y55858474D01*
X60788711Y55337916D02*
X60694610Y55375505D01*
X41000000Y22500000D02*
X41101298Y22502567D01*
X23224211Y55918449D02*
X23302744Y55982484D01*
X63040940Y37402598D02*
X63023063Y37302856D01*
X64401273Y22408279D02*
X64305389Y22375505D01*
X44162084Y87288712D02*
X44124495Y87194611D01*
X26119211Y71795610D02*
X26029396Y71748694D01*
X23449585Y56122067D02*
X23517516Y56197256D01*
X43000000Y57500000D02*
X43000000Y70000000D01*
X45597402Y88459060D02*
X45498694Y88436155D01*
X80997433Y40898702D02*
X81000000Y41000000D01*
X60501305Y22563846D02*
X60598726Y22591722D01*
X22970603Y72251307D02*
X23057928Y72302712D01*
X42936154Y87001306D02*
X42908278Y87098727D01*
X26029396Y22248694D02*
X25942071Y22197289D01*
X105555570Y168531D02*
X105634393Y226990D01*
X23959059Y7597403D02*
X23976936Y7697145D01*
X63010261Y20702337D02*
X63002566Y20601299D01*
X82204390Y87380789D02*
X82162084Y87288712D01*
X26697144Y22523064D02*
X26797663Y22510262D01*
X99837915Y7211289D02*
X99875504Y7305390D01*
X41501305Y22436155D02*
X41402597Y22459060D01*
X79880788Y72204391D02*
X79970603Y72251307D01*
X42641526Y72857464D02*
X42697288Y72942072D01*
X44482483Y56197256D02*
X44550414Y56122067D01*
X7401273Y39091722D02*
X7498694Y39063846D01*
X23517516Y54802745D02*
X23449585Y54877934D01*
X63622066Y87949586D02*
X63550414Y87877934D01*
X80581551Y23275789D02*
X80641526Y23357464D01*
X42697288Y6942072D02*
X42748693Y7029397D01*
X99142536Y38641527D02*
X99057928Y38697289D01*
X82063845Y70501306D02*
X82040940Y70402598D01*
X82091721Y37598727D02*
X82063845Y37501306D01*
X79000000Y39000000D02*
X79101298Y39002567D01*
X6091721Y73401274D02*
X6124495Y73305390D01*
X80581551Y72775789D02*
X80641526Y72857464D01*
X79000000Y72000000D02*
X79101298Y72002567D01*
X7697144Y39023064D02*
X7797663Y39010262D01*
X64119211Y72204391D02*
X64211288Y72162085D01*
X25942071Y72302712D02*
X26029396Y72251307D01*
X26401273Y55408279D02*
X26305389Y55375505D01*
X99837915Y87288712D02*
X99795609Y87380789D01*
X44942071Y39302712D02*
X45029396Y39251307D01*
X80302744Y22982484D02*
X80377933Y23050415D01*
X25550414Y6622067D02*
X25622066Y6550415D01*
X82482483Y39697256D02*
X82550414Y39622067D01*
X42908278Y56901274D02*
X42936154Y56998695D01*
X64305389Y71875505D02*
X64211288Y71837916D01*
X82697255Y38517517D02*
X82622066Y38449586D01*
X79000000Y6000000D02*
X79101298Y6002567D01*
X25251306Y56529397D02*
X25302711Y56442072D01*
X226989Y365607D02*
X292893Y292894D01*
X80989738Y73797664D02*
X80997433Y73898702D01*
X99302744Y71517517D02*
X99224211Y71581552D01*
X105634393Y226990D02*
X105707106Y292894D01*
X98402597Y39040941D02*
X98501305Y39063846D01*
X80057928Y38697289D02*
X79970603Y38748694D01*
X99581551Y71224212D02*
X99517516Y71302745D01*
X99976936Y57197145D02*
X99989738Y57297664D01*
X23976936Y40697145D02*
X23989738Y40797664D01*
X7797663Y22489739D02*
X7697144Y22476937D01*
X82091721Y56901274D02*
X82124495Y56805390D01*
X80302744Y38517517D02*
X80224211Y38581552D01*
X99224211Y6418449D02*
X99302744Y6482484D01*
X45498694Y55563846D02*
X45597402Y55540941D01*
X60880788Y22295610D02*
X60788711Y22337916D01*
X22302855Y22476937D02*
X22202336Y22489739D01*
X22101298Y88497434D02*
X22000000Y88500000D01*
X63002566Y86601299D02*
X63000000Y86500000D01*
X26401273Y22591722D02*
X26498694Y22563846D01*
X83797663Y6010262D02*
X83898701Y6002567D01*
X99449585Y72622067D02*
X99517516Y72697256D01*
X63302711Y21557929D02*
X63251306Y21470604D01*
X7401273Y88408279D02*
X7305389Y88375505D01*
X63942071Y55802712D02*
X64029396Y55751307D01*
X61908278Y87098727D02*
X61875504Y87194611D01*
X65000000Y88500000D02*
X64898701Y88497434D01*
X98501305Y22436155D02*
X98402597Y22459060D01*
X43000000Y53500000D02*
X42997433Y53601299D01*
X44622066Y6550415D02*
X44697255Y6482484D01*
X42641526Y39857464D02*
X42697288Y39942072D01*
X44002566Y73898702D02*
X44010261Y73797664D01*
X23837915Y37788712D02*
X23795609Y37880789D01*
X22402597Y71959060D02*
X22302855Y71976937D01*
X7305389Y6124496D02*
X7401273Y6091722D01*
X7797663Y55489739D02*
X7697144Y55476937D01*
X45597402Y55540941D02*
X45697144Y55523064D01*
X6302711Y87557929D02*
X6251306Y87470604D01*
X7597402Y6040941D02*
X7697144Y6023064D01*
X22302855Y71976937D02*
X22202336Y71989739D01*
X7597402Y88459060D02*
X7498694Y88436155D01*
X78000000Y5000000D02*
X78000000Y6000000D01*
X80976936Y86802856D02*
X80959059Y86902598D01*
X26029396Y39251307D02*
X26119211Y39204391D01*
X82204390Y70880789D02*
X82162084Y70788712D01*
X83029396Y88248694D02*
X82942071Y88197289D01*
X41970603Y22751307D02*
X42057928Y22802712D01*
X45697144Y22523064D02*
X45797663Y22510262D01*
X61908278Y70598727D02*
X61875504Y70694611D01*
X82857463Y55141527D02*
X82775788Y55081552D01*
X63040940Y57097403D02*
X63063845Y56998695D01*
X23057928Y6302712D02*
X23142536Y6358474D01*
X99697288Y21557929D02*
X99641526Y21642537D01*
X25204390Y23619212D02*
X25251306Y23529397D01*
X83401273Y22591722D02*
X83498694Y22563846D01*
X64119211Y22704391D02*
X64211288Y22662085D01*
X23875504Y56805390D02*
X23908278Y56901274D01*
X60598726Y55591722D02*
X60694610Y55624496D01*
X82063845Y37501306D02*
X82040940Y37402598D01*
X45697144Y6023064D02*
X45797663Y6010262D01*
X79302855Y39023064D02*
X79402597Y39040941D01*
X42875504Y23805390D02*
X42908278Y23901274D01*
X63358473Y6857464D02*
X63418448Y6775789D01*
X63204390Y23619212D02*
X63251306Y23529397D01*
X82550414Y23122067D02*
X82622066Y23050415D01*
X80989738Y70202337D02*
X80976936Y70302856D01*
X6002566Y7898702D02*
X6010261Y7797664D01*
X79694610Y72124496D02*
X79788711Y72162085D01*
X99748693Y21470604D02*
X99697288Y21557929D01*
X41788711Y71837916D02*
X41694610Y71875505D01*
X44775788Y39418449D02*
X44857463Y39358474D01*
X99795609Y21380789D02*
X99748693Y21470604D01*
X41000000Y88500000D02*
X40000000Y88500000D01*
X82251306Y54470604D02*
X82204390Y54380789D01*
X82775788Y39418449D02*
X82857463Y39358474D01*
X99997433Y57398702D02*
X100000000Y57500000D01*
X61302744Y55982484D02*
X61377933Y56050415D01*
X79970603Y22248694D02*
X79880788Y22295610D01*
X40000000Y5000000D02*
X40000000Y6000000D01*
X0Y93500000D02*
X0Y1000000D01*
X22880788Y71795610D02*
X22788711Y71837916D01*
X83401273Y6091722D02*
X83498694Y6063846D01*
X98202336Y71989739D02*
X98101298Y71997434D01*
X6418448Y71224212D02*
X6358473Y71142537D01*
X901982Y94495185D02*
X804909Y94480786D01*
X98402597Y88459060D02*
X98302855Y88476937D01*
X23875504Y21194611D02*
X23837915Y21288712D01*
X61795609Y73119212D02*
X61837915Y73211289D01*
X25091721Y37598727D02*
X25063845Y37501306D01*
X98788711Y71837916D02*
X98694610Y71875505D01*
X23517516Y56197256D02*
X23581551Y56275789D01*
X63775788Y71581552D02*
X63697255Y71517517D01*
X61936154Y37501306D02*
X61908278Y37598727D01*
X42142536Y72358474D02*
X42224211Y72418449D01*
X80224211Y39418449D02*
X80302744Y39482484D01*
X6000000Y24500000D02*
X6002566Y24398702D01*
X63775788Y88081552D02*
X63697255Y88017517D01*
X79598726Y72091722D02*
X79694610Y72124496D01*
X99997433Y20601299D02*
X99989738Y20702337D01*
X105995184Y901983D02*
X106000000Y1000000D01*
X6023063Y86802856D02*
X6010261Y86702337D01*
X6063845Y54001306D02*
X6040940Y53902598D01*
X79694610Y71875505D02*
X79598726Y71908279D01*
X61377933Y39550415D02*
X61449585Y39622067D01*
X60101298Y71997434D02*
X60000000Y72000000D01*
X98000000Y22500000D02*
X98101298Y22502567D01*
X61997433Y37101299D02*
X61989738Y37202337D01*
X61641526Y54642537D02*
X61581551Y54724212D01*
X25775788Y88081552D02*
X25697255Y88017517D01*
X25251306Y23529397D02*
X25302711Y23442072D01*
X44040940Y24097403D02*
X44063845Y23998695D01*
X79402597Y38959060D02*
X79302855Y38976937D01*
X99908278Y21098727D02*
X99875504Y21194611D01*
X6622066Y54949586D02*
X6550414Y54877934D01*
X82091721Y23901274D02*
X82124495Y23805390D01*
X46000000Y55500000D02*
X45898701Y55497434D01*
X80641526Y56357464D02*
X80697288Y56442072D01*
X82550414Y38377934D02*
X82482483Y38302745D01*
X62000000Y20500000D02*
X61997433Y20601299D01*
X42748693Y54470604D02*
X42697288Y54557929D01*
X64119211Y22295610D02*
X64029396Y22248694D01*
X60101298Y22497434D02*
X60000000Y22500000D01*
X7029396Y6251307D02*
X7119211Y6204391D01*
X0Y1000000D02*
X4815Y901983D01*
X7898701Y39002567D02*
X8000000Y39000000D01*
X42641526Y6857464D02*
X42697288Y6942072D01*
X6775788Y6418449D02*
X6857463Y6358474D01*
X79788711Y22662085D02*
X79880788Y22704391D01*
X26898701Y71997434D02*
X26797663Y71989739D01*
X82124495Y56805390D02*
X82162084Y56711289D01*
X64305389Y55624496D02*
X64401273Y55591722D01*
X98694610Y38875505D02*
X98598726Y38908279D01*
X22501305Y88436155D02*
X22402597Y88459060D01*
X83211288Y72162085D02*
X83305389Y72124496D01*
X6418448Y39775789D02*
X6482483Y39697256D01*
X63302711Y87557929D02*
X63251306Y87470604D01*
X528603Y118079D02*
X617316Y76121D01*
X45029396Y38748694D02*
X44942071Y38697289D01*
X82002566Y73898702D02*
X82010261Y73797664D01*
X80997433Y70101299D02*
X80989738Y70202337D01*
X44358473Y71142537D02*
X44302711Y71057929D01*
X63482483Y21802745D02*
X63418448Y21724212D01*
X23837915Y70788712D02*
X23795609Y70880789D01*
X63482483Y87802745D02*
X63418448Y87724212D01*
X22101298Y55502567D02*
X22202336Y55510262D01*
X22302855Y55476937D02*
X22202336Y55489739D01*
X80377933Y39550415D02*
X80449585Y39622067D01*
X82622066Y72550415D02*
X82697255Y72482484D01*
X25002566Y40898702D02*
X25010261Y40797664D01*
X44697255Y38517517D02*
X44622066Y38449586D01*
X61302744Y22982484D02*
X61377933Y23050415D01*
X82124495Y70694611D02*
X82091721Y70598727D01*
X82091721Y73401274D02*
X82124495Y73305390D01*
X82251306Y23529397D02*
X82302711Y23442072D01*
X79302855Y72023064D02*
X79402597Y72040941D01*
X23976936Y57197145D02*
X23989738Y57297664D01*
X60501305Y6063846D02*
X60598726Y6091722D01*
X25002566Y70101299D02*
X25000000Y70000000D01*
X82857463Y88141527D02*
X82775788Y88081552D01*
X61224211Y39418449D02*
X61302744Y39482484D01*
X82550414Y72622067D02*
X82622066Y72550415D01*
X79598726Y55591722D02*
X79694610Y55624496D01*
X63697255Y88017517D02*
X63622066Y87949586D01*
X22000000Y22500000D02*
X22101298Y22502567D01*
X64697144Y88476937D02*
X64597402Y88459060D01*
X44091721Y70598727D02*
X44063845Y70501306D01*
X42302744Y88017517D02*
X42224211Y88081552D01*
X25550414Y38377934D02*
X25482483Y38302745D01*
X60402597Y22459060D02*
X60302855Y22476937D01*
X22788711Y6162085D02*
X22880788Y6204391D01*
X42795609Y73119212D02*
X42837915Y73211289D01*
X63358473Y56357464D02*
X63418448Y56275789D01*
X63251306Y87470604D02*
X63204390Y87380789D01*
X99875504Y40305390D02*
X99908278Y40401274D01*
X26498694Y72063846D02*
X26597402Y72040941D01*
X79788711Y72162085D02*
X79880788Y72204391D01*
X60880788Y55704391D02*
X60970603Y55751307D01*
X80936154Y87001306D02*
X80908278Y87098727D01*
X82162084Y7211289D02*
X82204390Y7119212D01*
X99302744Y72482484D02*
X99377933Y72550415D01*
X99142536Y55141527D02*
X99057928Y55197289D01*
X45697144Y55476937D02*
X45597402Y55459060D01*
X83697144Y72023064D02*
X83797663Y72010262D01*
X100000000Y41000000D02*
X100000000Y53500000D01*
X99449585Y54877934D02*
X99377933Y54949586D01*
X82482483Y6697256D02*
X82550414Y6622067D01*
X63942071Y39302712D02*
X64029396Y39251307D01*
X99989738Y20702337D02*
X99976936Y20802856D01*
X43000000Y20500000D02*
X42997433Y20601299D01*
X83401273Y22408279D02*
X83305389Y22375505D01*
X23641526Y56357464D02*
X23697288Y56442072D01*
X63023063Y53802856D02*
X63010261Y53702337D01*
X82358473Y87642537D02*
X82302711Y87557929D01*
X44002566Y53601299D02*
X44000000Y53500000D01*
X80517516Y38302745D02*
X80449585Y38377934D01*
X83498694Y38936155D02*
X83401273Y38908279D01*
X64029396Y55751307D02*
X64119211Y55704391D01*
X61837915Y87288712D02*
X61795609Y87380789D01*
X82040940Y7597403D02*
X82063845Y7498695D01*
X7305389Y88375505D02*
X7211288Y88337916D01*
X82775788Y38581552D02*
X82697255Y38517517D01*
X80908278Y7401274D02*
X80936154Y7498695D01*
X60101298Y72002567D02*
X60202336Y72010262D01*
X80517516Y54802745D02*
X80449585Y54877934D01*
X63002566Y20601299D02*
X63000000Y20500000D01*
X60970603Y22751307D02*
X61057928Y22802712D01*
X22501305Y38936155D02*
X22402597Y38959060D01*
X99936154Y7498695D02*
X99959059Y7597403D01*
X42302744Y39482484D02*
X42377933Y39550415D01*
X82358473Y71142537D02*
X82302711Y71057929D01*
X22202336Y72010262D02*
X22302855Y72023064D01*
X25002566Y53601299D02*
X25000000Y53500000D01*
X99377933Y87949586D02*
X99302744Y88017517D01*
X6063845Y37501306D02*
X6040940Y37402598D01*
X6023063Y53802856D02*
X6010261Y53702337D01*
X61449585Y87877934D02*
X61377933Y87949586D01*
X80795609Y54380789D02*
X80748693Y54470604D01*
X79694610Y39124496D02*
X79788711Y39162085D01*
X82010261Y53702337D02*
X82002566Y53601299D01*
X44482483Y71302745D02*
X44418448Y71224212D01*
X99989738Y57297664D02*
X99997433Y57398702D01*
X22694610Y38875505D02*
X22598726Y38908279D01*
X6204390Y40119212D02*
X6251306Y40029397D01*
X6000000Y20500000D02*
X6000000Y8000000D01*
X26898701Y6002567D02*
X27000000Y6000000D01*
X6697255Y88017517D02*
X6622066Y87949586D01*
X99936154Y73498695D02*
X99959059Y73597403D01*
X82063845Y23998695D02*
X82091721Y23901274D01*
X26119211Y39204391D02*
X26211288Y39162085D01*
X60880788Y6204391D02*
X60970603Y6251307D01*
X44482483Y87802745D02*
X44418448Y87724212D01*
X42142536Y38641527D02*
X42057928Y38697289D01*
X63023063Y40697145D02*
X63040940Y40597403D01*
X42976936Y37302856D02*
X42959059Y37402598D01*
X44023063Y7697145D02*
X44040940Y7597403D01*
X42989738Y73797664D02*
X42997433Y73898702D01*
X41402597Y22459060D02*
X41302855Y22476937D01*
X105980785Y93695091D02*
X105956940Y93790285D01*
X63775788Y39418449D02*
X63857463Y39358474D01*
X25162084Y73211289D02*
X25204390Y73119212D01*
X79970603Y55248694D02*
X79880788Y55295610D01*
X44162084Y56711289D02*
X44204390Y56619212D01*
X6857463Y39358474D02*
X6942071Y39302712D01*
X23997433Y73898702D02*
X24000000Y74000000D01*
X60402597Y55540941D02*
X60501305Y55563846D01*
X45597402Y6040941D02*
X45697144Y6023064D01*
X99936154Y87001306D02*
X99908278Y87098727D01*
X80795609Y87380789D02*
X80748693Y87470604D01*
X61748693Y23529397D02*
X61795609Y23619212D01*
X61449585Y6622067D02*
X61517516Y6697256D01*
X26797663Y22489739D02*
X26697144Y22476937D01*
X63418448Y56275789D02*
X63482483Y56197256D01*
X44000000Y20500000D02*
X44000000Y8000000D01*
X6482483Y72697256D02*
X6550414Y72622067D01*
X26697144Y38976937D02*
X26597402Y38959060D01*
X63023063Y24197145D02*
X63040940Y24097403D01*
X105923879Y617317D02*
X105956940Y709716D01*
X98970603Y6251307D02*
X99057928Y6302712D01*
X27000000Y39000000D02*
X26898701Y38997434D01*
X61959059Y57097403D02*
X61976936Y57197145D01*
X26305389Y55624496D02*
X26401273Y55591722D01*
X61976936Y73697145D02*
X61989738Y73797664D01*
X99302744Y6482484D02*
X99377933Y6550415D01*
X82010261Y86702337D02*
X82002566Y86601299D01*
X6697255Y71517517D02*
X6622066Y71449586D01*
X22302855Y6023064D02*
X22302855Y6023064D01*
X45898701Y55502567D02*
X46000000Y55500000D01*
X6622066Y56050415D02*
X6697255Y55982484D01*
X26401273Y55591722D02*
X26498694Y55563846D01*
X63204390Y54380789D02*
X63162084Y54288712D01*
X42959059Y57097403D02*
X42976936Y57197145D01*
X6023063Y70302856D02*
X6010261Y70202337D01*
X99959059Y7597403D02*
X99976936Y7697145D01*
X23936154Y87001306D02*
X23908278Y87098727D01*
X82010261Y24297664D02*
X82023063Y24197145D01*
X25091721Y40401274D02*
X25124495Y40305390D01*
X45401273Y55408279D02*
X45305389Y55375505D01*
X99057928Y38697289D02*
X98970603Y38748694D01*
X84000000Y72000000D02*
X83898701Y71997434D01*
X80302744Y55017517D02*
X80224211Y55081552D01*
X61377933Y87949586D02*
X61302744Y88017517D01*
X82942071Y6302712D02*
X83029396Y6251307D01*
X23302744Y38517517D02*
X23224211Y38581552D01*
X99976936Y53802856D02*
X99959059Y53902598D01*
X60302855Y55476937D02*
X60202336Y55489739D01*
X22970603Y55751307D02*
X23057928Y55802712D01*
X85000000Y5000000D02*
X78000000Y5000000D01*
X22101298Y39002567D02*
X22202336Y39010262D01*
X61302744Y22017517D02*
X61224211Y22081552D01*
X6942071Y55197289D02*
X6857463Y55141527D01*
X42302744Y6482484D02*
X42377933Y6550415D01*
X61959059Y40597403D02*
X61976936Y40697145D01*
X47000000Y5000000D02*
X40000000Y5000000D01*
X6418448Y23275789D02*
X6482483Y23197256D01*
X82358473Y38142537D02*
X82302711Y38057929D01*
X44857463Y88141527D02*
X44775788Y88081552D01*
X80748693Y23529397D02*
X80795609Y23619212D01*
X80989738Y37202337D02*
X80976936Y37302856D01*
X80517516Y23197256D02*
X80581551Y23275789D01*
X79970603Y72251307D02*
X80057928Y72302712D01*
X98598726Y39091722D02*
X98694610Y39124496D01*
X82002566Y7898702D02*
X82010261Y7797664D01*
X61142536Y71641527D02*
X61057928Y71697289D01*
X23748693Y54470604D02*
X23697288Y54557929D01*
X99517516Y38302745D02*
X99449585Y38377934D01*
X42875504Y37694611D02*
X42837915Y37788712D01*
X82251306Y7029397D02*
X82302711Y6942072D01*
X6482483Y39697256D02*
X6550414Y39622067D01*
X99908278Y54098727D02*
X99875504Y54194611D01*
X22402597Y55459060D02*
X22302855Y55476937D01*
X105956940Y709716D02*
X105980785Y804910D01*
X25418448Y71224212D02*
X25358473Y71142537D01*
X83797663Y38989739D02*
X83697144Y38976937D01*
X62000000Y8000000D02*
X62000000Y20500000D01*
X41101298Y22502567D02*
X41202336Y22510262D01*
X64597402Y39040941D02*
X64697144Y39023064D01*
X80795609Y70880789D02*
X80748693Y70970604D01*
X61989738Y57297664D02*
X61997433Y57398702D01*
X6358473Y56357464D02*
X6418448Y56275789D01*
X82002566Y53601299D02*
X82000000Y53500000D01*
X41202336Y38989739D02*
X41101298Y38997434D01*
X44418448Y23275789D02*
X44482483Y23197256D01*
X61989738Y37202337D02*
X61976936Y37302856D01*
X6942071Y88197289D02*
X6857463Y88141527D01*
X98501305Y71936155D02*
X98402597Y71959060D01*
X80997433Y7898702D02*
X81000000Y8000000D01*
X79202336Y22510262D02*
X79302855Y22523064D01*
X63358473Y71142537D02*
X63302711Y71057929D01*
X6775788Y72418449D02*
X6857463Y72358474D01*
X44302711Y39942072D02*
X44358473Y39857464D01*
X63204390Y70880789D02*
X63162084Y70788712D01*
X25023063Y24197145D02*
X25040940Y24097403D01*
X63063845Y56998695D02*
X63091721Y56901274D01*
X43000000Y70000000D02*
X42997433Y70101299D01*
X25358473Y56357464D02*
X25418448Y56275789D01*
X79202336Y38989739D02*
X79101298Y38997434D01*
X61697288Y87557929D02*
X61641526Y87642537D01*
X44857463Y55858474D02*
X44942071Y55802712D01*
X26119211Y72204391D02*
X26211288Y72162085D01*
X79694610Y55375505D02*
X79598726Y55408279D01*
X617316Y94423880D02*
X528603Y94381922D01*
X82418448Y23275789D02*
X82482483Y23197256D01*
X25857463Y38641527D02*
X25775788Y38581552D01*
X25482483Y56197256D02*
X25550414Y56122067D01*
X99224211Y72418449D02*
X99302744Y72482484D01*
X6697255Y72482484D02*
X6775788Y72418449D01*
X6251306Y23529397D02*
X6302711Y23442072D01*
X60302855Y22523064D02*
X60402597Y22540941D01*
X42641526Y21642537D02*
X42581551Y21724212D01*
X61875504Y7305390D02*
X61908278Y7401274D01*
X63251306Y21470604D02*
X63204390Y21380789D01*
X7305389Y55624496D02*
X7401273Y55591722D01*
X80142536Y22141527D02*
X80057928Y22197289D01*
X100000000Y8000000D02*
X100000000Y20500000D01*
X61959059Y53902598D02*
X61936154Y54001306D01*
X25204390Y37880789D02*
X25162084Y37788712D01*
X23908278Y40401274D02*
X23936154Y40498695D01*
X7211288Y22662085D02*
X7305389Y22624496D01*
X99875504Y87194611D02*
X99837915Y87288712D01*
X82697255Y71517517D02*
X82622066Y71449586D01*
X99517516Y54802745D02*
X99449585Y54877934D01*
X23581551Y38224212D02*
X23517516Y38302745D01*
X105923879Y93882684D02*
X105881921Y93971397D01*
X61997433Y7898702D02*
X62000000Y8000000D01*
X25040940Y73597403D02*
X25063845Y73498695D01*
X99976936Y20802856D02*
X99959059Y20902598D01*
X61697288Y21557929D02*
X61641526Y21642537D01*
X80959059Y73597403D02*
X80976936Y73697145D01*
X45797663Y38989739D02*
X45697144Y38976937D01*
X44482483Y6697256D02*
X44550414Y6622067D01*
X528603Y94381922D02*
X444429Y94331470D01*
X6697255Y22017517D02*
X6622066Y21949586D01*
X44857463Y71641527D02*
X44775788Y71581552D01*
X82358473Y56357464D02*
X82418448Y56275789D01*
X99989738Y86702337D02*
X99976936Y86802856D01*
X61697288Y6942072D02*
X61748693Y7029397D01*
X98402597Y55540941D02*
X98501305Y55563846D01*
X44010261Y24297664D02*
X44023063Y24197145D01*
X99302744Y38517517D02*
X99224211Y38581552D01*
X79101298Y22497434D02*
X79000000Y22500000D01*
X22501305Y55436155D02*
X22402597Y55459060D01*
X63002566Y70101299D02*
X63000000Y70000000D01*
X24000000Y20500000D02*
X23997433Y20601299D01*
X25302711Y23442072D02*
X25358473Y23357464D01*
X26401273Y38908279D02*
X26305389Y38875505D01*
X44251306Y70970604D02*
X44204390Y70880789D01*
X60694610Y55624496D02*
X60788711Y55662085D01*
X60598726Y88408279D02*
X60501305Y88436155D01*
X80936154Y37501306D02*
X80908278Y37598727D01*
X25482483Y54802745D02*
X25418448Y54724212D01*
X80057928Y39302712D02*
X80142536Y39358474D01*
X61989738Y86702337D02*
X61976936Y86802856D01*
X45305389Y22624496D02*
X45401273Y22591722D01*
X64401273Y38908279D02*
X64305389Y38875505D01*
X44023063Y73697145D02*
X44040940Y73597403D01*
X99875504Y70694611D02*
X99837915Y70788712D01*
X61517516Y71302745D02*
X61449585Y71377934D01*
X61581551Y87724212D02*
X61517516Y87802745D01*
X80224211Y88081552D02*
X80142536Y88141527D01*
X42641526Y54642537D02*
X42581551Y54724212D01*
X42908278Y7401274D02*
X42936154Y7498695D01*
X44550414Y87877934D02*
X44482483Y87802745D01*
X61875504Y37694611D02*
X61837915Y37788712D01*
X6358473Y6857464D02*
X6418448Y6775789D01*
X22970603Y71748694D02*
X22880788Y71795610D01*
X63251306Y54470604D02*
X63204390Y54380789D01*
X26597402Y88459060D02*
X26498694Y88436155D01*
X25550414Y21877934D02*
X25482483Y21802745D01*
X23936154Y40498695D02*
X23959059Y40597403D01*
X22000000Y72000000D02*
X22101298Y72002567D01*
X99377933Y71449586D02*
X99302744Y71517517D01*
X23697288Y56442072D02*
X23748693Y56529397D01*
X82040940Y86902598D02*
X82023063Y86802856D01*
X23748693Y70970604D02*
X23697288Y71057929D01*
X25697255Y71517517D02*
X25622066Y71449586D01*
X64898701Y38997434D02*
X64797663Y38989739D01*
X79302855Y22523064D02*
X79402597Y22540941D01*
X42959059Y86902598D02*
X42936154Y87001306D01*
X23908278Y37598727D02*
X23875504Y37694611D01*
X81000000Y41000000D02*
X81000000Y53500000D01*
X79880788Y22704391D02*
X79970603Y22751307D01*
X83401273Y88408279D02*
X83305389Y88375505D01*
X60788711Y55662085D02*
X60880788Y55704391D01*
X82023063Y37302856D02*
X82010261Y37202337D01*
X23142536Y22858474D02*
X23224211Y22918449D01*
X26797663Y55510262D02*
X26898701Y55502567D01*
X44063845Y37501306D02*
X44040940Y37402598D01*
X25251306Y21470604D02*
X25204390Y21380789D01*
X80641526Y71142537D02*
X80581551Y71224212D01*
X64498694Y39063846D02*
X64597402Y39040941D01*
X6251306Y21470604D02*
X6204390Y21380789D01*
X44418448Y6775789D02*
X44482483Y6697256D01*
X64401273Y55408279D02*
X64305389Y55375505D01*
X41101298Y6002567D02*
X41202336Y6010262D01*
X61989738Y73797664D02*
X61997433Y73898702D01*
X42837915Y7211289D02*
X42875504Y7305390D01*
X79000000Y22500000D02*
X79101298Y22502567D01*
X6857463Y71641527D02*
X6775788Y71581552D01*
X25063845Y54001306D02*
X25040940Y53902598D01*
X22788711Y38837916D02*
X22694610Y38875505D01*
X44000000Y70000000D02*
X44000000Y57500000D01*
X82775788Y72418449D02*
X82857463Y72358474D01*
X80641526Y23357464D02*
X80697288Y23442072D01*
X61837915Y73211289D02*
X61875504Y73305390D01*
X25942071Y55802712D02*
X26029396Y55751307D01*
X98402597Y55459060D02*
X98302855Y55476937D01*
X42302744Y38517517D02*
X42224211Y38581552D01*
X99795609Y87380789D02*
X99748693Y87470604D01*
X80976936Y37302856D02*
X80959059Y37402598D01*
X25622066Y72550415D02*
X25697255Y72482484D01*
X41970603Y55248694D02*
X41880788Y55295610D01*
X22402597Y22540941D02*
X22501305Y22563846D01*
X6002566Y20601299D02*
X6000000Y20500000D01*
X61976936Y7697145D02*
X61989738Y7797664D01*
X45119211Y22295610D02*
X45029396Y22248694D01*
X23581551Y72775789D02*
X23641526Y72857464D01*
X83211288Y71837916D02*
X83119211Y71795610D01*
X45305389Y39124496D02*
X45401273Y39091722D01*
X26797663Y39010262D02*
X26898701Y39002567D01*
X41694610Y71875505D02*
X41598726Y71908279D01*
X42936154Y56998695D02*
X42959059Y57097403D01*
X83898701Y72002567D02*
X84000000Y72000000D01*
X60598726Y39091722D02*
X60694610Y39124496D01*
X23875504Y54194611D02*
X23837915Y54288712D01*
X25124495Y70694611D02*
X25091721Y70598727D01*
X79101298Y71997434D02*
X79000000Y72000000D01*
X99224211Y88081552D02*
X99142536Y88141527D01*
X64029396Y22248694D02*
X63942071Y22197289D01*
X22694610Y22624496D02*
X22788711Y22662085D01*
X82622066Y54949586D02*
X82550414Y54877934D01*
X6000000Y8000000D02*
X6002566Y7898702D01*
X83029396Y6251307D02*
X83119211Y6204391D01*
X25697255Y55017517D02*
X25622066Y54949586D01*
X41402597Y71959060D02*
X41302855Y71976937D01*
X60402597Y38959060D02*
X60302855Y38976937D01*
X60402597Y6040941D02*
X60501305Y6063846D01*
X42057928Y38697289D02*
X41970603Y38748694D01*
X23581551Y71224212D02*
X23517516Y71302745D01*
X41788711Y88337916D02*
X41694610Y88375505D01*
X7305389Y72124496D02*
X7401273Y72091722D01*
X82124495Y37694611D02*
X82091721Y37598727D01*
X80581551Y39775789D02*
X80641526Y39857464D01*
X105000000Y94500000D02*
X1000000Y94500000D01*
X80795609Y56619212D02*
X80837915Y56711289D01*
X23449585Y54877934D02*
X23377933Y54949586D01*
X79598726Y88408279D02*
X79501305Y88436155D01*
X98598726Y55591722D02*
X98694610Y55624496D01*
X105471396Y118079D02*
X105555570Y168531D01*
X61057928Y88197289D02*
X60970603Y88248694D01*
X6622066Y6550415D02*
X6697255Y6482484D01*
X25302711Y21557929D02*
X25251306Y21470604D01*
X26211288Y38837916D02*
X26119211Y38795610D01*
X99795609Y70880789D02*
X99748693Y70970604D01*
X23641526Y71142537D02*
X23581551Y71224212D01*
X82251306Y87470604D02*
X82204390Y87380789D01*
X44942071Y38697289D02*
X44857463Y38641527D01*
X25942071Y39302712D02*
X26029396Y39251307D01*
X59000000Y6000000D02*
X60000000Y6000000D01*
X42959059Y24097403D02*
X42976936Y24197145D01*
X60202336Y6010262D02*
X60302855Y6023064D01*
X82942071Y88197289D02*
X82857463Y88141527D01*
X7119211Y39204391D02*
X7211288Y39162085D01*
X61142536Y72358474D02*
X61224211Y72418449D01*
X61989738Y53702337D02*
X61976936Y53802856D01*
X25063845Y87001306D02*
X25040940Y86902598D01*
X23377933Y39550415D02*
X23449585Y39622067D01*
X41970603Y88248694D02*
X41880788Y88295610D01*
X63857463Y71641527D02*
X63775788Y71581552D01*
X83697144Y88476937D02*
X83597402Y88459060D01*
X25418448Y21724212D02*
X25358473Y21642537D01*
X22880788Y38795610D02*
X22788711Y38837916D01*
X82302711Y38057929D02*
X82251306Y37970604D01*
X23936154Y23998695D02*
X23959059Y24097403D01*
X23748693Y56529397D02*
X23795609Y56619212D01*
X44040940Y40597403D02*
X44063845Y40498695D01*
X26597402Y71959060D02*
X26498694Y71936155D01*
X82124495Y54194611D02*
X82091721Y54098727D01*
X80875504Y23805390D02*
X80908278Y23901274D01*
X63010261Y37202337D02*
X63002566Y37101299D01*
X6010261Y7797664D02*
X6023063Y7697145D01*
X42837915Y70788712D02*
X42795609Y70880789D01*
X25091721Y21098727D02*
X25063845Y21001306D01*
X83898701Y38997434D02*
X83797663Y38989739D01*
X98694610Y72124496D02*
X98788711Y72162085D01*
X98202336Y22510262D02*
X98302855Y22523064D01*
X22970603Y6251307D02*
X23057928Y6302712D01*
X80976936Y70302856D02*
X80959059Y70402598D01*
X98880788Y22295610D02*
X98788711Y22337916D01*
X80936154Y54001306D02*
X80908278Y54098727D01*
X98302855Y6023064D02*
X98402597Y6040941D01*
X80142536Y71641527D02*
X80057928Y71697289D01*
X7305389Y22375505D02*
X7211288Y22337916D01*
X83119211Y88295610D02*
X83029396Y88248694D01*
X63857463Y6358474D02*
X63942071Y6302712D01*
X23908278Y54098727D02*
X23875504Y54194611D01*
X105471396Y94381922D02*
X105382683Y94423880D01*
X79501305Y55563846D02*
X79598726Y55591722D01*
X64597402Y22540941D02*
X64697144Y22523064D01*
X804909Y94480786D02*
X804909Y94480786D01*
X82622066Y23050415D02*
X82697255Y22982484D01*
X42641526Y38142537D02*
X42581551Y38224212D01*
X79402597Y22540941D02*
X79501305Y22563846D01*
X82124495Y23805390D02*
X82162084Y23711289D01*
X44010261Y20702337D02*
X44002566Y20601299D01*
X82482483Y87802745D02*
X82418448Y87724212D01*
X84000000Y88500000D02*
X83898701Y88497434D01*
X23837915Y23711289D02*
X23875504Y23805390D01*
X61377933Y21949586D02*
X61302744Y22017517D01*
X98202336Y55510262D02*
X98302855Y55523064D01*
X6010261Y20702337D02*
X6002566Y20601299D01*
X44204390Y40119212D02*
X44251306Y40029397D01*
X26597402Y22540941D02*
X26697144Y22523064D01*
X25040940Y7597403D02*
X25063845Y7498695D01*
X99748693Y54470604D02*
X99697288Y54557929D01*
X63418448Y71224212D02*
X63358473Y71142537D01*
X60402597Y71959060D02*
X60302855Y71976937D01*
X79501305Y6063846D02*
X79598726Y6091722D01*
X99989738Y7797664D02*
X99997433Y7898702D01*
X44697255Y72482484D02*
X44775788Y72418449D01*
X42997433Y53601299D02*
X42989738Y53702337D01*
X82162084Y23711289D02*
X82204390Y23619212D01*
X41302855Y55523064D02*
X41402597Y55540941D01*
X80875504Y37694611D02*
X80837915Y37788712D01*
X21000000Y5000000D02*
X21000000Y6000000D01*
X98880788Y71795610D02*
X98788711Y71837916D01*
X79202336Y22489739D02*
X79101298Y22497434D01*
X85000000Y6000000D02*
X85000000Y5000000D01*
X60598726Y55408279D02*
X60501305Y55436155D01*
X82162084Y87288712D02*
X82124495Y87194611D01*
X64401273Y72091722D02*
X64498694Y72063846D01*
X105980785Y804910D02*
X105995184Y901983D01*
X23697288Y54557929D02*
X23641526Y54642537D01*
X44857463Y22858474D02*
X44942071Y22802712D01*
X61959059Y20902598D02*
X61936154Y21001306D01*
X292893Y94207107D02*
X226989Y94134394D01*
X98402597Y38959060D02*
X98302855Y38976937D01*
X44204390Y23619212D02*
X44251306Y23529397D01*
X61989738Y7797664D02*
X61997433Y7898702D01*
X98501305Y38936155D02*
X98402597Y38959060D01*
X44204390Y56619212D02*
X44251306Y56529397D01*
X41694610Y38875505D02*
X41598726Y38908279D01*
X80959059Y70402598D02*
X80936154Y70501306D01*
X42057928Y22802712D02*
X42142536Y22858474D01*
X82000000Y70000000D02*
X82000000Y57500000D01*
X25622066Y38449586D02*
X25550414Y38377934D01*
X98302855Y88476937D02*
X98202336Y88489739D01*
X82302711Y56442072D02*
X82358473Y56357464D01*
X80302744Y55982484D02*
X80377933Y56050415D01*
X6622066Y71449586D02*
X6550414Y71377934D01*
X25010261Y53702337D02*
X25002566Y53601299D01*
X98202336Y55489739D02*
X98101298Y55497434D01*
X80936154Y73498695D02*
X80959059Y73597403D01*
X98101298Y55497434D02*
X98000000Y55500000D01*
X64211288Y6162085D02*
X64305389Y6124496D01*
X82251306Y56529397D02*
X82302711Y56442072D01*
X60202336Y22510262D02*
X60302855Y22523064D01*
X80449585Y39622067D02*
X80517516Y39697256D01*
X99959059Y20902598D02*
X99936154Y21001306D01*
X98402597Y6040941D02*
X98501305Y6063846D01*
X99875504Y21194611D02*
X99837915Y21288712D01*
X80748693Y7029397D02*
X80795609Y7119212D01*
X79501305Y55436155D02*
X79402597Y55459060D01*
X80142536Y38641527D02*
X80057928Y38697289D01*
X99837915Y40211289D02*
X99875504Y40305390D01*
X63302711Y6942072D02*
X63358473Y6857464D01*
X80224211Y22081552D02*
X80142536Y22141527D01*
X64697144Y22476937D02*
X64597402Y22459060D01*
X63857463Y55858474D02*
X63942071Y55802712D01*
X99908278Y56901274D02*
X99936154Y56998695D01*
X63204390Y56619212D02*
X63251306Y56529397D01*
X26401273Y39091722D02*
X26498694Y39063846D01*
X98302855Y71976937D02*
X98202336Y71989739D01*
X7401273Y55591722D02*
X7498694Y55563846D01*
X26401273Y88408279D02*
X26305389Y88375505D01*
X44482483Y72697256D02*
X44550414Y72622067D01*
X60402597Y39040941D02*
X60501305Y39063846D01*
X80641526Y87642537D02*
X80581551Y87724212D01*
X41788711Y6162085D02*
X41880788Y6204391D01*
X80795609Y73119212D02*
X80837915Y73211289D01*
X83697144Y38976937D02*
X83597402Y38959060D01*
X23795609Y23619212D02*
X23837915Y23711289D01*
X44550414Y21877934D02*
X44482483Y21802745D01*
X23697288Y23442072D02*
X23748693Y23529397D01*
X80997433Y53601299D02*
X80989738Y53702337D01*
X25697255Y38517517D02*
X25622066Y38449586D01*
X45119211Y55704391D02*
X45211288Y55662085D01*
X26211288Y71837916D02*
X26119211Y71795610D01*
X105098017Y4816D02*
X105195090Y19215D01*
X6942071Y22802712D02*
X7029396Y22751307D01*
X61936154Y73498695D02*
X61959059Y73597403D01*
X64898701Y22497434D02*
X64797663Y22489739D01*
X22101298Y38997434D02*
X22000000Y39000000D01*
X6010261Y37202337D02*
X6002566Y37101299D01*
X42581551Y38224212D02*
X42517516Y38302745D01*
X6204390Y56619212D02*
X6251306Y56529397D01*
X6942071Y39302712D02*
X7029396Y39251307D01*
X61057928Y22197289D02*
X60970603Y22248694D01*
X23057928Y71697289D02*
X22970603Y71748694D01*
X64797663Y88489739D02*
X64697144Y88476937D01*
X44697255Y6482484D02*
X44775788Y6418449D01*
X7898701Y88497434D02*
X7797663Y88489739D01*
X22302855Y22523064D02*
X22402597Y22540941D01*
X99997433Y86601299D02*
X99989738Y86702337D01*
X23641526Y54642537D02*
X23581551Y54724212D01*
X98970603Y38748694D02*
X98880788Y38795610D01*
X80976936Y20802856D02*
X80959059Y20902598D01*
X44162084Y70788712D02*
X44124495Y70694611D01*
X44091721Y73401274D02*
X44124495Y73305390D01*
X47000000Y89500000D02*
X47000000Y88500000D01*
X59000000Y88500000D02*
X59000000Y89500000D01*
X99377933Y38449586D02*
X99302744Y38517517D01*
X63697255Y22017517D02*
X63622066Y21949586D01*
X8000000Y55500000D02*
X7898701Y55497434D01*
X63063845Y54001306D02*
X63040940Y53902598D01*
X80697288Y71057929D02*
X80641526Y71142537D01*
X63000000Y20500000D02*
X63000000Y8000000D01*
X23976936Y86802856D02*
X23959059Y86902598D01*
X6358473Y54642537D02*
X6302711Y54557929D01*
X44942071Y71697289D02*
X44857463Y71641527D01*
X45898701Y72002567D02*
X46000000Y72000000D01*
X61748693Y7029397D02*
X61795609Y7119212D01*
X83305389Y6124496D02*
X83401273Y6091722D01*
X63002566Y73898702D02*
X63010261Y73797664D01*
X25010261Y57297664D02*
X25023063Y57197145D01*
X44482483Y21802745D02*
X44418448Y21724212D01*
X6002566Y24398702D02*
X6010261Y24297664D01*
X80795609Y23619212D02*
X80837915Y23711289D01*
X44622066Y23050415D02*
X44697255Y22982484D01*
X44063845Y54001306D02*
X44040940Y53902598D01*
X82302711Y54557929D02*
X82251306Y54470604D01*
X44302711Y54557929D02*
X44251306Y54470604D01*
X25942071Y22197289D02*
X25857463Y22141527D01*
X25124495Y73305390D02*
X25162084Y73211289D01*
X80224211Y22918449D02*
X80302744Y22982484D01*
X901982Y4816D02*
X1000000Y0D01*
X63002566Y24398702D02*
X63010261Y24297664D01*
X41202336Y71989739D02*
X41101298Y71997434D01*
X99837915Y23711289D02*
X99875504Y23805390D01*
X26029396Y88248694D02*
X25942071Y88197289D01*
X41101298Y55497434D02*
X41000000Y55500000D01*
X42581551Y87724212D02*
X42517516Y87802745D01*
X8000000Y39000000D02*
X7898701Y38997434D01*
X80989738Y7797664D02*
X80997433Y7898702D01*
X25204390Y87380789D02*
X25162084Y87288712D01*
X105382683Y76121D02*
X105471396Y118079D01*
X80997433Y57398702D02*
X81000000Y57500000D01*
X66000000Y5000000D02*
X59000000Y5000000D01*
X41402597Y88459060D02*
X41302855Y88476937D01*
X80697288Y87557929D02*
X80641526Y87642537D01*
X26597402Y55540941D02*
X26697144Y55523064D01*
X42997433Y70101299D02*
X42989738Y70202337D01*
X82251306Y21470604D02*
X82204390Y21380789D01*
X61517516Y23197256D02*
X61581551Y23275789D01*
X7498694Y22563846D02*
X7597402Y22540941D01*
X25010261Y37202337D02*
X25002566Y37101299D01*
X25482483Y87802745D02*
X25418448Y87724212D01*
X22302855Y38976937D02*
X22202336Y38989739D01*
X41880788Y39204391D02*
X41970603Y39251307D01*
X26898701Y22497434D02*
X26797663Y22489739D01*
X80837915Y37788712D02*
X80795609Y37880789D01*
X6302711Y71057929D02*
X6251306Y70970604D01*
X44063845Y73498695D02*
X44091721Y73401274D01*
X61959059Y86902598D02*
X61936154Y87001306D01*
X6622066Y87949586D02*
X6550414Y87877934D01*
X42057928Y71697289D02*
X41970603Y71748694D01*
X80697288Y54557929D02*
X80641526Y54642537D01*
X42302744Y71517517D02*
X42224211Y71581552D01*
X44091721Y7401274D02*
X44124495Y7305390D01*
X82010261Y57297664D02*
X82023063Y57197145D01*
X41501305Y55563846D02*
X41598726Y55591722D01*
X64029396Y22751307D02*
X64119211Y22704391D01*
X7797663Y6010262D02*
X7898701Y6002567D01*
X6000000Y41000000D02*
X6002566Y40898702D01*
X42748693Y87470604D02*
X42697288Y87557929D01*
X80837915Y56711289D02*
X80875504Y56805390D01*
X99748693Y56529397D02*
X99795609Y56619212D01*
X82063845Y21001306D02*
X82040940Y20902598D01*
X45211288Y38837916D02*
X45119211Y38795610D01*
X26498694Y88436155D02*
X26401273Y88408279D01*
X82697255Y88017517D02*
X82622066Y87949586D01*
X26498694Y39063846D02*
X26597402Y39040941D01*
X61875504Y87194611D02*
X61837915Y87288712D01*
X82418448Y56275789D02*
X82482483Y56197256D01*
X42057928Y88197289D02*
X41970603Y88248694D01*
X42976936Y73697145D02*
X42989738Y73797664D01*
X22694610Y55624496D02*
X22788711Y55662085D01*
X23142536Y6358474D02*
X23224211Y6418449D01*
X61908278Y56901274D02*
X61936154Y56998695D01*
X118078Y93971397D02*
X76120Y93882684D01*
X83597402Y38959060D02*
X83498694Y38936155D01*
X105995184Y93598018D02*
X105980785Y93695091D01*
X61641526Y71142537D02*
X61581551Y71224212D01*
X80302744Y39482484D02*
X80377933Y39550415D01*
X61302744Y38517517D02*
X61224211Y38581552D01*
X61795609Y56619212D02*
X61837915Y56711289D01*
X105195090Y19215D02*
X105290284Y43060D01*
X26305389Y72124496D02*
X26401273Y72091722D01*
X99936154Y40498695D02*
X99959059Y40597403D01*
X42377933Y71449586D02*
X42302744Y71517517D01*
X41788711Y22337916D02*
X41694610Y22375505D01*
X61875504Y40305390D02*
X61908278Y40401274D01*
X99875504Y7305390D02*
X99908278Y7401274D01*
X42641526Y87642537D02*
X42581551Y87724212D01*
X44302711Y87557929D02*
X44251306Y87470604D01*
X6091721Y70598727D02*
X6063845Y70501306D01*
X105956940Y93790285D02*
X105923879Y93882684D01*
X44162084Y21288712D02*
X44124495Y21194611D01*
X61908278Y37598727D02*
X61875504Y37694611D01*
X6775788Y39418449D02*
X6857463Y39358474D01*
X6063845Y56998695D02*
X6091721Y56901274D01*
X61377933Y23050415D02*
X61449585Y23122067D01*
X41880788Y22295610D02*
X41788711Y22337916D01*
X45597402Y22459060D02*
X45498694Y22436155D01*
X23989738Y7797664D02*
X23997433Y7898702D01*
X82124495Y7305390D02*
X82162084Y7211289D01*
X83498694Y6063846D02*
X83597402Y6040941D01*
X25063845Y40498695D02*
X25091721Y40401274D01*
X44697255Y39482484D02*
X44775788Y39418449D01*
X82775788Y55081552D02*
X82697255Y55017517D01*
X63204390Y7119212D02*
X63251306Y7029397D01*
X82251306Y70970604D02*
X82204390Y70880789D01*
X63857463Y22858474D02*
X63942071Y22802712D01*
X79880788Y6204391D02*
X79970603Y6251307D01*
X99908278Y23901274D02*
X99936154Y23998695D01*
X82000000Y86500000D02*
X82000000Y74000000D01*
X7697144Y6023064D02*
X7797663Y6010262D01*
X63302711Y72942072D02*
X63358473Y72857464D01*
X80908278Y73401274D02*
X80936154Y73498695D01*
X63251306Y73029397D02*
X63302711Y72942072D01*
X23976936Y70302856D02*
X23959059Y70402598D01*
X41694610Y22375505D02*
X41598726Y22408279D01*
X82622066Y38449586D02*
X82550414Y38377934D01*
X63302711Y23442072D02*
X63358473Y23357464D01*
X23697288Y71057929D02*
X23641526Y71142537D01*
X65000000Y39000000D02*
X64898701Y38997434D01*
X7211288Y55662085D02*
X7305389Y55624496D01*
X63857463Y55141527D02*
X63775788Y55081552D01*
X83498694Y71936155D02*
X83401273Y71908279D01*
X44251306Y7029397D02*
X44302711Y6942072D01*
X22402597Y6040941D02*
X22501305Y6063846D01*
X99989738Y37202337D02*
X99976936Y37302856D01*
X42517516Y21802745D02*
X42449585Y21877934D01*
X63023063Y70302856D02*
X63010261Y70202337D01*
X61908278Y7401274D02*
X61936154Y7498695D01*
X63418448Y38224212D02*
X63358473Y38142537D01*
X23697288Y72942072D02*
X23748693Y73029397D01*
X26498694Y22436155D02*
X26401273Y22408279D01*
X25358473Y6857464D02*
X25418448Y6775789D01*
X80875504Y7305390D02*
X80908278Y7401274D01*
X100000000Y53500000D02*
X99997433Y53601299D01*
X99517516Y21802745D02*
X99449585Y21877934D01*
X7401273Y22408279D02*
X7305389Y22375505D01*
X82002566Y57398702D02*
X82010261Y57297664D01*
X79101298Y55497434D02*
X79000000Y55500000D01*
X42302744Y55982484D02*
X42377933Y56050415D01*
X6040940Y20902598D02*
X6023063Y20802856D01*
X26029396Y71748694D02*
X25942071Y71697289D01*
X23748693Y73029397D02*
X23795609Y73119212D01*
X23989738Y40797664D02*
X23997433Y40898702D01*
X6302711Y39942072D02*
X6358473Y39857464D01*
X23224211Y6418449D02*
X23302744Y6482484D01*
X63622066Y54949586D02*
X63550414Y54877934D01*
X44063845Y87001306D02*
X44040940Y86902598D01*
X23449585Y39622067D02*
X23517516Y39697256D01*
X44775788Y6418449D02*
X44857463Y6358474D01*
X82482483Y21802745D02*
X82418448Y21724212D01*
X82063845Y40498695D02*
X82091721Y40401274D01*
X64898701Y55502567D02*
X65000000Y55500000D01*
X60598726Y22591722D02*
X60694610Y22624496D01*
X7401273Y6091722D02*
X7498694Y6063846D01*
X44418448Y21724212D02*
X44358473Y21642537D01*
X80908278Y37598727D02*
X80875504Y37694611D01*
X42224211Y6418449D02*
X42302744Y6482484D01*
X6857463Y72358474D02*
X6942071Y72302712D01*
X83211288Y55337916D02*
X83119211Y55295610D01*
X6251306Y70970604D02*
X6204390Y70880789D01*
X22101298Y72002567D02*
X22202336Y72010262D01*
X25162084Y56711289D02*
X25204390Y56619212D01*
X45029396Y22248694D02*
X44942071Y22197289D01*
X63697255Y55982484D02*
X63775788Y55918449D01*
X7597402Y71959060D02*
X7498694Y71936155D01*
X44063845Y70501306D02*
X44040940Y70402598D01*
X44023063Y57197145D02*
X44040940Y57097403D01*
X100000000Y24500000D02*
X100000000Y37000000D01*
X25482483Y6697256D02*
X25550414Y6622067D01*
X45697144Y72023064D02*
X45797663Y72010262D01*
X45119211Y72204391D02*
X45211288Y72162085D01*
X44002566Y70101299D02*
X44000000Y70000000D01*
X80936154Y70501306D02*
X80908278Y70598727D01*
X42795609Y21380789D02*
X42748693Y21470604D01*
X60598726Y72091722D02*
X60694610Y72124496D01*
X45797663Y71989739D02*
X45697144Y71976937D01*
X25002566Y86601299D02*
X25000000Y86500000D01*
X61302744Y55017517D02*
X61224211Y55081552D01*
X61936154Y70501306D02*
X61908278Y70598727D01*
X6302711Y21557929D02*
X6251306Y21470604D01*
X41694610Y6124496D02*
X41788711Y6162085D01*
X6942071Y6302712D02*
X7029396Y6251307D01*
X45305389Y55624496D02*
X45401273Y55591722D01*
X98970603Y55751307D02*
X99057928Y55802712D01*
X82251306Y73029397D02*
X82302711Y72942072D01*
X63857463Y39358474D02*
X63942071Y39302712D01*
X105000000Y0D02*
X105098017Y4816D01*
X64597402Y38959060D02*
X64498694Y38936155D01*
X25550414Y71377934D02*
X25482483Y71302745D01*
X41501305Y38936155D02*
X41402597Y38959060D01*
X42057928Y55802712D02*
X42142536Y55858474D01*
X4815Y93598018D02*
X0Y93500000D01*
X80908278Y40401274D02*
X80936154Y40498695D01*
X64797663Y38989739D02*
X64697144Y38976937D01*
X61057928Y38697289D02*
X60970603Y38748694D01*
X63040940Y24097403D02*
X63063845Y23998695D01*
X168530Y94055571D02*
X118078Y93971397D01*
X42795609Y37880789D02*
X42748693Y37970604D01*
X41202336Y55489739D02*
X41101298Y55497434D01*
X44622066Y87949586D02*
X44550414Y87877934D01*
X80795609Y7119212D02*
X80837915Y7211289D01*
X44358473Y54642537D02*
X44302711Y54557929D01*
X42057928Y22197289D02*
X41970603Y22248694D01*
X82775788Y88081552D02*
X82697255Y88017517D01*
X99641526Y71142537D02*
X99581551Y71224212D01*
X22000000Y39000000D02*
X22101298Y39002567D01*
X43000000Y74000000D02*
X43000000Y86500000D01*
X79970603Y22751307D02*
X80057928Y22802712D01*
X25418448Y54724212D02*
X25358473Y54642537D01*
X365606Y94273011D02*
X292893Y94207107D01*
X42748693Y73029397D02*
X42795609Y73119212D01*
X42936154Y7498695D02*
X42959059Y7597403D01*
X80142536Y6358474D02*
X80224211Y6418449D01*
X83211288Y22337916D02*
X83119211Y22295610D01*
X42875504Y70694611D02*
X42837915Y70788712D01*
X98302855Y55523064D02*
X98402597Y55540941D01*
X26597402Y72040941D02*
X26697144Y72023064D01*
X25000000Y70000000D02*
X25000000Y57500000D01*
X64797663Y55510262D02*
X64898701Y55502567D01*
X61377933Y56050415D02*
X61449585Y56122067D01*
X44775788Y38581552D02*
X44697255Y38517517D01*
X22598726Y55591722D02*
X22694610Y55624496D01*
X61936154Y21001306D02*
X61908278Y21098727D01*
X44358473Y72857464D02*
X44418448Y72775789D01*
X43000000Y41000000D02*
X43000000Y53500000D01*
X81000000Y8000000D02*
X81000000Y20500000D01*
X22970603Y22751307D02*
X23057928Y22802712D01*
X25124495Y54194611D02*
X25091721Y54098727D01*
X60202336Y38989739D02*
X60101298Y38997434D01*
X60970603Y6251307D02*
X61057928Y6302712D01*
X44251306Y23529397D02*
X44302711Y23442072D01*
X82091721Y21098727D02*
X82063845Y21001306D01*
X25550414Y39622067D02*
X25622066Y39550415D01*
X64305389Y39124496D02*
X64401273Y39091722D01*
X80302744Y6482484D02*
X80377933Y6550415D01*
X63775788Y38581552D02*
X63697255Y38517517D01*
X83597402Y55540941D02*
X83697144Y55523064D01*
X44002566Y7898702D02*
X44010261Y7797664D01*
X61449585Y71377934D02*
X61377933Y71449586D01*
X42581551Y54724212D02*
X42517516Y54802745D01*
X22202336Y71989739D02*
X22101298Y71997434D01*
X22788711Y71837916D02*
X22694610Y71875505D01*
X80748693Y40029397D02*
X80795609Y40119212D01*
X63023063Y20802856D02*
X63010261Y20702337D01*
X41302855Y39023064D02*
X41402597Y39040941D01*
X23302744Y55017517D02*
X23224211Y55081552D01*
X42908278Y54098727D02*
X42875504Y54194611D01*
X44010261Y70202337D02*
X44002566Y70101299D01*
X42997433Y40898702D02*
X43000000Y41000000D01*
X42997433Y7898702D02*
X43000000Y8000000D01*
X64898701Y22502567D02*
X65000000Y22500000D01*
X617316Y76121D02*
X709715Y43060D01*
X23697288Y21557929D02*
X23641526Y21642537D01*
X23517516Y71302745D02*
X23449585Y71377934D01*
X99748693Y40029397D02*
X99795609Y40119212D01*
X82204390Y54380789D02*
X82162084Y54288712D01*
X22694610Y55375505D02*
X22598726Y55408279D01*
X99795609Y40119212D02*
X99837915Y40211289D01*
X45119211Y88295610D02*
X45029396Y88248694D01*
X99748693Y87470604D02*
X99697288Y87557929D01*
X61936154Y7498695D02*
X61959059Y7597403D01*
X64597402Y71959060D02*
X64498694Y71936155D01*
X61142536Y6358474D02*
X61224211Y6418449D01*
X63358473Y72857464D02*
X63418448Y72775789D01*
X98788711Y55337916D02*
X98694610Y55375505D01*
X80449585Y23122067D02*
X80517516Y23197256D01*
X60598726Y38908279D02*
X60501305Y38936155D01*
X82697255Y39482484D02*
X82775788Y39418449D01*
X45697144Y88476937D02*
X45597402Y88459060D01*
X83119211Y22704391D02*
X83211288Y22662085D01*
X7119211Y71795610D02*
X7029396Y71748694D01*
X64697144Y55476937D02*
X64597402Y55459060D01*
X22598726Y72091722D02*
X22694610Y72124496D01*
X25204390Y73119212D02*
X25251306Y73029397D01*
X26029396Y38748694D02*
X25942071Y38697289D01*
X23959059Y40597403D02*
X23976936Y40697145D01*
X99581551Y39775789D02*
X99641526Y39857464D01*
X98202336Y6010262D02*
X98302855Y6023064D01*
X45119211Y71795610D02*
X45029396Y71748694D01*
X25063845Y73498695D02*
X25091721Y73401274D01*
X98202336Y22489739D02*
X98101298Y22497434D01*
X25023063Y86802856D02*
X25010261Y86702337D01*
X23057928Y88197289D02*
X22970603Y88248694D01*
X43000000Y24500000D02*
X43000000Y37000000D01*
X6550414Y54877934D02*
X6482483Y54802745D01*
X60302855Y22476937D02*
X60202336Y22489739D01*
X6418448Y54724212D02*
X6358473Y54642537D01*
X42581551Y71224212D02*
X42517516Y71302745D01*
X25040940Y40597403D02*
X25063845Y40498695D01*
X98880788Y72204391D02*
X98970603Y72251307D01*
X44358473Y87642537D02*
X44302711Y87557929D01*
X44418448Y87724212D02*
X44358473Y87642537D01*
X82162084Y21288712D02*
X82124495Y21194611D01*
X99697288Y71057929D02*
X99641526Y71142537D01*
X64211288Y39162085D02*
X64305389Y39124496D01*
X61581551Y71224212D02*
X61517516Y71302745D01*
X25697255Y39482484D02*
X25775788Y39418449D01*
X79598726Y55408279D02*
X79501305Y55436155D01*
X25622066Y39550415D02*
X25697255Y39482484D01*
X42936154Y21001306D02*
X42908278Y21098727D01*
X99697288Y72942072D02*
X99748693Y73029397D01*
X79880788Y71795610D02*
X79788711Y71837916D01*
X23641526Y23357464D02*
X23697288Y23442072D01*
X84000000Y55500000D02*
X83898701Y55497434D01*
X45211288Y39162085D02*
X45305389Y39124496D01*
X25775788Y72418449D02*
X25857463Y72358474D01*
X42748693Y23529397D02*
X42795609Y23619212D01*
X82622066Y87949586D02*
X82550414Y87877934D01*
X80976936Y24197145D02*
X80989738Y24297664D01*
X25162084Y87288712D02*
X25124495Y87194611D01*
X804909Y94480786D02*
X709715Y94456941D01*
X19214Y804910D02*
X43059Y709716D01*
X45119211Y38795610D02*
X45029396Y38748694D01*
X64697144Y71976937D02*
X64597402Y71959060D01*
X82063845Y87001306D02*
X82040940Y86902598D01*
X22302855Y6023064D02*
X22402597Y6040941D01*
X60202336Y88489739D02*
X60101298Y88497434D01*
X26898701Y38997434D02*
X26797663Y38989739D01*
X98101298Y88497434D02*
X98000000Y88500000D01*
X63010261Y53702337D02*
X63002566Y53601299D01*
X60501305Y55436155D02*
X60402597Y55459060D01*
X64898701Y39002567D02*
X65000000Y39000000D01*
X6023063Y57197145D02*
X6040940Y57097403D01*
X45119211Y39204391D02*
X45211288Y39162085D01*
X80377933Y54949586D02*
X80302744Y55017517D01*
X44857463Y39358474D02*
X44942071Y39302712D01*
X42517516Y38302745D02*
X42449585Y38377934D01*
X99989738Y24297664D02*
X99997433Y24398702D01*
X83211288Y39162085D02*
X83305389Y39124496D01*
X63091721Y37598727D02*
X63063845Y37501306D01*
X6124495Y87194611D02*
X6091721Y87098727D01*
X45697144Y39023064D02*
X45797663Y39010262D01*
X44775788Y55918449D02*
X44857463Y55858474D01*
X23976936Y37302856D02*
X23959059Y37402598D01*
X63251306Y56529397D02*
X63302711Y56442072D01*
X64597402Y22459060D02*
X64498694Y22436155D01*
X100000000Y57500000D02*
X100000000Y70000000D01*
X44023063Y40697145D02*
X44040940Y40597403D01*
X23795609Y40119212D02*
X23837915Y40211289D01*
X63942071Y6302712D02*
X64029396Y6251307D01*
X6040940Y24097403D02*
X6063845Y23998695D01*
X23449585Y6622067D02*
X23517516Y6697256D01*
X83498694Y39063846D02*
X83597402Y39040941D01*
X44010261Y86702337D02*
X44002566Y86601299D01*
X79402597Y6040941D02*
X79501305Y6063846D01*
X25124495Y7305390D02*
X25162084Y7211289D01*
X44124495Y37694611D02*
X44091721Y37598727D01*
X42989738Y7797664D02*
X42997433Y7898702D01*
X64029396Y6251307D02*
X64119211Y6204391D01*
X22302855Y72023064D02*
X22402597Y72040941D01*
X99997433Y37101299D02*
X99989738Y37202337D01*
X42449585Y54877934D02*
X42377933Y54949586D01*
X42795609Y56619212D02*
X42837915Y56711289D01*
X41598726Y38908279D02*
X41501305Y38936155D01*
X6697255Y55982484D02*
X6775788Y55918449D01*
X61697288Y72942072D02*
X61748693Y73029397D01*
X44622066Y72550415D02*
X44697255Y72482484D01*
X60788711Y72162085D02*
X60880788Y72204391D01*
X42224211Y22918449D02*
X42302744Y22982484D01*
X25857463Y39358474D02*
X25942071Y39302712D01*
X7119211Y55704391D02*
X7211288Y55662085D01*
X79970603Y38748694D02*
X79880788Y38795610D01*
X42997433Y86601299D02*
X42989738Y86702337D01*
X44550414Y6622067D02*
X44622066Y6550415D01*
X6302711Y56442072D02*
X6358473Y56357464D01*
X83597402Y88459060D02*
X83498694Y88436155D01*
X44251306Y40029397D02*
X44302711Y39942072D01*
X65000000Y6000000D02*
X66000000Y6000000D01*
X63942071Y72302712D02*
X64029396Y72251307D01*
X61976936Y40697145D02*
X61989738Y40797664D01*
X82302711Y87557929D02*
X82251306Y87470604D01*
X63162084Y7211289D02*
X63204390Y7119212D01*
X82857463Y72358474D02*
X82942071Y72302712D01*
X7029396Y88248694D02*
X6942071Y88197289D01*
X22694610Y6124496D02*
X22788711Y6162085D01*
X44302711Y72942072D02*
X44358473Y72857464D01*
X82251306Y40029397D02*
X82302711Y39942072D01*
X99959059Y53902598D02*
X99936154Y54001306D01*
X99908278Y87098727D02*
X99875504Y87194611D01*
X60101298Y55497434D02*
X60000000Y55500000D01*
X105290284Y94456941D02*
X105195090Y94480786D01*
X41000000Y55500000D02*
X41101298Y55502567D01*
X23449585Y72622067D02*
X23517516Y72697256D01*
X8000000Y88500000D02*
X7898701Y88497434D01*
X63162084Y23711289D02*
X63204390Y23619212D01*
X8000000Y22500000D02*
X7898701Y22497434D01*
X82040940Y53902598D02*
X82023063Y53802856D01*
X7898701Y38997434D02*
X7797663Y38989739D01*
X99377933Y39550415D02*
X99449585Y39622067D01*
X24000000Y70000000D02*
X23997433Y70101299D01*
X24000000Y37000000D02*
X23997433Y37101299D01*
X79202336Y71989739D02*
X79101298Y71997434D01*
X98302855Y22476937D02*
X98202336Y22489739D01*
X82023063Y73697145D02*
X82040940Y73597403D01*
X6023063Y73697145D02*
X6040940Y73597403D01*
X99057928Y39302712D02*
X99142536Y39358474D01*
X98302855Y39023064D02*
X98402597Y39040941D01*
X60598726Y22408279D02*
X60501305Y22436155D01*
X82482483Y71302745D02*
X82418448Y71224212D01*
X44482483Y54802745D02*
X44418448Y54724212D01*
X8000000Y72000000D02*
X7898701Y71997434D01*
X83797663Y39010262D02*
X83898701Y39002567D01*
X45211288Y55662085D02*
X45305389Y55624496D01*
X23641526Y6857464D02*
X23697288Y6942072D01*
X60302855Y88476937D02*
X60202336Y88489739D01*
X45401273Y39091722D02*
X45498694Y39063846D01*
X105831469Y444430D02*
X105881921Y528604D01*
X7597402Y72040941D02*
X7697144Y72023064D01*
X99517516Y6697256D02*
X99581551Y6775789D01*
X23641526Y39857464D02*
X23697288Y39942072D01*
X41000000Y72000000D02*
X41101298Y72002567D01*
X61697288Y56442072D02*
X61748693Y56529397D01*
X64498694Y55563846D02*
X64597402Y55540941D01*
X24000000Y53500000D02*
X23997433Y53601299D01*
X44063845Y7498695D02*
X44091721Y7401274D01*
X6550414Y21877934D02*
X6482483Y21802745D01*
X99581551Y87724212D02*
X99517516Y87802745D01*
X25063845Y23998695D02*
X25091721Y23901274D01*
X41694610Y55375505D02*
X41598726Y55408279D01*
X99875504Y54194611D02*
X99837915Y54288712D01*
X83498694Y88436155D02*
X83401273Y88408279D01*
X42748693Y40029397D02*
X42795609Y40119212D01*
X82023063Y57197145D02*
X82040940Y57097403D01*
X6000000Y74000000D02*
X6002566Y73898702D01*
X42908278Y70598727D02*
X42875504Y70694611D01*
X45119211Y55295610D02*
X45029396Y55248694D01*
X99936154Y54001306D02*
X99908278Y54098727D01*
X26898701Y55497434D02*
X26797663Y55489739D01*
X79101298Y22502567D02*
X79202336Y22510262D01*
X80697288Y72942072D02*
X80748693Y73029397D01*
X83305389Y55624496D02*
X83401273Y55591722D01*
X40000000Y88500000D02*
X40000000Y89500000D01*
X6204390Y73119212D02*
X6251306Y73029397D01*
X22402597Y55540941D02*
X22501305Y55563846D01*
X79788711Y55662085D02*
X79880788Y55704391D01*
X99302744Y22982484D02*
X99377933Y23050415D01*
X98501305Y72063846D02*
X98598726Y72091722D01*
X63162084Y40211289D02*
X63204390Y40119212D01*
X40000000Y6000000D02*
X41000000Y6000000D01*
X62000000Y24500000D02*
X62000000Y37000000D01*
X25418448Y38224212D02*
X25358473Y38142537D01*
X63775788Y72418449D02*
X63857463Y72358474D01*
X63418448Y39775789D02*
X63482483Y39697256D01*
X42142536Y39358474D02*
X42224211Y39418449D01*
X6023063Y20802856D02*
X6010261Y20702337D01*
X60694610Y72124496D02*
X60788711Y72162085D01*
X82482483Y23197256D02*
X82550414Y23122067D01*
X23748693Y37970604D02*
X23697288Y38057929D01*
X44358473Y21642537D02*
X44302711Y21557929D01*
X23875504Y40305390D02*
X23908278Y40401274D01*
X45797663Y22510262D02*
X45898701Y22502567D01*
X82857463Y6358474D02*
X82942071Y6302712D01*
X99976936Y37302856D02*
X99959059Y37402598D01*
X64697144Y38976937D02*
X64597402Y38959060D01*
X25697255Y88017517D02*
X25622066Y87949586D01*
X98101298Y38997434D02*
X98000000Y39000000D01*
X61976936Y37302856D02*
X61959059Y37402598D01*
X25023063Y37302856D02*
X25010261Y37202337D01*
X6251306Y40029397D02*
X6302711Y39942072D01*
X82418448Y71224212D02*
X82358473Y71142537D01*
X23641526Y38142537D02*
X23581551Y38224212D01*
X23449585Y87877934D02*
X23377933Y87949586D01*
X63622066Y39550415D02*
X63697255Y39482484D01*
X44697255Y71517517D02*
X44622066Y71449586D01*
X25697255Y72482484D02*
X25775788Y72418449D01*
X6162084Y23711289D02*
X6204390Y23619212D01*
X63002566Y57398702D02*
X63010261Y57297664D01*
X61875504Y56805390D02*
X61908278Y56901274D01*
X99449585Y71377934D02*
X99377933Y71449586D01*
X83898701Y22502567D02*
X84000000Y22500000D01*
X61795609Y21380789D02*
X61748693Y21470604D01*
X63550414Y21877934D02*
X63482483Y21802745D01*
X6002566Y70101299D02*
X6000000Y70000000D01*
X42875504Y7305390D02*
X42908278Y7401274D01*
X83401273Y38908279D02*
X83305389Y38875505D01*
X23936154Y73498695D02*
X23959059Y73597403D01*
X41101298Y72002567D02*
X41202336Y72010262D01*
X25775788Y22081552D02*
X25697255Y22017517D01*
X64211288Y22337916D02*
X64119211Y22295610D01*
X99057928Y22802712D02*
X99142536Y22858474D01*
X63482483Y6697256D02*
X63550414Y6622067D01*
X7119211Y6204391D02*
X7211288Y6162085D01*
X79402597Y22459060D02*
X79302855Y22476937D01*
X25000000Y24500000D02*
X25002566Y24398702D01*
X6775788Y55918449D02*
X6857463Y55858474D01*
X61997433Y86601299D02*
X61989738Y86702337D01*
X63302711Y39942072D02*
X63358473Y39857464D01*
X22302855Y55523064D02*
X22402597Y55540941D01*
X25040940Y86902598D02*
X25023063Y86802856D01*
X23377933Y56050415D02*
X23449585Y56122067D01*
X82040940Y57097403D02*
X82063845Y56998695D01*
X80641526Y72857464D02*
X80697288Y72942072D01*
X99959059Y86902598D02*
X99936154Y87001306D01*
X80837915Y21288712D02*
X80795609Y21380789D01*
X64697144Y6023064D02*
X64797663Y6010262D01*
X44204390Y21380789D02*
X44162084Y21288712D01*
X45498694Y22436155D02*
X45401273Y22408279D01*
X99224211Y22081552D02*
X99142536Y22141527D01*
X62000000Y37000000D02*
X61997433Y37101299D01*
X62000000Y74000000D02*
X62000000Y86500000D01*
X79880788Y38795610D02*
X79788711Y38837916D01*
X99697288Y38057929D02*
X99641526Y38142537D01*
X63251306Y7029397D02*
X63302711Y6942072D01*
X64498694Y22563846D02*
X64597402Y22540941D01*
X61302744Y88017517D02*
X61224211Y88081552D01*
X83401273Y39091722D02*
X83498694Y39063846D01*
X64498694Y22436155D02*
X64401273Y22408279D01*
X24000000Y8000000D02*
X24000000Y20500000D01*
X44002566Y57398702D02*
X44010261Y57297664D01*
X80795609Y40119212D02*
X80837915Y40211289D01*
X80641526Y39857464D02*
X80697288Y39942072D01*
X42936154Y23998695D02*
X42959059Y24097403D01*
X60302855Y71976937D02*
X60202336Y71989739D01*
X42517516Y71302745D02*
X42449585Y71377934D01*
X23057928Y38697289D02*
X22970603Y38748694D01*
X41202336Y22489739D02*
X41101298Y22497434D01*
X63418448Y6775789D02*
X63482483Y6697256D01*
X23449585Y71377934D02*
X23377933Y71449586D01*
X22402597Y39040941D02*
X22501305Y39063846D01*
X25942071Y38697289D02*
X25857463Y38641527D01*
X63857463Y72358474D02*
X63942071Y72302712D01*
X444429Y94331470D02*
X365606Y94273011D01*
X41880788Y55295610D02*
X41788711Y55337916D01*
X82418448Y6775789D02*
X82482483Y6697256D01*
X25857463Y22141527D02*
X25775788Y22081552D01*
X6482483Y38302745D02*
X6418448Y38224212D01*
X99748693Y23529397D02*
X99795609Y23619212D01*
X25040940Y53902598D02*
X25023063Y53802856D01*
X80142536Y88141527D02*
X80057928Y88197289D01*
X99997433Y40898702D02*
X100000000Y41000000D01*
X25358473Y71142537D02*
X25302711Y71057929D01*
X80449585Y87877934D02*
X80377933Y87949586D01*
X99449585Y23122067D02*
X99517516Y23197256D01*
X47000000Y6000000D02*
X47000000Y5000000D01*
X22501305Y6063846D02*
X22598726Y6091722D01*
X26211288Y88337916D02*
X26119211Y88295610D01*
X79501305Y22436155D02*
X79402597Y22459060D01*
X44010261Y73797664D02*
X44023063Y73697145D01*
X44697255Y55017517D02*
X44622066Y54949586D01*
X6204390Y54380789D02*
X6162084Y54288712D01*
X82204390Y7119212D02*
X82251306Y7029397D01*
X4815Y901983D02*
X19214Y804910D01*
X64597402Y72040941D02*
X64697144Y72023064D01*
X80581551Y87724212D02*
X80517516Y87802745D01*
X79302855Y38976937D02*
X79202336Y38989739D01*
X61875504Y54194611D02*
X61837915Y54288712D01*
X60101298Y6002567D02*
X60202336Y6010262D01*
X23224211Y22081552D02*
X23142536Y22141527D01*
X44040940Y73597403D02*
X44063845Y73498695D01*
X61875504Y73305390D02*
X61908278Y73401274D01*
X61517516Y21802745D02*
X61449585Y21877934D01*
X83797663Y22489739D02*
X83697144Y22476937D01*
X64401273Y6091722D02*
X64498694Y6063846D01*
X26119211Y38795610D02*
X26029396Y38748694D01*
X63040940Y7597403D02*
X63063845Y7498695D01*
X64898701Y55497434D02*
X64797663Y55489739D01*
X61377933Y6550415D02*
X61449585Y6622067D01*
X21000000Y6000000D02*
X22000000Y6000000D01*
X44204390Y70880789D02*
X44162084Y70788712D01*
X80581551Y71224212D02*
X80517516Y71302745D01*
X44124495Y7305390D02*
X44162084Y7211289D01*
X83597402Y22540941D02*
X83697144Y22523064D01*
X26898701Y39002567D02*
X27000000Y39000000D01*
X60501305Y55563846D02*
X60598726Y55591722D01*
X44775788Y88081552D02*
X44697255Y88017517D01*
X25251306Y7029397D02*
X25302711Y6942072D01*
X42142536Y55141527D02*
X42057928Y55197289D01*
X25251306Y37970604D02*
X25204390Y37880789D01*
X7401273Y88408279D02*
X7401273Y88408279D01*
X44010261Y40797664D02*
X44023063Y40697145D01*
X61976936Y86802856D02*
X61959059Y86902598D01*
X61377933Y54949586D02*
X61302744Y55017517D01*
X44622066Y71449586D02*
X44550414Y71377934D01*
X80142536Y22858474D02*
X80224211Y22918449D01*
X42908278Y73401274D02*
X42936154Y73498695D01*
X64797663Y55489739D02*
X64697144Y55476937D01*
X80989738Y24297664D02*
X80997433Y24398702D01*
X23989738Y20702337D02*
X23976936Y20802856D01*
X44550414Y56122067D02*
X44622066Y56050415D01*
X25124495Y40305390D02*
X25162084Y40211289D01*
X23449585Y21877934D02*
X23377933Y21949586D01*
X23748693Y40029397D02*
X23795609Y40119212D01*
X99142536Y55858474D02*
X99224211Y55918449D01*
X100000000Y70000000D02*
X99997433Y70101299D01*
X25204390Y21380789D02*
X25162084Y21288712D01*
X25023063Y7697145D02*
X25040940Y7597403D01*
X61142536Y55858474D02*
X61224211Y55918449D01*
X60970603Y22248694D02*
X60880788Y22295610D01*
X6251306Y7029397D02*
X6302711Y6942072D01*
X82023063Y7697145D02*
X82040940Y7597403D01*
X61057928Y6302712D02*
X61142536Y6358474D01*
X82302711Y72942072D02*
X82358473Y72857464D01*
X22000000Y88500000D02*
X21000000Y88500000D01*
X98694610Y22375505D02*
X98598726Y22408279D01*
X25775788Y38581552D02*
X25697255Y38517517D01*
X80224211Y72418449D02*
X80302744Y72482484D01*
X80875504Y87194611D02*
X80837915Y87288712D01*
X44775788Y72418449D02*
X44857463Y72358474D01*
X79101298Y6002567D02*
X79202336Y6010262D01*
X99057928Y22197289D02*
X98970603Y22248694D01*
X6482483Y6697256D02*
X6550414Y6622067D01*
X82124495Y87194611D02*
X82091721Y87098727D01*
X100000000Y37000000D02*
X99997433Y37101299D01*
X61908278Y23901274D02*
X61936154Y23998695D01*
X41598726Y22591722D02*
X41694610Y22624496D01*
X80748693Y70970604D02*
X80697288Y71057929D01*
X44023063Y24197145D02*
X44040940Y24097403D01*
X45401273Y22591722D02*
X45498694Y22563846D01*
X63000000Y24500000D02*
X63002566Y24398702D01*
X6358473Y39857464D02*
X6418448Y39775789D01*
X98101298Y22497434D02*
X98000000Y22500000D01*
X26305389Y71875505D02*
X26211288Y71837916D01*
X6063845Y21001306D02*
X6040940Y20902598D01*
X61517516Y87802745D02*
X61449585Y87877934D01*
X45029396Y22751307D02*
X45119211Y22704391D01*
X63550414Y6622067D02*
X63622066Y6550415D01*
X99997433Y7898702D02*
X100000000Y8000000D01*
X22970603Y55248694D02*
X22880788Y55295610D01*
X6418448Y87724212D02*
X6358473Y87642537D01*
X41598726Y71908279D02*
X41501305Y71936155D01*
X23697288Y6942072D02*
X23748693Y7029397D01*
X99517516Y39697256D02*
X99581551Y39775789D01*
X60694610Y38875505D02*
X60598726Y38908279D01*
X44418448Y38224212D02*
X44358473Y38142537D01*
X44040940Y53902598D02*
X44023063Y53802856D01*
X83211288Y55662085D02*
X83305389Y55624496D01*
X6040940Y57097403D02*
X6063845Y56998695D01*
X23748693Y7029397D02*
X23795609Y7119212D01*
X82204390Y21380789D02*
X82162084Y21288712D01*
X44063845Y40498695D02*
X44091721Y40401274D01*
X99377933Y56050415D02*
X99449585Y56122067D01*
X25302711Y6942072D02*
X25358473Y6857464D01*
X25775788Y39418449D02*
X25857463Y39358474D01*
X6482483Y56197256D02*
X6550414Y56122067D01*
X98101298Y39002567D02*
X98202336Y39010262D01*
X82000000Y53500000D02*
X82000000Y41000000D01*
X82942071Y71697289D02*
X82857463Y71641527D01*
X44000000Y86500000D02*
X44000000Y74000000D01*
X78000000Y89500000D02*
X85000000Y89500000D01*
X26597402Y22459060D02*
X26498694Y22436155D01*
X63697255Y22982484D02*
X63775788Y22918449D01*
X25775788Y22918449D02*
X25857463Y22858474D01*
X6302711Y23442072D02*
X6358473Y23357464D01*
X28000000Y89500000D02*
X28000000Y88500000D01*
X6063845Y40498695D02*
X6091721Y40401274D01*
X63622066Y56050415D02*
X63697255Y55982484D01*
X82002566Y37101299D02*
X82000000Y37000000D01*
X63063845Y73498695D02*
X63091721Y73401274D01*
X7898701Y72002567D02*
X8000000Y72000000D01*
X83498694Y55563846D02*
X83597402Y55540941D01*
X79694610Y55624496D02*
X79788711Y55662085D01*
X64697144Y55523064D02*
X64797663Y55510262D01*
X60000000Y22500000D02*
X60101298Y22502567D01*
X23449585Y23122067D02*
X23517516Y23197256D01*
X79501305Y22563846D02*
X79598726Y22591722D01*
X65000000Y22500000D02*
X64898701Y22497434D01*
X25204390Y40119212D02*
X25251306Y40029397D01*
X61641526Y21642537D02*
X61581551Y21724212D01*
X63550414Y38377934D02*
X63482483Y38302745D01*
X98880788Y55295610D02*
X98788711Y55337916D01*
X61837915Y7211289D02*
X61875504Y7305390D01*
X80837915Y87288712D02*
X80795609Y87380789D01*
X23142536Y39358474D02*
X23224211Y39418449D01*
X42837915Y37788712D02*
X42795609Y37880789D01*
X25302711Y38057929D02*
X25251306Y37970604D01*
X83498694Y22436155D02*
X83401273Y22408279D01*
X25622066Y6550415D02*
X25697255Y6482484D01*
X44091721Y54098727D02*
X44063845Y54001306D01*
X99908278Y37598727D02*
X99875504Y37694611D01*
X42959059Y73597403D02*
X42976936Y73697145D01*
X45029396Y88248694D02*
X44942071Y88197289D01*
X60501305Y38936155D02*
X60402597Y38959060D01*
X23795609Y37880789D02*
X23748693Y37970604D01*
X23517516Y72697256D02*
X23581551Y72775789D01*
X23795609Y70880789D02*
X23748693Y70970604D01*
X42581551Y39775789D02*
X42641526Y39857464D01*
X41970603Y72251307D02*
X42057928Y72302712D01*
X45797663Y39010262D02*
X45898701Y39002567D01*
X45401273Y38908279D02*
X45305389Y38875505D01*
X25942071Y6302712D02*
X26029396Y6251307D01*
X26211288Y55662085D02*
X26305389Y55624496D01*
X61795609Y7119212D02*
X61837915Y7211289D01*
X61302744Y6482484D02*
X61377933Y6550415D01*
X41202336Y88489739D02*
X41101298Y88497434D01*
X45597402Y71959060D02*
X45498694Y71936155D01*
X45211288Y22337916D02*
X45119211Y22295610D01*
X26797663Y88489739D02*
X26697144Y88476937D01*
X82857463Y22858474D02*
X82942071Y22802712D01*
X82204390Y40119212D02*
X82251306Y40029397D01*
X44622066Y39550415D02*
X44697255Y39482484D01*
X61936154Y87001306D02*
X61908278Y87098727D01*
X22788711Y22662085D02*
X22880788Y22704391D01*
X7597402Y38959060D02*
X7498694Y38936155D01*
X98598726Y72091722D02*
X98694610Y72124496D01*
X61748693Y54470604D02*
X61697288Y54557929D01*
X99908278Y40401274D02*
X99936154Y40498695D01*
X83119211Y39204391D02*
X83211288Y39162085D01*
X41694610Y22624496D02*
X41788711Y22662085D01*
X80697288Y6942072D02*
X80748693Y7029397D01*
X82023063Y24197145D02*
X82040940Y24097403D01*
X25358473Y39857464D02*
X25418448Y39775789D01*
X23224211Y22918449D02*
X23302744Y22982484D01*
X59000000Y5000000D02*
X59000000Y6000000D01*
X24000000Y86500000D02*
X23997433Y86601299D01*
X42641526Y71142537D02*
X42581551Y71224212D01*
X41501305Y39063846D02*
X41598726Y39091722D01*
X79202336Y55510262D02*
X79302855Y55523064D01*
X61976936Y20802856D02*
X61959059Y20902598D01*
X63002566Y7898702D02*
X63010261Y7797664D01*
X106000000Y93500000D02*
X105995184Y93598018D01*
X61142536Y39358474D02*
X61224211Y39418449D01*
X63482483Y38302745D02*
X63418448Y38224212D01*
X44002566Y40898702D02*
X44010261Y40797664D01*
X41598726Y72091722D02*
X41694610Y72124496D01*
X42837915Y56711289D02*
X42875504Y56805390D01*
X63697255Y71517517D02*
X63622066Y71449586D01*
X26697144Y22476937D02*
X26597402Y22459060D01*
X99837915Y54288712D02*
X99795609Y54380789D01*
X7029396Y72251307D02*
X7119211Y72204391D01*
X83498694Y55436155D02*
X83401273Y55408279D01*
X6857463Y38641527D02*
X6775788Y38581552D01*
X80224211Y6418449D02*
X80302744Y6482484D01*
X99581551Y38224212D02*
X99517516Y38302745D01*
X64211288Y22662085D02*
X64305389Y22624496D01*
X23517516Y38302745D02*
X23449585Y38377934D01*
X63000000Y57500000D02*
X63002566Y57398702D01*
X80837915Y54288712D02*
X80795609Y54380789D01*
X98880788Y39204391D02*
X98970603Y39251307D01*
X82000000Y8000000D02*
X82002566Y7898702D01*
X41402597Y55459060D02*
X41302855Y55476937D01*
X23057928Y72302712D02*
X23142536Y72358474D01*
X42997433Y73898702D02*
X43000000Y74000000D01*
X63204390Y87380789D02*
X63162084Y87288712D01*
X63418448Y54724212D02*
X63358473Y54642537D01*
X44550414Y72622067D02*
X44622066Y72550415D01*
X41694610Y39124496D02*
X41788711Y39162085D01*
X61959059Y37402598D02*
X61936154Y37501306D01*
X97000000Y89500000D02*
X101000000Y89500000D01*
X61748693Y21470604D02*
X61697288Y21557929D01*
X79694610Y38875505D02*
X79598726Y38908279D01*
X105707106Y292894D02*
X105773010Y365607D01*
X6010261Y86702337D02*
X6002566Y86601299D01*
X44697255Y88017517D02*
X44622066Y87949586D01*
X82063845Y54001306D02*
X82040940Y53902598D01*
X28000000Y6000000D02*
X28000000Y5000000D01*
X82040940Y37402598D02*
X82023063Y37302856D01*
X80377933Y71449586D02*
X80302744Y71517517D01*
X42142536Y6358474D02*
X42224211Y6418449D01*
X63000000Y74000000D02*
X63002566Y73898702D01*
X44124495Y87194611D02*
X44091721Y87098727D01*
X22000000Y55500000D02*
X22101298Y55502567D01*
X98694610Y22624496D02*
X98788711Y22662085D01*
X44550414Y54877934D02*
X44482483Y54802745D01*
X79302855Y6023064D02*
X79402597Y6040941D01*
X25550414Y87877934D02*
X25482483Y87802745D01*
X60970603Y55248694D02*
X60880788Y55295610D01*
X6010261Y53702337D02*
X6002566Y53601299D01*
X61641526Y38142537D02*
X61581551Y38224212D01*
X7211288Y39162085D02*
X7305389Y39124496D01*
X63418448Y23275789D02*
X63482483Y23197256D01*
X42976936Y53802856D02*
X42959059Y53902598D01*
X42142536Y22141527D02*
X42057928Y22197289D01*
X99908278Y70598727D02*
X99875504Y70694611D01*
X79000000Y88500000D02*
X78000000Y88500000D01*
X80875504Y56805390D02*
X80908278Y56901274D01*
X79880788Y55295610D02*
X79788711Y55337916D01*
X41402597Y39040941D02*
X41501305Y39063846D01*
X64797663Y22510262D02*
X64898701Y22502567D01*
X42517516Y23197256D02*
X42581551Y23275789D01*
X63063845Y87001306D02*
X63040940Y86902598D01*
X25091721Y73401274D02*
X25124495Y73305390D01*
X81000000Y86500000D02*
X80997433Y86601299D01*
X60694610Y71875505D02*
X60598726Y71908279D01*
X60788711Y39162085D02*
X60880788Y39204391D01*
X99449585Y6622067D02*
X99517516Y6697256D01*
X44622066Y38449586D02*
X44550414Y38377934D01*
X44550414Y23122067D02*
X44622066Y23050415D01*
X42377933Y39550415D02*
X42449585Y39622067D01*
X60788711Y22662085D02*
X60880788Y22704391D01*
X25040940Y37402598D02*
X25023063Y37302856D01*
X41598726Y55408279D02*
X41501305Y55436155D01*
X42959059Y53902598D02*
X42936154Y54001306D01*
X7305389Y39124496D02*
X7401273Y39091722D01*
X79402597Y55540941D02*
X79501305Y55563846D01*
X63162084Y56711289D02*
X63204390Y56619212D01*
X26029396Y6251307D02*
X26119211Y6204391D01*
X83119211Y38795610D02*
X83029396Y38748694D01*
X79788711Y88337916D02*
X79694610Y88375505D01*
X6204390Y23619212D02*
X6251306Y23529397D01*
X98788711Y38837916D02*
X98694610Y38875505D01*
X83401273Y72091722D02*
X83498694Y72063846D01*
X63622066Y6550415D02*
X63697255Y6482484D01*
X61697288Y38057929D02*
X61641526Y38142537D01*
X26797663Y71989739D02*
X26697144Y71976937D01*
X44697255Y55982484D02*
X44775788Y55918449D01*
X99057928Y88197289D02*
X98970603Y88248694D01*
X42837915Y73211289D02*
X42875504Y73305390D01*
X41880788Y55704391D02*
X41970603Y55751307D01*
X23517516Y87802745D02*
X23449585Y87877934D01*
X26697144Y55476937D02*
X26597402Y55459060D01*
X22880788Y22295610D02*
X22788711Y22337916D01*
X60302855Y39023064D02*
X60402597Y39040941D01*
X60970603Y71748694D02*
X60880788Y71795610D01*
X118078Y528604D02*
X168530Y444430D01*
X62000000Y41000000D02*
X62000000Y53500000D01*
X83029396Y71748694D02*
X82942071Y71697289D01*
X79501305Y72063846D02*
X79598726Y72091722D01*
X22501305Y55563846D02*
X22598726Y55591722D01*
X42976936Y86802856D02*
X42959059Y86902598D01*
X25002566Y73898702D02*
X25010261Y73797664D01*
X99795609Y37880789D02*
X99748693Y37970604D01*
X80517516Y72697256D02*
X80581551Y72775789D01*
X26697144Y72023064D02*
X26797663Y72010262D01*
X44002566Y20601299D02*
X44000000Y20500000D01*
X23581551Y21724212D02*
X23517516Y21802745D01*
X6418448Y21724212D02*
X6358473Y21642537D01*
X99795609Y23619212D02*
X99837915Y23711289D01*
X64119211Y55295610D02*
X64029396Y55248694D01*
X45697144Y71976937D02*
X45597402Y71959060D01*
X23581551Y39775789D02*
X23641526Y39857464D01*
X22788711Y88337916D02*
X22694610Y88375505D01*
X60302855Y6023064D02*
X60302855Y6023064D01*
X83305389Y38875505D02*
X83211288Y38837916D01*
X42377933Y6550415D02*
X42449585Y6622067D01*
X6010261Y70202337D02*
X6002566Y70101299D01*
X42697288Y71057929D02*
X42641526Y71142537D01*
X7797663Y38989739D02*
X7697144Y38976937D01*
X98970603Y22751307D02*
X99057928Y22802712D01*
X42875504Y54194611D02*
X42837915Y54288712D01*
X80377933Y72550415D02*
X80449585Y72622067D01*
X61302744Y39482484D02*
X61377933Y39550415D01*
X7697144Y22523064D02*
X7797663Y22510262D01*
X44002566Y37101299D02*
X44000000Y37000000D01*
X82162084Y37788712D02*
X82124495Y37694611D01*
X45597402Y39040941D02*
X45697144Y39023064D01*
X22788711Y55662085D02*
X22880788Y55704391D01*
X98000000Y6000000D02*
X98101298Y6002567D01*
X23377933Y72550415D02*
X23449585Y72622067D01*
X6697255Y6482484D02*
X6775788Y6418449D01*
X26697144Y6023064D02*
X26797663Y6010262D01*
X23377933Y23050415D02*
X23449585Y23122067D01*
X99057928Y72302712D02*
X99142536Y72358474D01*
X63063845Y21001306D02*
X63040940Y20902598D01*
X25302711Y72942072D02*
X25358473Y72857464D01*
X44162084Y37788712D02*
X44124495Y37694611D01*
X105195090Y94480786D02*
X105098017Y94495185D01*
X82023063Y20802856D02*
X82010261Y20702337D01*
X6358473Y21642537D02*
X6302711Y21557929D01*
X41598726Y55591722D02*
X41694610Y55624496D01*
X42875504Y21194611D02*
X42837915Y21288712D01*
X80748693Y87470604D02*
X80697288Y87557929D01*
X44040940Y37402598D02*
X44023063Y37302856D01*
X99697288Y56442072D02*
X99748693Y56529397D01*
X79402597Y39040941D02*
X79501305Y39063846D01*
X6550414Y56122067D02*
X6622066Y56050415D01*
X23936154Y54001306D02*
X23908278Y54098727D01*
X63124495Y40305390D02*
X63162084Y40211289D01*
X45305389Y55375505D02*
X45211288Y55337916D01*
X25942071Y71697289D02*
X25857463Y71641527D01*
X26898701Y72002567D02*
X27000000Y72000000D01*
X6482483Y23197256D02*
X6550414Y23122067D01*
X98302855Y22523064D02*
X98402597Y22540941D01*
X63091721Y87098727D02*
X63063845Y87001306D01*
X22202336Y22510262D02*
X22302855Y22523064D01*
X22402597Y22459060D02*
X22302855Y22476937D01*
X42449585Y56122067D02*
X42517516Y56197256D01*
X98202336Y72010262D02*
X98302855Y72023064D01*
X6358473Y23357464D02*
X6418448Y23275789D01*
X80697288Y38057929D02*
X80641526Y38142537D01*
X45211288Y88337916D02*
X45119211Y88295610D01*
X41000000Y6000000D02*
X41101298Y6002567D01*
X83898701Y22497434D02*
X83797663Y22489739D01*
X42641526Y23357464D02*
X42697288Y23442072D01*
X25775788Y55081552D02*
X25697255Y55017517D01*
X79202336Y55489739D02*
X79101298Y55497434D01*
X64305389Y38875505D02*
X64211288Y38837916D01*
X82358473Y23357464D02*
X82418448Y23275789D01*
X82302711Y39942072D02*
X82358473Y39857464D01*
X22598726Y6091722D02*
X22694610Y6124496D01*
X105290284Y43060D02*
X105382683Y76121D01*
X82124495Y40305390D02*
X82162084Y40211289D01*
X7401273Y22591722D02*
X7498694Y22563846D01*
X25023063Y53802856D02*
X25010261Y53702337D01*
X80989738Y86702337D02*
X80976936Y86802856D01*
X63000000Y86500000D02*
X63000000Y74000000D01*
X80997433Y20601299D02*
X80989738Y20702337D01*
X1000000Y94500000D02*
X901982Y94495185D01*
X42989738Y57297664D02*
X42997433Y57398702D01*
X23057928Y22197289D02*
X22970603Y22248694D01*
X28000000Y88500000D02*
X27000000Y88500000D01*
X98598726Y6091722D02*
X98694610Y6124496D01*
X63942071Y22802712D02*
X64029396Y22751307D01*
X81000000Y20500000D02*
X80997433Y20601299D01*
X25124495Y37694611D02*
X25091721Y37598727D01*
X26211288Y22662085D02*
X26305389Y22624496D01*
X44775788Y22081552D02*
X44697255Y22017517D01*
X64305389Y72124496D02*
X64401273Y72091722D01*
X6358473Y87642537D02*
X6302711Y87557929D01*
X105881921Y528604D02*
X105923879Y617317D01*
X99377933Y54949586D02*
X99302744Y55017517D01*
X61142536Y22141527D02*
X61057928Y22197289D01*
X23936154Y56998695D02*
X23959059Y57097403D01*
X45898701Y38997434D02*
X45797663Y38989739D01*
X25002566Y7898702D02*
X25010261Y7797664D01*
X42875504Y87194611D02*
X42837915Y87288712D01*
X6040940Y53902598D02*
X6023063Y53802856D01*
X44482483Y39697256D02*
X44550414Y39622067D01*
X99959059Y70402598D02*
X99936154Y70501306D01*
X44251306Y54470604D02*
X44204390Y54380789D01*
X83597402Y22459060D02*
X83498694Y22436155D01*
X42302744Y55017517D02*
X42224211Y55081552D01*
X80959059Y24097403D02*
X80976936Y24197145D01*
X99641526Y6857464D02*
X99697288Y6942072D01*
X63162084Y73211289D02*
X63204390Y73119212D01*
X82162084Y73211289D02*
X82204390Y73119212D01*
X80837915Y23711289D02*
X80875504Y23805390D01*
X6775788Y22918449D02*
X6857463Y22858474D01*
X63124495Y56805390D02*
X63162084Y56711289D01*
X22880788Y72204391D02*
X22970603Y72251307D01*
X7029396Y22751307D02*
X7119211Y22704391D01*
X41302855Y88476937D02*
X41202336Y88489739D01*
X63622066Y23050415D02*
X63697255Y22982484D01*
X63358473Y23357464D02*
X63418448Y23275789D01*
X80449585Y54877934D02*
X80377933Y54949586D01*
X79101298Y88497434D02*
X79000000Y88500000D01*
X25010261Y40797664D02*
X25023063Y40697145D01*
X80936154Y21001306D02*
X80908278Y21098727D01*
X25418448Y6775789D02*
X25482483Y6697256D01*
X80377933Y6550415D02*
X80449585Y6622067D01*
X42224211Y38581552D02*
X42142536Y38641527D01*
X82358473Y39857464D02*
X82418448Y39775789D01*
X42697288Y54557929D02*
X42641526Y54642537D01*
X26797663Y22510262D02*
X26898701Y22502567D01*
X7029396Y38748694D02*
X6942071Y38697289D01*
X44002566Y86601299D02*
X44000000Y86500000D01*
X99641526Y87642537D02*
X99581551Y87724212D01*
X80875504Y73305390D02*
X80908278Y73401274D01*
X99959059Y24097403D02*
X99976936Y24197145D01*
X60501305Y22436155D02*
X60402597Y22459060D01*
X44358473Y56357464D02*
X44418448Y56275789D01*
X60970603Y88248694D02*
X60880788Y88295610D01*
X7305389Y38875505D02*
X7211288Y38837916D01*
X61377933Y72550415D02*
X61449585Y72622067D01*
X22302855Y88476937D02*
X22202336Y88489739D01*
X63091721Y70598727D02*
X63063845Y70501306D01*
X79501305Y71936155D02*
X79402597Y71959060D01*
X63942071Y38697289D02*
X63857463Y38641527D01*
X80908278Y23901274D02*
X80936154Y23998695D01*
X64797663Y22489739D02*
X64697144Y22476937D01*
X22970603Y39251307D02*
X23057928Y39302712D01*
X80936154Y23998695D02*
X80959059Y24097403D01*
X6091721Y7401274D02*
X6124495Y7305390D01*
X61449585Y56122067D02*
X61517516Y56197256D01*
X42377933Y56050415D02*
X42449585Y56122067D01*
X63482483Y39697256D02*
X63550414Y39622067D01*
X43000000Y37000000D02*
X42997433Y37101299D01*
X98694610Y88375505D02*
X98598726Y88408279D01*
X23142536Y71641527D02*
X23057928Y71697289D01*
X45029396Y55751307D02*
X45119211Y55704391D01*
X61224211Y38581552D02*
X61142536Y38641527D01*
X23959059Y53902598D02*
X23936154Y54001306D01*
X81000000Y37000000D02*
X80997433Y37101299D01*
X61997433Y57398702D02*
X62000000Y57500000D01*
X44622066Y54949586D02*
X44550414Y54877934D01*
X23997433Y24398702D02*
X24000000Y24500000D01*
X61837915Y23711289D02*
X61875504Y23805390D01*
X61057928Y72302712D02*
X61142536Y72358474D01*
X42795609Y40119212D02*
X42837915Y40211289D01*
X99959059Y57097403D02*
X99976936Y57197145D01*
X23748693Y87470604D02*
X23697288Y87557929D01*
X80936154Y40498695D02*
X80959059Y40597403D01*
X23517516Y21802745D02*
X23449585Y21877934D01*
X80976936Y57197145D02*
X80989738Y57297664D01*
X63857463Y88141527D02*
X63775788Y88081552D01*
X82622066Y39550415D02*
X82697255Y39482484D01*
X80449585Y6622067D02*
X80517516Y6697256D01*
X25857463Y55141527D02*
X25775788Y55081552D01*
X25000000Y20500000D02*
X25000000Y8000000D01*
X99976936Y40697145D02*
X99989738Y40797664D01*
X98101298Y55502567D02*
X98202336Y55510262D01*
X99795609Y54380789D02*
X99748693Y54470604D01*
X80142536Y72358474D02*
X80224211Y72418449D01*
X42997433Y37101299D02*
X42989738Y37202337D01*
X80641526Y54642537D02*
X80581551Y54724212D01*
X65000000Y72000000D02*
X64898701Y71997434D01*
X99875504Y37694611D02*
X99837915Y37788712D01*
X23224211Y55081552D02*
X23142536Y55141527D01*
X41788711Y72162085D02*
X41880788Y72204391D01*
X7211288Y88337916D02*
X7119211Y88295610D01*
X99641526Y38142537D02*
X99581551Y38224212D01*
X42837915Y40211289D02*
X42875504Y40305390D01*
X44124495Y70694611D02*
X44091721Y70598727D01*
X80377933Y87949586D02*
X80302744Y88017517D01*
X6091721Y37598727D02*
X6063845Y37501306D01*
X444429Y168531D02*
X528603Y118079D01*
X82418448Y54724212D02*
X82358473Y54642537D01*
X105382683Y94423880D02*
X105290284Y94456941D01*
X42976936Y20802856D02*
X42959059Y20902598D01*
X42224211Y88081552D02*
X42142536Y88141527D01*
X6091721Y87098727D02*
X6063845Y87001306D01*
X98598726Y55408279D02*
X98501305Y55436155D01*
X80795609Y37880789D02*
X80748693Y37970604D01*
X25000000Y86500000D02*
X25000000Y74000000D01*
X80748693Y54470604D02*
X80697288Y54557929D01*
X60501305Y39063846D02*
X60598726Y39091722D01*
X82040940Y24097403D02*
X82063845Y23998695D01*
X22788711Y72162085D02*
X22880788Y72204391D01*
X44124495Y56805390D02*
X44162084Y56711289D01*
X99997433Y73898702D02*
X100000000Y74000000D01*
X26401273Y71908279D02*
X26305389Y71875505D01*
X80976936Y40697145D02*
X80989738Y40797664D01*
X99142536Y72358474D02*
X99224211Y72418449D01*
X79970603Y71748694D02*
X79880788Y71795610D01*
X7029396Y22248694D02*
X6942071Y22197289D01*
X23875504Y23805390D02*
X23908278Y23901274D01*
X44091721Y37598727D02*
X44063845Y37501306D01*
X63091721Y21098727D02*
X63063845Y21001306D01*
X44204390Y54380789D02*
X44162084Y54288712D01*
X23989738Y37202337D02*
X23976936Y37302856D01*
X63124495Y70694611D02*
X63091721Y70598727D01*
X85000000Y89500000D02*
X85000000Y88500000D01*
X98501305Y55436155D02*
X98402597Y55459060D01*
X98970603Y72251307D02*
X99057928Y72302712D01*
X82010261Y7797664D02*
X82023063Y7697145D01*
X26119211Y88295610D02*
X26029396Y88248694D01*
X64597402Y55459060D02*
X64498694Y55436155D01*
X99997433Y24398702D02*
X100000000Y24500000D01*
X42795609Y7119212D02*
X42837915Y7211289D01*
X45305389Y88375505D02*
X45211288Y88337916D01*
X98101298Y71997434D02*
X98000000Y72000000D01*
X98788711Y22662085D02*
X98880788Y22704391D01*
X6550414Y38377934D02*
X6482483Y38302745D01*
X80976936Y7697145D02*
X80989738Y7797664D01*
X99936154Y70501306D02*
X99908278Y70598727D01*
X46000000Y88500000D02*
X45898701Y88497434D01*
X41598726Y22408279D02*
X41501305Y22436155D01*
X45898701Y55497434D02*
X45797663Y55489739D01*
X83029396Y55248694D02*
X82942071Y55197289D01*
X42057928Y6302712D02*
X42142536Y6358474D01*
X42997433Y20601299D02*
X42989738Y20702337D01*
X61697288Y23442072D02*
X61748693Y23529397D01*
X63302711Y71057929D02*
X63251306Y70970604D01*
X7305389Y22624496D02*
X7401273Y22591722D01*
X63942071Y22197289D02*
X63857463Y22141527D01*
X7697144Y55476937D02*
X7597402Y55459060D01*
X6162084Y70788712D02*
X6124495Y70694611D01*
X79788711Y6162085D02*
X79880788Y6204391D01*
X79202336Y39010262D02*
X79302855Y39023064D01*
X63550414Y72622067D02*
X63622066Y72550415D01*
X80959059Y86902598D02*
X80936154Y87001306D01*
X25162084Y54288712D02*
X25124495Y54194611D01*
X83305389Y22375505D02*
X83211288Y22337916D01*
X22598726Y71908279D02*
X22501305Y71936155D01*
X26597402Y39040941D02*
X26697144Y39023064D01*
X7898701Y6002567D02*
X8000000Y6000000D01*
X82204390Y23619212D02*
X82251306Y23529397D01*
X45797663Y55489739D02*
X45697144Y55476937D01*
X80302744Y88017517D02*
X80224211Y88081552D01*
X105634393Y94273011D02*
X105555570Y94331470D01*
X82204390Y37880789D02*
X82162084Y37788712D01*
X6697255Y22982484D02*
X6775788Y22918449D01*
X99057928Y55802712D02*
X99142536Y55858474D01*
X6204390Y37880789D02*
X6162084Y37788712D01*
X64211288Y55662085D02*
X64305389Y55624496D01*
X44040940Y7597403D02*
X44063845Y7498695D01*
X61142536Y88141527D02*
X61057928Y88197289D01*
X61057928Y55802712D02*
X61142536Y55858474D01*
X44000000Y57500000D02*
X44002566Y57398702D01*
X99837915Y73211289D02*
X99875504Y73305390D01*
X5000000Y89500000D02*
X9000000Y89500000D01*
X79598726Y6091722D02*
X79694610Y6124496D01*
X6482483Y21802745D02*
X6418448Y21724212D01*
X27000000Y22500000D02*
X26898701Y22497434D01*
X83498694Y72063846D02*
X83597402Y72040941D01*
X99224211Y55081552D02*
X99142536Y55141527D01*
X63010261Y57297664D02*
X63023063Y57197145D01*
X44418448Y71224212D02*
X44358473Y71142537D01*
X45211288Y55337916D02*
X45119211Y55295610D01*
X23224211Y38581552D02*
X23142536Y38641527D01*
X6010261Y40797664D02*
X6023063Y40697145D01*
X63697255Y39482484D02*
X63775788Y39418449D01*
X42976936Y7697145D02*
X42989738Y7797664D01*
X6857463Y6358474D02*
X6942071Y6302712D01*
X61449585Y23122067D02*
X61517516Y23197256D01*
X42449585Y21877934D02*
X42377933Y21949586D01*
X6023063Y24197145D02*
X6040940Y24097403D01*
X61302744Y71517517D02*
X61224211Y71581552D01*
X6124495Y21194611D02*
X6091721Y21098727D01*
X65000000Y55500000D02*
X64898701Y55497434D01*
X61748693Y70970604D02*
X61697288Y71057929D01*
X82358473Y21642537D02*
X82302711Y21557929D01*
X60880788Y71795610D02*
X60788711Y71837916D01*
X61748693Y40029397D02*
X61795609Y40119212D01*
X64401273Y39091722D02*
X64498694Y39063846D01*
X61517516Y56197256D02*
X61581551Y56275789D01*
X7498694Y71936155D02*
X7401273Y71908279D01*
X45498694Y55436155D02*
X45401273Y55408279D01*
X22694610Y22375505D02*
X22598726Y22408279D01*
X44302711Y6942072D02*
X44358473Y6857464D01*
X7797663Y71989739D02*
X7697144Y71976937D01*
X23795609Y7119212D02*
X23837915Y7211289D01*
X61837915Y37788712D02*
X61795609Y37880789D01*
X42517516Y72697256D02*
X42581551Y72775789D01*
X23875504Y87194611D02*
X23837915Y87288712D01*
X42795609Y54380789D02*
X42748693Y54470604D01*
X82040940Y20902598D02*
X82023063Y20802856D01*
X27000000Y6000000D02*
X28000000Y6000000D01*
X25697255Y22017517D02*
X25622066Y21949586D01*
X7029396Y55751307D02*
X7119211Y55704391D01*
X82023063Y86802856D02*
X82010261Y86702337D01*
X6162084Y37788712D02*
X6124495Y37694611D01*
X63000000Y8000000D02*
X63002566Y7898702D01*
X42142536Y71641527D02*
X42057928Y71697289D01*
X83597402Y71959060D02*
X83498694Y71936155D01*
X42302744Y22017517D02*
X42224211Y22081552D01*
X63942071Y71697289D02*
X63857463Y71641527D01*
X61224211Y72418449D02*
X61302744Y72482484D01*
X82942071Y22197289D02*
X82857463Y22141527D01*
X80142536Y55858474D02*
X80224211Y55918449D01*
X80057928Y22197289D02*
X79970603Y22248694D01*
X41880788Y22704391D02*
X41970603Y22751307D01*
X44358473Y23357464D02*
X44418448Y23275789D01*
X23959059Y57097403D02*
X23976936Y57197145D01*
X44622066Y56050415D02*
X44697255Y55982484D01*
X80959059Y7597403D02*
X80976936Y7697145D01*
X44482483Y38302745D02*
X44418448Y38224212D01*
X60000000Y88500000D02*
X59000000Y88500000D01*
X61581551Y56275789D02*
X61641526Y56357464D01*
X44023063Y86802856D02*
X44010261Y86702337D01*
X7597402Y22540941D02*
X7697144Y22523064D01*
X63550414Y71377934D02*
X63482483Y71302745D01*
X709715Y43060D02*
X804909Y19215D01*
X44000000Y41000000D02*
X44002566Y40898702D01*
X7498694Y6063846D02*
X7597402Y6040941D01*
X80908278Y70598727D02*
X80875504Y70694611D01*
X79788711Y22337916D02*
X79694610Y22375505D01*
X42936154Y54001306D02*
X42908278Y54098727D01*
X23959059Y70402598D02*
X23936154Y70501306D01*
X44942071Y88197289D02*
X44857463Y88141527D01*
X26305389Y22375505D02*
X26211288Y22337916D01*
X45797663Y55510262D02*
X45898701Y55502567D01*
X99142536Y71641527D02*
X99057928Y71697289D01*
X25251306Y40029397D02*
X25302711Y39942072D01*
X82418448Y87724212D02*
X82358473Y87642537D01*
X25622066Y56050415D02*
X25697255Y55982484D01*
X64211288Y88337916D02*
X64119211Y88295610D01*
X45401273Y71908279D02*
X45305389Y71875505D01*
X80989738Y40797664D02*
X80997433Y40898702D01*
X99959059Y37402598D02*
X99936154Y37501306D01*
X99837915Y21288712D02*
X99795609Y21380789D01*
X25002566Y37101299D02*
X25000000Y37000000D01*
X7597402Y55459060D02*
X7498694Y55436155D01*
X83305389Y72124496D02*
X83401273Y72091722D01*
X25000000Y41000000D02*
X25002566Y40898702D01*
X23997433Y53601299D02*
X23989738Y53702337D01*
X26697144Y88476937D02*
X26597402Y88459060D01*
X98501305Y22563846D02*
X98598726Y22591722D01*
X23795609Y21380789D02*
X23748693Y21470604D01*
X41302855Y71976937D02*
X41202336Y71989739D01*
X66000000Y88500000D02*
X65000000Y88500000D01*
X6697255Y38517517D02*
X6622066Y38449586D01*
X26697144Y39023064D02*
X26797663Y39010262D01*
X6775788Y22081552D02*
X6697255Y22017517D01*
X99142536Y22141527D02*
X99057928Y22197289D01*
X42697288Y21557929D02*
X42641526Y21642537D01*
X23697288Y87557929D02*
X23641526Y87642537D01*
X44091721Y87098727D02*
X44063845Y87001306D01*
X80224211Y38581552D02*
X80142536Y38641527D01*
X59000000Y89500000D02*
X66000000Y89500000D01*
X45697144Y22476937D02*
X45597402Y22459060D01*
X42959059Y7597403D02*
X42976936Y7697145D01*
X45898701Y39002567D02*
X46000000Y39000000D01*
X61976936Y57197145D02*
X61989738Y57297664D01*
X44358473Y6857464D02*
X44418448Y6775789D01*
X98402597Y72040941D02*
X98501305Y72063846D01*
X80057928Y55197289D02*
X79970603Y55248694D01*
X23377933Y21949586D02*
X23302744Y22017517D01*
X42837915Y23711289D02*
X42875504Y23805390D01*
X64305389Y55375505D02*
X64211288Y55337916D01*
X44302711Y21557929D02*
X44251306Y21470604D01*
X99936154Y21001306D02*
X99908278Y21098727D01*
X41202336Y55510262D02*
X41302855Y55523064D01*
X6418448Y72775789D02*
X6482483Y72697256D01*
X63302711Y54557929D02*
X63251306Y54470604D01*
X22598726Y22591722D02*
X22694610Y22624496D01*
X99936154Y23998695D02*
X99959059Y24097403D01*
X25204390Y54380789D02*
X25162084Y54288712D01*
X6162084Y21288712D02*
X6124495Y21194611D01*
X44040940Y57097403D02*
X44063845Y56998695D01*
X61908278Y40401274D02*
X61936154Y40498695D01*
X42976936Y70302856D02*
X42959059Y70402598D01*
X25418448Y87724212D02*
X25358473Y87642537D01*
X64401273Y71908279D02*
X64305389Y71875505D01*
X99302744Y39482484D02*
X99377933Y39550415D01*
X80517516Y21802745D02*
X80449585Y21877934D01*
X42302744Y22982484D02*
X42377933Y23050415D01*
X80581551Y54724212D02*
X80517516Y54802745D01*
X63124495Y21194611D02*
X63091721Y21098727D01*
X7119211Y22704391D02*
X7211288Y22662085D01*
X83119211Y22295610D02*
X83029396Y22248694D01*
X61748693Y73029397D02*
X61795609Y73119212D01*
X25023063Y20802856D02*
X25010261Y20702337D01*
X23224211Y72418449D02*
X23302744Y72482484D01*
X44010261Y7797664D02*
X44023063Y7697145D01*
X44124495Y73305390D02*
X44162084Y73211289D01*
X41788711Y39162085D02*
X41880788Y39204391D01*
X6124495Y73305390D02*
X6162084Y73211289D01*
X25482483Y21802745D02*
X25418448Y21724212D01*
X41202336Y6010262D02*
X41302855Y6023064D01*
X80224211Y71581552D02*
X80142536Y71641527D01*
X80377933Y21949586D02*
X80302744Y22017517D01*
X9000000Y88500000D02*
X8000000Y88500000D01*
X7797663Y39010262D02*
X7898701Y39002567D01*
X42748693Y7029397D02*
X42795609Y7119212D01*
X99581551Y23275789D02*
X99641526Y23357464D01*
X23989738Y70202337D02*
X23976936Y70302856D01*
X63063845Y7498695D02*
X63091721Y7401274D01*
X44550414Y38377934D02*
X44482483Y38302745D01*
X44040940Y86902598D02*
X44023063Y86802856D01*
X44857463Y38641527D02*
X44775788Y38581552D01*
X42697288Y87557929D02*
X42641526Y87642537D01*
X98788711Y22337916D02*
X98694610Y22375505D01*
X98970603Y71748694D02*
X98880788Y71795610D01*
X25358473Y54642537D02*
X25302711Y54557929D01*
X82204390Y73119212D02*
X82251306Y73029397D01*
X25010261Y20702337D02*
X25002566Y20601299D01*
X6482483Y54802745D02*
X6418448Y54724212D01*
X61581551Y38224212D02*
X61517516Y38302745D01*
X64119211Y88295610D02*
X64029396Y88248694D01*
X61748693Y37970604D02*
X61697288Y38057929D01*
X80959059Y20902598D02*
X80936154Y21001306D01*
X23142536Y55858474D02*
X23224211Y55918449D01*
X63010261Y24297664D02*
X63023063Y24197145D01*
X82010261Y37202337D02*
X82002566Y37101299D01*
X82942071Y22802712D02*
X83029396Y22751307D01*
X99697288Y54557929D02*
X99641526Y54642537D01*
X44942071Y22802712D02*
X45029396Y22751307D01*
X98970603Y88248694D02*
X98880788Y88295610D01*
X45697144Y55523064D02*
X45797663Y55510262D01*
X64498694Y72063846D02*
X64597402Y72040941D01*
X98694610Y39124496D02*
X98788711Y39162085D01*
X80057928Y22802712D02*
X80142536Y22858474D01*
X45597402Y38959060D02*
X45498694Y38936155D01*
X25162084Y40211289D02*
X25204390Y40119212D01*
X62000000Y86500000D02*
X61997433Y86601299D01*
X79970603Y6251307D02*
X80057928Y6302712D01*
X80581551Y38224212D02*
X80517516Y38302745D01*
X6204390Y87380789D02*
X6162084Y87288712D01*
X6857463Y22858474D02*
X6942071Y22802712D01*
X99875504Y23805390D02*
X99908278Y23901274D01*
X6857463Y55141527D02*
X6775788Y55081552D01*
X22202336Y88489739D02*
X22101298Y88497434D01*
X99697288Y6942072D02*
X99748693Y7029397D01*
X63302711Y38057929D02*
X63251306Y37970604D01*
X61224211Y88081552D02*
X61142536Y88141527D01*
X6002566Y57398702D02*
X6010261Y57297664D01*
X80057928Y71697289D02*
X79970603Y71748694D01*
X99748693Y7029397D02*
X99795609Y7119212D01*
X6010261Y24297664D02*
X6023063Y24197145D01*
X80795609Y21380789D02*
X80748693Y21470604D01*
X23997433Y40898702D02*
X24000000Y41000000D01*
X45697144Y38976937D02*
X45597402Y38959060D01*
X6010261Y57297664D02*
X6023063Y57197145D01*
X79402597Y71959060D02*
X79302855Y71976937D01*
X61224211Y22081552D02*
X61142536Y22141527D01*
X6775788Y55081552D02*
X6697255Y55017517D01*
X82775788Y6418449D02*
X82857463Y6358474D01*
X63204390Y73119212D02*
X63251306Y73029397D01*
X64898701Y6002567D02*
X65000000Y6000000D01*
X82063845Y73498695D02*
X82091721Y73401274D01*
X83898701Y71997434D02*
X83797663Y71989739D01*
X63002566Y37101299D02*
X63000000Y37000000D01*
X98202336Y88489739D02*
X98101298Y88497434D01*
X60788711Y88337916D02*
X60694610Y88375505D01*
X25040940Y20902598D02*
X25023063Y20802856D01*
X26597402Y55459060D02*
X26498694Y55436155D01*
X80517516Y56197256D02*
X80581551Y56275789D01*
X64401273Y88408279D02*
X64305389Y88375505D01*
X25124495Y56805390D02*
X25162084Y56711289D01*
X62000000Y53500000D02*
X61997433Y53601299D01*
X61224211Y55918449D02*
X61302744Y55982484D01*
X42908278Y40401274D02*
X42936154Y40498695D01*
X22501305Y22436155D02*
X22402597Y22459060D01*
X60880788Y39204391D02*
X60970603Y39251307D01*
X82040940Y70402598D02*
X82023063Y70302856D01*
X26029396Y22751307D02*
X26119211Y22704391D01*
X22402597Y72040941D02*
X22501305Y72063846D01*
X42142536Y55858474D02*
X42224211Y55918449D01*
X25857463Y22858474D02*
X25942071Y22802712D01*
X7401273Y38908279D02*
X7305389Y38875505D01*
X63124495Y7305390D02*
X63162084Y7211289D01*
X63091721Y23901274D02*
X63124495Y23805390D01*
X63418448Y72775789D02*
X63482483Y72697256D01*
X80997433Y37101299D02*
X80989738Y37202337D01*
X79302855Y88476937D02*
X79202336Y88489739D01*
X99641526Y56357464D02*
X99697288Y56442072D01*
X6000000Y53500000D02*
X6000000Y41000000D01*
X6942071Y71697289D02*
X6857463Y71641527D01*
X79880788Y88295610D02*
X79788711Y88337916D01*
X82010261Y73797664D02*
X82023063Y73697145D01*
X25302711Y54557929D02*
X25251306Y54470604D01*
X98402597Y22540941D02*
X98501305Y22563846D01*
X26498694Y71936155D02*
X26401273Y71908279D01*
X63124495Y73305390D02*
X63162084Y73211289D01*
X42377933Y54949586D02*
X42302744Y55017517D01*
X63124495Y87194611D02*
X63091721Y87098727D01*
X27000000Y55500000D02*
X26898701Y55497434D01*
X6251306Y73029397D02*
X6302711Y72942072D01*
X99697288Y39942072D02*
X99748693Y40029397D01*
X82482483Y38302745D02*
X82418448Y38224212D01*
X64211288Y55337916D02*
X64119211Y55295610D01*
X80517516Y6697256D02*
X80581551Y6775789D01*
X61989738Y20702337D02*
X61976936Y20802856D01*
X99908278Y73401274D02*
X99936154Y73498695D01*
X6204390Y7119212D02*
X6251306Y7029397D01*
X23795609Y54380789D02*
X23748693Y54470604D01*
X23908278Y70598727D02*
X23875504Y70694611D01*
X43059Y709716D02*
X76120Y617317D01*
X42449585Y72622067D02*
X42517516Y72697256D01*
X47000000Y88500000D02*
X46000000Y88500000D01*
X6063845Y70501306D02*
X6040940Y70402598D01*
X23302744Y22017517D02*
X23224211Y22081552D01*
X61449585Y39622067D02*
X61517516Y39697256D01*
X44040940Y20902598D02*
X44023063Y20802856D01*
X9000000Y6000000D02*
X9000000Y5000000D01*
X25622066Y21949586D02*
X25550414Y21877934D01*
X82697255Y72482484D02*
X82775788Y72418449D01*
X99449585Y38377934D02*
X99377933Y38449586D01*
X60202336Y39010262D02*
X60302855Y39023064D01*
X63622066Y72550415D02*
X63697255Y72482484D01*
X23959059Y37402598D02*
X23936154Y37501306D01*
X42959059Y70402598D02*
X42936154Y70501306D01*
X63162084Y21288712D02*
X63124495Y21194611D01*
X79694610Y88375505D02*
X79598726Y88408279D01*
X63942071Y88197289D02*
X63857463Y88141527D01*
X61302744Y72482484D02*
X61377933Y72550415D01*
X99641526Y21642537D02*
X99581551Y21724212D01*
X23224211Y39418449D02*
X23302744Y39482484D01*
X41598726Y88408279D02*
X41501305Y88436155D01*
X42697288Y72942072D02*
X42748693Y73029397D01*
X22501305Y39063846D02*
X22598726Y39091722D01*
X60101298Y88497434D02*
X60000000Y88500000D01*
X99936154Y56998695D02*
X99959059Y57097403D01*
X44942071Y6302712D02*
X45029396Y6251307D01*
X7498694Y55563846D02*
X7597402Y55540941D01*
X82550414Y87877934D02*
X82482483Y87802745D01*
X64498694Y88436155D02*
X64401273Y88408279D01*
X83498694Y22563846D02*
X83597402Y22540941D01*
X61142536Y55141527D02*
X61057928Y55197289D01*
X6942071Y38697289D02*
X6857463Y38641527D01*
X80875504Y21194611D02*
X80837915Y21288712D01*
X6040940Y7597403D02*
X6063845Y7498695D01*
X41788711Y38837916D02*
X41694610Y38875505D01*
X42976936Y40697145D02*
X42989738Y40797664D01*
X63000000Y41000000D02*
X63002566Y40898702D01*
X98694610Y6124496D02*
X98788711Y6162085D01*
X25063845Y70501306D02*
X25040940Y70402598D01*
X42377933Y21949586D02*
X42302744Y22017517D01*
X25358473Y72857464D02*
X25418448Y72775789D01*
X81000000Y53500000D02*
X80997433Y53601299D01*
X41788711Y22662085D02*
X41880788Y22704391D01*
X61224211Y6418449D02*
X61302744Y6482484D01*
X23377933Y54949586D02*
X23302744Y55017517D01*
X23302744Y71517517D02*
X23224211Y71581552D01*
X23142536Y72358474D02*
X23224211Y72418449D01*
X82204390Y56619212D02*
X82251306Y56529397D01*
X99377933Y23050415D02*
X99449585Y23122067D01*
X98000000Y55500000D02*
X98101298Y55502567D01*
X83305389Y88375505D02*
X83211288Y88337916D01*
X26211288Y55337916D02*
X26119211Y55295610D01*
X6251306Y56529397D02*
X6302711Y56442072D01*
X98000000Y72000000D02*
X98101298Y72002567D01*
X45498694Y71936155D02*
X45401273Y71908279D01*
X23581551Y54724212D02*
X23517516Y54802745D01*
X7498694Y55436155D02*
X7401273Y55408279D01*
X61976936Y53802856D02*
X61959059Y53902598D01*
X42224211Y55081552D02*
X42142536Y55141527D01*
X99377933Y6550415D02*
X99449585Y6622067D01*
X98202336Y39010262D02*
X98302855Y39023064D01*
X98880788Y88295610D02*
X98788711Y88337916D01*
X23959059Y20902598D02*
X23936154Y21001306D01*
X44063845Y56998695D02*
X44091721Y56901274D01*
X79788711Y39162085D02*
X79880788Y39204391D01*
X7697144Y38976937D02*
X7597402Y38959060D01*
X25358473Y21642537D02*
X25302711Y21557929D01*
X60501305Y71936155D02*
X60402597Y71959060D01*
X25010261Y24297664D02*
X25023063Y24197145D01*
X99795609Y7119212D02*
X99837915Y7211289D01*
X42837915Y54288712D02*
X42795609Y54380789D01*
X44302711Y56442072D02*
X44358473Y56357464D01*
X22880788Y55295610D02*
X22788711Y55337916D01*
X23748693Y23529397D02*
X23795609Y23619212D01*
X82622066Y6550415D02*
X82697255Y6482484D01*
X365606Y226990D02*
X444429Y168531D01*
X23959059Y24097403D02*
X23976936Y24197145D01*
X7898701Y55502567D02*
X8000000Y55500000D01*
X81000000Y70000000D02*
X80997433Y70101299D01*
X26401273Y6091722D02*
X26498694Y6063846D01*
X27000000Y88500000D02*
X26898701Y88497434D01*
X6000000Y57500000D02*
X6002566Y57398702D01*
X99517516Y56197256D02*
X99581551Y56275789D01*
X25040940Y70402598D02*
X25023063Y70302856D01*
X6063845Y87001306D02*
X6040940Y86902598D01*
X99057928Y71697289D02*
X98970603Y71748694D01*
X23908278Y23901274D02*
X23936154Y23998695D01*
X63482483Y54802745D02*
X63418448Y54724212D01*
X23959059Y73597403D02*
X23976936Y73697145D01*
X44124495Y21194611D02*
X44091721Y21098727D01*
X61997433Y40898702D02*
X62000000Y41000000D01*
X99936154Y37501306D02*
X99908278Y37598727D01*
X64797663Y72010262D02*
X64898701Y72002567D01*
X6091721Y56901274D02*
X6124495Y56805390D01*
X61908278Y54098727D02*
X61875504Y54194611D01*
X61795609Y40119212D02*
X61837915Y40211289D01*
X82091721Y87098727D02*
X82063845Y87001306D01*
X45211288Y71837916D02*
X45119211Y71795610D01*
X64029396Y72251307D02*
X64119211Y72204391D01*
X99517516Y23197256D02*
X99581551Y23275789D01*
X82124495Y21194611D02*
X82091721Y21098727D01*
X42142536Y22858474D02*
X42224211Y22918449D01*
X23581551Y6775789D02*
X23641526Y6857464D01*
X80517516Y39697256D02*
X80581551Y39775789D01*
X63550414Y56122067D02*
X63622066Y56050415D01*
X41501305Y88436155D02*
X41402597Y88459060D01*
X83029396Y22751307D02*
X83119211Y22704391D01*
X23302744Y22982484D02*
X23377933Y23050415D01*
X63023063Y57197145D02*
X63040940Y57097403D01*
X25091721Y87098727D02*
X25063845Y87001306D01*
X26797663Y72010262D02*
X26898701Y72002567D01*
X61875504Y23805390D02*
X61908278Y23901274D01*
X83697144Y71976937D02*
X83597402Y71959060D01*
X6622066Y23050415D02*
X6697255Y22982484D01*
X83401273Y55408279D02*
X83305389Y55375505D01*
X61581551Y21724212D02*
X61517516Y21802745D01*
X98880788Y22704391D02*
X98970603Y22751307D01*
X61997433Y20601299D02*
X61989738Y20702337D01*
X98501305Y39063846D02*
X98598726Y39091722D01*
X42989738Y20702337D02*
X42976936Y20802856D01*
X82482483Y56197256D02*
X82550414Y56122067D01*
X7305389Y55375505D02*
X7211288Y55337916D01*
X26029396Y72251307D02*
X26119211Y72204391D01*
X25358473Y23357464D02*
X25418448Y23275789D01*
X6942071Y22197289D02*
X6857463Y22141527D01*
X98101298Y22502567D02*
X98202336Y22510262D01*
X41501305Y55436155D02*
X41402597Y55459060D01*
X61976936Y24197145D02*
X61989738Y24297664D01*
X64119211Y38795610D02*
X64029396Y38748694D01*
X80142536Y39358474D02*
X80224211Y39418449D01*
X42449585Y71377934D02*
X42377933Y71449586D01*
X6091721Y54098727D02*
X6063845Y54001306D01*
X7401273Y72091722D02*
X7498694Y72063846D01*
X22694610Y39124496D02*
X22788711Y39162085D01*
X80875504Y54194611D02*
X80837915Y54288712D01*
X42224211Y22081552D02*
X42142536Y22141527D01*
X99057928Y6302712D02*
X99142536Y6358474D01*
X25942071Y55197289D02*
X25857463Y55141527D01*
X79788711Y55337916D02*
X79694610Y55375505D01*
X63010261Y73797664D02*
X63023063Y73697145D01*
X79302855Y71976937D02*
X79202336Y71989739D01*
X42989738Y86702337D02*
X42976936Y86802856D01*
X64797663Y6010262D02*
X64898701Y6002567D01*
X99377933Y21949586D02*
X99302744Y22017517D01*
X6124495Y37694611D02*
X6091721Y37598727D01*
X80641526Y38142537D02*
X80581551Y38224212D01*
X23224211Y71581552D02*
X23142536Y71641527D01*
X1000000Y0D02*
X105000000Y0D01*
X61697288Y54557929D02*
X61641526Y54642537D01*
X6697255Y39482484D02*
X6775788Y39418449D01*
X83211288Y22662085D02*
X83305389Y22624496D01*
X60202336Y72010262D02*
X60302855Y72023064D01*
X42959059Y40597403D02*
X42976936Y40697145D01*
X25251306Y70970604D02*
X25204390Y70880789D01*
X41402597Y6040941D02*
X41501305Y6063846D01*
X63040940Y70402598D02*
X63023063Y70302856D01*
X61936154Y40498695D02*
X61959059Y40597403D01*
X43000000Y8000000D02*
X43000000Y20500000D01*
X80449585Y21877934D02*
X80377933Y21949586D01*
X80997433Y24398702D02*
X81000000Y24500000D01*
X63697255Y55017517D02*
X63622066Y54949586D01*
X99302744Y88017517D02*
X99224211Y88081552D01*
X80997433Y73898702D02*
X81000000Y74000000D01*
X22880788Y55704391D02*
X22970603Y55751307D01*
X60880788Y72204391D02*
X60970603Y72251307D01*
X44000000Y24500000D02*
X44002566Y24398702D01*
X6482483Y71302745D02*
X6418448Y71224212D01*
X6162084Y73211289D02*
X6204390Y73119212D01*
X98788711Y72162085D02*
X98880788Y72204391D01*
X99959059Y73597403D02*
X99976936Y73697145D01*
X79402597Y55459060D02*
X79302855Y55476937D01*
X44162084Y40211289D02*
X44204390Y40119212D01*
X61697288Y71057929D02*
X61641526Y71142537D01*
X42517516Y6697256D02*
X42581551Y6775789D01*
X44091721Y23901274D02*
X44124495Y23805390D01*
X79000000Y55500000D02*
X79101298Y55502567D01*
X7697144Y22476937D02*
X7597402Y22459060D01*
X41694610Y55624496D02*
X41788711Y55662085D01*
X82550414Y56122067D02*
X82622066Y56050415D01*
X42057928Y39302712D02*
X42142536Y39358474D01*
X25418448Y72775789D02*
X25482483Y72697256D01*
X6204390Y70880789D02*
X6162084Y70788712D01*
X22202336Y38989739D02*
X22101298Y38997434D01*
X7211288Y22337916D02*
X7119211Y22295610D01*
X6091721Y21098727D02*
X6063845Y21001306D01*
X23908278Y7401274D02*
X23936154Y7498695D01*
X22501305Y72063846D02*
X22598726Y72091722D01*
X63251306Y70970604D02*
X63204390Y70880789D01*
X60000000Y39000000D02*
X60101298Y39002567D01*
X7797663Y22510262D02*
X7898701Y22502567D01*
X41101298Y88497434D02*
X41000000Y88500000D01*
X42748693Y21470604D02*
X42697288Y21557929D01*
X6091721Y40401274D02*
X6124495Y40305390D01*
X82418448Y72775789D02*
X82482483Y72697256D01*
X25622066Y87949586D02*
X25550414Y87877934D01*
X61449585Y38377934D02*
X61377933Y38449586D01*
X82302711Y21557929D02*
X82251306Y21470604D01*
X82697255Y6482484D02*
X82775788Y6418449D01*
X63023063Y86802856D02*
X63010261Y86702337D01*
X60970603Y55751307D02*
X61057928Y55802712D01*
X25775788Y6418449D02*
X25857463Y6358474D01*
X83697144Y6023064D02*
X83797663Y6010262D01*
X22970603Y38748694D02*
X22880788Y38795610D01*
X61641526Y87642537D02*
X61581551Y87724212D01*
X80377933Y38449586D02*
X80302744Y38517517D01*
X22598726Y55408279D02*
X22501305Y55436155D01*
X80976936Y53802856D02*
X80959059Y53902598D01*
X26697144Y71976937D02*
X26597402Y71959060D01*
X82091721Y54098727D02*
X82063845Y54001306D01*
X23908278Y87098727D02*
X23875504Y87194611D01*
X61997433Y70101299D02*
X61989738Y70202337D01*
X41970603Y38748694D02*
X41880788Y38795610D01*
X82000000Y41000000D02*
X82002566Y40898702D01*
X64401273Y22591722D02*
X64498694Y22563846D01*
X45797663Y72010262D02*
X45898701Y72002567D01*
X61959059Y73597403D02*
X61976936Y73697145D01*
X61997433Y73898702D02*
X62000000Y74000000D01*
X42449585Y38377934D02*
X42377933Y38449586D01*
X26498694Y55436155D02*
X26401273Y55408279D01*
X41880788Y71795610D02*
X41788711Y71837916D01*
X26498694Y55563846D02*
X26597402Y55540941D01*
X41694610Y72124496D02*
X41788711Y72162085D01*
X61989738Y24297664D02*
X61997433Y24398702D01*
X42224211Y72418449D02*
X42302744Y72482484D01*
X26597402Y38959060D02*
X26498694Y38936155D01*
X19214Y93695091D02*
X4815Y93598018D01*
X41202336Y22510262D02*
X41302855Y22523064D01*
X26305389Y38875505D02*
X26211288Y38837916D01*
X82162084Y54288712D02*
X82124495Y54194611D01*
X61142536Y38641527D02*
X61057928Y38697289D01*
X60694610Y6124496D02*
X60788711Y6162085D01*
X79598726Y38908279D02*
X79501305Y38936155D01*
X7898701Y22497434D02*
X7797663Y22489739D01*
X44162084Y73211289D02*
X44204390Y73119212D01*
X98970603Y22248694D02*
X98880788Y22295610D01*
X6251306Y87470604D02*
X6204390Y87380789D01*
X24000000Y41000000D02*
X24000000Y53500000D01*
X83797663Y55489739D02*
X83697144Y55476937D01*
X22202336Y22489739D02*
X22101298Y22497434D01*
X63482483Y23197256D02*
X63550414Y23122067D01*
X99142536Y6358474D02*
X99224211Y6418449D01*
X22970603Y88248694D02*
X22880788Y88295610D01*
X42697288Y39942072D02*
X42748693Y40029397D01*
X60501305Y72063846D02*
X60598726Y72091722D01*
X99795609Y56619212D02*
X99837915Y56711289D01*
X61959059Y70402598D02*
X61936154Y70501306D01*
X22501305Y71936155D02*
X22402597Y71959060D01*
X63358473Y87642537D02*
X63302711Y87557929D01*
X45898701Y6002567D02*
X46000000Y6000000D01*
X27000000Y72000000D02*
X26898701Y71997434D01*
X105773010Y94134394D02*
X105707106Y94207107D01*
X22788711Y22337916D02*
X22694610Y22375505D01*
X42976936Y57197145D02*
X42989738Y57297664D01*
X79598726Y22408279D02*
X79501305Y22436155D01*
X42377933Y72550415D02*
X42449585Y72622067D01*
X61517516Y72697256D02*
X61581551Y72775789D01*
X61875504Y21194611D02*
X61837915Y21288712D01*
X7498694Y88436155D02*
X7401273Y88408279D01*
X61837915Y54288712D02*
X61795609Y54380789D01*
X22970603Y22248694D02*
X22880788Y22295610D01*
X61959059Y24097403D02*
X61976936Y24197145D01*
X41402597Y72040941D02*
X41501305Y72063846D01*
X25302711Y87557929D02*
X25251306Y87470604D01*
X6124495Y70694611D02*
X6091721Y70598727D01*
X63775788Y22081552D02*
X63697255Y22017517D01*
X45029396Y72251307D02*
X45119211Y72204391D01*
X61581551Y6775789D02*
X61641526Y6857464D01*
X25124495Y87194611D02*
X25091721Y87098727D01*
X25697255Y22982484D02*
X25775788Y22918449D01*
X61989738Y40797664D02*
X61997433Y40898702D01*
X99377933Y72550415D02*
X99449585Y72622067D01*
X82622066Y21949586D02*
X82550414Y21877934D01*
X25023063Y40697145D02*
X25040940Y40597403D01*
X61837915Y56711289D02*
X61875504Y56805390D01*
X61224211Y55081552D02*
X61142536Y55141527D01*
X78000000Y6000000D02*
X79000000Y6000000D01*
X82482483Y72697256D02*
X82550414Y72622067D01*
X25857463Y71641527D02*
X25775788Y71581552D01*
X61641526Y72857464D02*
X61697288Y72942072D01*
X23989738Y57297664D02*
X23997433Y57398702D01*
X22101298Y22502567D02*
X22202336Y22510262D01*
X82550414Y54877934D02*
X82482483Y54802745D01*
X23908278Y21098727D02*
X23875504Y21194611D01*
X23748693Y21470604D02*
X23697288Y21557929D01*
X61795609Y87380789D02*
X61748693Y87470604D01*
X84000000Y39000000D02*
X83898701Y38997434D01*
X41101298Y71997434D02*
X41000000Y72000000D01*
X6942071Y72302712D02*
X7029396Y72251307D01*
X6000000Y70000000D02*
X6000000Y57500000D01*
X99224211Y71581552D02*
X99142536Y71641527D01*
X6358473Y71142537D02*
X6302711Y71057929D01*
X46000000Y6000000D02*
X47000000Y6000000D01*
X42517516Y87802745D02*
X42449585Y87877934D01*
X64898701Y71997434D02*
X64797663Y71989739D01*
X63040940Y20902598D02*
X63023063Y20802856D01*
X64119211Y6204391D02*
X64211288Y6162085D01*
X23302744Y39482484D02*
X23377933Y39550415D01*
X43000000Y86500000D02*
X42997433Y86601299D01*
X64305389Y88375505D02*
X64211288Y88337916D01*
X98402597Y22459060D02*
X98302855Y22476937D01*
X60788711Y38837916D02*
X60694610Y38875505D01*
X6857463Y88141527D02*
X6775788Y88081552D01*
X99224211Y39418449D02*
X99302744Y39482484D01*
X7119211Y72204391D02*
X7211288Y72162085D01*
X99641526Y39857464D02*
X99697288Y39942072D01*
X23517516Y39697256D02*
X23581551Y39775789D01*
X82023063Y70302856D02*
X82010261Y70202337D01*
X63622066Y21949586D02*
X63550414Y21877934D01*
X23989738Y86702337D02*
X23976936Y86802856D01*
X99142536Y88141527D02*
X99057928Y88197289D01*
X44010261Y57297664D02*
X44023063Y57197145D01*
X26597402Y6040941D02*
X26697144Y6023064D01*
X42581551Y23275789D02*
X42641526Y23357464D01*
X22101298Y6002567D02*
X22202336Y6010262D01*
X6302711Y54557929D02*
X6251306Y54470604D01*
X99748693Y73029397D02*
X99795609Y73119212D01*
X64597402Y6040941D02*
X64697144Y6023064D01*
X99908278Y7401274D02*
X99936154Y7498695D01*
X80302744Y22017517D02*
X80224211Y22081552D01*
X99581551Y21724212D02*
X99517516Y21802745D01*
X99449585Y87877934D02*
X99377933Y87949586D01*
X23989738Y53702337D02*
X23976936Y53802856D01*
X105881921Y93971397D02*
X105831469Y94055571D01*
X98202336Y38989739D02*
X98101298Y38997434D01*
X63550414Y54877934D02*
X63482483Y54802745D01*
X61377933Y38449586D02*
X61302744Y38517517D01*
X83697144Y55523064D02*
X83797663Y55510262D01*
X21000000Y89500000D02*
X28000000Y89500000D01*
X63482483Y72697256D02*
X63550414Y72622067D01*
X41101298Y39002567D02*
X41202336Y39010262D01*
M02*
