G04 #@! TF.GenerationSoftware,KiCad,Pcbnew,(6.0.11)*
G04 #@! TF.CreationDate,2023-02-11T17:54:05+01:00*
G04 #@! TF.ProjectId,UDB-panel,5544422d-7061-46e6-956c-2e6b69636164,C4-RC1*
G04 #@! TF.SameCoordinates,Original*
G04 #@! TF.FileFunction,Legend,Top*
G04 #@! TF.FilePolarity,Positive*
%FSLAX46Y46*%
G04 Gerber Fmt 4.6, Leading zero omitted, Abs format (unit mm)*
G04 Created by KiCad (PCBNEW (6.0.11)) date 2023-02-11 17:54:05*
%MOMM*%
%LPD*%
G01*
G04 APERTURE LIST*
%ADD10C,0.300000*%
%ADD11C,0.120000*%
%ADD12C,0.150000*%
%ADD13C,0.100000*%
%ADD14C,0.400000*%
G04 APERTURE END LIST*
D10*
X44357142Y92821429D02*
X44357142Y91607143D01*
X44428571Y91464286D01*
X44500000Y91392858D01*
X44642857Y91321429D01*
X44928571Y91321429D01*
X45071428Y91392858D01*
X45142857Y91464286D01*
X45214285Y91607143D01*
X45214285Y92821429D01*
X45928571Y91321429D02*
X45928571Y92821429D01*
X46285714Y92821429D01*
X46500000Y92750000D01*
X46642857Y92607143D01*
X46714285Y92464286D01*
X46785714Y92178572D01*
X46785714Y91964286D01*
X46714285Y91678572D01*
X46642857Y91535715D01*
X46500000Y91392858D01*
X46285714Y91321429D01*
X45928571Y91321429D01*
X47928571Y92107143D02*
X48142857Y92035715D01*
X48214285Y91964286D01*
X48285714Y91821429D01*
X48285714Y91607143D01*
X48214285Y91464286D01*
X48142857Y91392858D01*
X48000000Y91321429D01*
X47428571Y91321429D01*
X47428571Y92821429D01*
X47928571Y92821429D01*
X48071428Y92750000D01*
X48142857Y92678572D01*
X48214285Y92535715D01*
X48214285Y92392858D01*
X48142857Y92250000D01*
X48071428Y92178572D01*
X47928571Y92107143D01*
X47428571Y92107143D01*
X48928571Y91892858D02*
X50071428Y91892858D01*
X51642857Y91464286D02*
X51571428Y91392858D01*
X51357142Y91321429D01*
X51214285Y91321429D01*
X51000000Y91392858D01*
X50857142Y91535715D01*
X50785714Y91678572D01*
X50714285Y91964286D01*
X50714285Y92178572D01*
X50785714Y92464286D01*
X50857142Y92607143D01*
X51000000Y92750000D01*
X51214285Y92821429D01*
X51357142Y92821429D01*
X51571428Y92750000D01*
X51642857Y92678572D01*
X52928571Y92321429D02*
X52928571Y91321429D01*
X52571428Y92892858D02*
X52214285Y91821429D01*
X53142857Y91821429D01*
X55714285Y91321429D02*
X55214285Y92035715D01*
X54857142Y91321429D02*
X54857142Y92821429D01*
X55428571Y92821429D01*
X55571428Y92750000D01*
X55642857Y92678572D01*
X55714285Y92535715D01*
X55714285Y92321429D01*
X55642857Y92178572D01*
X55571428Y92107143D01*
X55428571Y92035715D01*
X54857142Y92035715D01*
X56928571Y91392858D02*
X56785714Y91321429D01*
X56500000Y91321429D01*
X56357142Y91392858D01*
X56285714Y91535715D01*
X56285714Y92107143D01*
X56357142Y92250000D01*
X56500000Y92321429D01*
X56785714Y92321429D01*
X56928571Y92250000D01*
X57000000Y92107143D01*
X57000000Y91964286D01*
X56285714Y91821429D01*
X57500000Y92321429D02*
X57857142Y91321429D01*
X58214285Y92321429D01*
X59571428Y91321429D02*
X58714285Y91321429D01*
X59142857Y91321429D02*
X59142857Y92821429D01*
X59000000Y92607143D01*
X58857142Y92464286D01*
X58714285Y92392858D01*
X60214285Y91464286D02*
X60285714Y91392858D01*
X60214285Y91321429D01*
X60142857Y91392858D01*
X60214285Y91464286D01*
X60214285Y91321429D01*
X61214285Y92821429D02*
X61357142Y92821429D01*
X61500000Y92750000D01*
X61571428Y92678572D01*
X61642857Y92535715D01*
X61714285Y92250000D01*
X61714285Y91892858D01*
X61642857Y91607143D01*
X61571428Y91464286D01*
X61500000Y91392858D01*
X61357142Y91321429D01*
X61214285Y91321429D01*
X61071428Y91392858D01*
X61000000Y91464286D01*
X60928571Y91607143D01*
X60857142Y91892858D01*
X60857142Y92250000D01*
X60928571Y92535715D01*
X61000000Y92678572D01*
X61071428Y92750000D01*
X61214285Y92821429D01*
D11*
G04 #@! TO.C,J2*
X76100000Y39050000D02*
X76100000Y40050000D01*
X75400000Y44100000D02*
X75400000Y43100000D01*
X74700000Y44100000D02*
X75400000Y44100000D01*
X68600000Y44100000D02*
X68600000Y43100000D01*
X67900000Y39050000D02*
X68600000Y39050000D01*
X68600000Y44100000D02*
X69300000Y44100000D01*
X75400000Y39050000D02*
X76100000Y39050000D01*
X67900000Y39050000D02*
X67900000Y40050000D01*
G36*
X69692000Y44562000D02*
G01*
X68930000Y44816000D01*
X69438000Y45324000D01*
X69692000Y44562000D01*
G37*
X69692000Y44562000D02*
X68930000Y44816000D01*
X69438000Y45324000D01*
X69692000Y44562000D01*
D12*
G04 #@! TO.C,D1*
X63250000Y78653000D02*
X63250000Y77653000D01*
X63750000Y79153000D02*
X64550000Y79153000D01*
X64550000Y77153000D02*
X63750000Y77153000D01*
X65050000Y78653000D02*
X65050000Y77653000D01*
X63750000Y79153000D02*
G75*
G03*
X63250000Y78653000I1J-500001D01*
G01*
X64550000Y77153000D02*
G75*
G03*
X65050000Y77653000I-1J500001D01*
G01*
X63250000Y77653000D02*
G75*
G03*
X63750000Y77153000I500001J1D01*
G01*
X65050000Y78653000D02*
G75*
G03*
X64550000Y79153000I-500001J-1D01*
G01*
G36*
X66400000Y77353000D02*
G01*
X65400000Y78153000D01*
X66400000Y78953000D01*
X66400000Y77353000D01*
G37*
D13*
X66400000Y77353000D02*
X65400000Y78153000D01*
X66400000Y78953000D01*
X66400000Y77353000D01*
D11*
G04 #@! TO.C,R1*
X96028000Y27853641D02*
X96028000Y27546359D01*
X95268000Y27853641D02*
X95268000Y27546359D01*
G04 #@! TO.C,F1*
X65796000Y82438064D02*
X65796000Y81233936D01*
X63976000Y82438064D02*
X63976000Y81233936D01*
G04 #@! TO.C,R1*
X39028000Y27853641D02*
X39028000Y27546359D01*
X38268000Y27853641D02*
X38268000Y27546359D01*
G04 #@! TO.C,L1*
X41910000Y14614936D02*
X41910000Y15819064D01*
X40090000Y14614936D02*
X40090000Y15819064D01*
X59090000Y31114936D02*
X59090000Y32319064D01*
X60910000Y31114936D02*
X60910000Y32319064D01*
D12*
G04 #@! TO.C,D1*
X46050000Y12653000D02*
X46050000Y11653000D01*
X44250000Y12653000D02*
X44250000Y11653000D01*
X44750000Y13153000D02*
X45550000Y13153000D01*
X45550000Y11153000D02*
X44750000Y11153000D01*
X45550000Y11153000D02*
G75*
G03*
X46050000Y11653000I-1J500001D01*
G01*
X44250000Y11653000D02*
G75*
G03*
X44750000Y11153000I500001J1D01*
G01*
X44750000Y13153000D02*
G75*
G03*
X44250000Y12653000I1J-500001D01*
G01*
X46050000Y12653000D02*
G75*
G03*
X45550000Y13153000I-500001J-1D01*
G01*
G36*
X47400000Y11353000D02*
G01*
X46400000Y12153000D01*
X47400000Y12953000D01*
X47400000Y11353000D01*
G37*
D13*
X47400000Y11353000D02*
X46400000Y12153000D01*
X47400000Y12953000D01*
X47400000Y11353000D01*
D12*
X45550000Y27653000D02*
X44750000Y27653000D01*
X46050000Y29153000D02*
X46050000Y28153000D01*
X44750000Y29653000D02*
X45550000Y29653000D01*
X44250000Y29153000D02*
X44250000Y28153000D01*
X44250000Y28153000D02*
G75*
G03*
X44750000Y27653000I500001J1D01*
G01*
X45550000Y27653000D02*
G75*
G03*
X46050000Y28153000I-1J500001D01*
G01*
X44750000Y29653000D02*
G75*
G03*
X44250000Y29153000I1J-500001D01*
G01*
X46050000Y29153000D02*
G75*
G03*
X45550000Y29653000I-500001J-1D01*
G01*
G36*
X47400000Y27853000D02*
G01*
X46400000Y28653000D01*
X47400000Y29453000D01*
X47400000Y27853000D01*
G37*
D13*
X47400000Y27853000D02*
X46400000Y28653000D01*
X47400000Y29453000D01*
X47400000Y27853000D01*
D11*
G04 #@! TO.C,F1*
X8796000Y65938064D02*
X8796000Y64733936D01*
X6976000Y65938064D02*
X6976000Y64733936D01*
G04 #@! TO.C,R2*
X39868000Y11753641D02*
X39868000Y11446359D01*
X40628000Y11753641D02*
X40628000Y11446359D01*
D14*
G04 #@! TO.C,U1*
X32498000Y78616600D02*
G75*
G03*
X32498000Y78616600I0J0D01*
G01*
D11*
G04 #@! TO.C,R1*
X19268000Y44353641D02*
X19268000Y44046359D01*
X20028000Y44353641D02*
X20028000Y44046359D01*
X20028000Y60853641D02*
X20028000Y60546359D01*
X19268000Y60853641D02*
X19268000Y60546359D01*
G04 #@! TO.C,F1*
X46796000Y49438064D02*
X46796000Y48233936D01*
X44976000Y49438064D02*
X44976000Y48233936D01*
D14*
G04 #@! TO.C,U1*
X70498000Y45616600D02*
G75*
G03*
X70498000Y45616600I0J0D01*
G01*
D11*
G04 #@! TO.C,J2*
X38100000Y72050000D02*
X38100000Y73050000D01*
X30600000Y77100000D02*
X31300000Y77100000D01*
X37400000Y77100000D02*
X37400000Y76100000D01*
X30600000Y77100000D02*
X30600000Y76100000D01*
X37400000Y72050000D02*
X38100000Y72050000D01*
X29900000Y72050000D02*
X29900000Y73050000D01*
X29900000Y72050000D02*
X30600000Y72050000D01*
X36700000Y77100000D02*
X37400000Y77100000D01*
G36*
X31692000Y77562000D02*
G01*
X30930000Y77816000D01*
X31438000Y78324000D01*
X31692000Y77562000D01*
G37*
X31692000Y77562000D02*
X30930000Y77816000D01*
X31438000Y78324000D01*
X31692000Y77562000D01*
G04 #@! TO.C,F1*
X84796000Y16438064D02*
X84796000Y15233936D01*
X82976000Y16438064D02*
X82976000Y15233936D01*
X44976000Y16438064D02*
X44976000Y15233936D01*
X46796000Y16438064D02*
X46796000Y15233936D01*
D14*
G04 #@! TO.C,U1*
X51498000Y45616600D02*
G75*
G03*
X51498000Y45616600I0J0D01*
G01*
X89498000Y78616600D02*
G75*
G03*
X89498000Y78616600I0J0D01*
G01*
D11*
G04 #@! TO.C,J2*
X55700000Y27600000D02*
X56400000Y27600000D01*
X56400000Y27600000D02*
X56400000Y26600000D01*
X48900000Y22550000D02*
X49600000Y22550000D01*
X57100000Y22550000D02*
X57100000Y23550000D01*
X49600000Y27600000D02*
X49600000Y26600000D01*
X56400000Y22550000D02*
X57100000Y22550000D01*
X49600000Y27600000D02*
X50300000Y27600000D01*
X48900000Y22550000D02*
X48900000Y23550000D01*
G36*
X50692000Y28062000D02*
G01*
X49930000Y28316000D01*
X50438000Y28824000D01*
X50692000Y28062000D01*
G37*
X50692000Y28062000D02*
X49930000Y28316000D01*
X50438000Y28824000D01*
X50692000Y28062000D01*
X19100000Y6050000D02*
X19100000Y7050000D01*
X10900000Y6050000D02*
X11600000Y6050000D01*
X17700000Y11100000D02*
X18400000Y11100000D01*
X18400000Y11100000D02*
X18400000Y10100000D01*
X10900000Y6050000D02*
X10900000Y7050000D01*
X11600000Y11100000D02*
X12300000Y11100000D01*
X11600000Y11100000D02*
X11600000Y10100000D01*
X18400000Y6050000D02*
X19100000Y6050000D01*
G36*
X12692000Y11562000D02*
G01*
X11930000Y11816000D01*
X12438000Y12324000D01*
X12692000Y11562000D01*
G37*
X12692000Y11562000D02*
X11930000Y11816000D01*
X12438000Y12324000D01*
X12692000Y11562000D01*
G04 #@! TO.C,L1*
X78090000Y14614936D02*
X78090000Y15819064D01*
X79910000Y14614936D02*
X79910000Y15819064D01*
D14*
G04 #@! TO.C,U1*
X32498000Y45616600D02*
G75*
G03*
X32498000Y45616600I0J0D01*
G01*
D12*
G04 #@! TO.C,D1*
X8050000Y78653000D02*
X8050000Y77653000D01*
X6750000Y79153000D02*
X7550000Y79153000D01*
X6250000Y78653000D02*
X6250000Y77653000D01*
X7550000Y77153000D02*
X6750000Y77153000D01*
X8050000Y78653000D02*
G75*
G03*
X7550000Y79153000I-500001J-1D01*
G01*
X6750000Y79153000D02*
G75*
G03*
X6250000Y78653000I1J-500001D01*
G01*
X6250000Y77653000D02*
G75*
G03*
X6750000Y77153000I500001J1D01*
G01*
X7550000Y77153000D02*
G75*
G03*
X8050000Y77653000I-1J500001D01*
G01*
G36*
X9400000Y77353000D02*
G01*
X8400000Y78153000D01*
X9400000Y78953000D01*
X9400000Y77353000D01*
G37*
D13*
X9400000Y77353000D02*
X8400000Y78153000D01*
X9400000Y78953000D01*
X9400000Y77353000D01*
D11*
G04 #@! TO.C,F1*
X82976000Y82438064D02*
X82976000Y81233936D01*
X84796000Y82438064D02*
X84796000Y81233936D01*
D12*
G04 #@! TO.C,D1*
X25250000Y12653000D02*
X25250000Y11653000D01*
X27050000Y12653000D02*
X27050000Y11653000D01*
X26550000Y11153000D02*
X25750000Y11153000D01*
X25750000Y13153000D02*
X26550000Y13153000D01*
X25750000Y13153000D02*
G75*
G03*
X25250000Y12653000I1J-500001D01*
G01*
X25250000Y11653000D02*
G75*
G03*
X25750000Y11153000I500001J1D01*
G01*
X26550000Y11153000D02*
G75*
G03*
X27050000Y11653000I-1J500001D01*
G01*
X27050000Y12653000D02*
G75*
G03*
X26550000Y13153000I-500001J-1D01*
G01*
G36*
X28400000Y11353000D02*
G01*
X27400000Y12153000D01*
X28400000Y12953000D01*
X28400000Y11353000D01*
G37*
D13*
X28400000Y11353000D02*
X27400000Y12153000D01*
X28400000Y12953000D01*
X28400000Y11353000D01*
D12*
X83550000Y11153000D02*
X82750000Y11153000D01*
X82750000Y13153000D02*
X83550000Y13153000D01*
X84050000Y12653000D02*
X84050000Y11653000D01*
X82250000Y12653000D02*
X82250000Y11653000D01*
X82250000Y11653000D02*
G75*
G03*
X82750000Y11153000I500001J1D01*
G01*
X83550000Y11153000D02*
G75*
G03*
X84050000Y11653000I-1J500001D01*
G01*
X82750000Y13153000D02*
G75*
G03*
X82250000Y12653000I1J-500001D01*
G01*
X84050000Y12653000D02*
G75*
G03*
X83550000Y13153000I-500001J-1D01*
G01*
G36*
X85400000Y11353000D02*
G01*
X84400000Y12153000D01*
X85400000Y12953000D01*
X85400000Y11353000D01*
G37*
D13*
X85400000Y11353000D02*
X84400000Y12153000D01*
X85400000Y12953000D01*
X85400000Y11353000D01*
D11*
G04 #@! TO.C,L1*
X40090000Y47614936D02*
X40090000Y48819064D01*
X41910000Y47614936D02*
X41910000Y48819064D01*
D14*
G04 #@! TO.C,U1*
X89498000Y12616600D02*
G75*
G03*
X89498000Y12616600I0J0D01*
G01*
D12*
G04 #@! TO.C,D1*
X82750000Y46153000D02*
X83550000Y46153000D01*
X84050000Y45653000D02*
X84050000Y44653000D01*
X82250000Y45653000D02*
X82250000Y44653000D01*
X83550000Y44153000D02*
X82750000Y44153000D01*
X82250000Y44653000D02*
G75*
G03*
X82750000Y44153000I500001J1D01*
G01*
X82750000Y46153000D02*
G75*
G03*
X82250000Y45653000I1J-500001D01*
G01*
X84050000Y45653000D02*
G75*
G03*
X83550000Y46153000I-500001J-1D01*
G01*
X83550000Y44153000D02*
G75*
G03*
X84050000Y44653000I-1J500001D01*
G01*
G36*
X85400000Y44353000D02*
G01*
X84400000Y45153000D01*
X85400000Y45953000D01*
X85400000Y44353000D01*
G37*
D13*
X85400000Y44353000D02*
X84400000Y45153000D01*
X85400000Y45953000D01*
X85400000Y44353000D01*
D11*
G04 #@! TO.C,J2*
X49600000Y11100000D02*
X49600000Y10100000D01*
X48900000Y6050000D02*
X49600000Y6050000D01*
X55700000Y11100000D02*
X56400000Y11100000D01*
X56400000Y6050000D02*
X57100000Y6050000D01*
X56400000Y11100000D02*
X56400000Y10100000D01*
X57100000Y6050000D02*
X57100000Y7050000D01*
X49600000Y11100000D02*
X50300000Y11100000D01*
X48900000Y6050000D02*
X48900000Y7050000D01*
G36*
X50692000Y11562000D02*
G01*
X49930000Y11816000D01*
X50438000Y12324000D01*
X50692000Y11562000D01*
G37*
X50692000Y11562000D02*
X49930000Y11816000D01*
X50438000Y12324000D01*
X50692000Y11562000D01*
G04 #@! TO.C,R2*
X21628000Y11753641D02*
X21628000Y11446359D01*
X20868000Y11753641D02*
X20868000Y11446359D01*
D12*
G04 #@! TO.C,D1*
X45550000Y60653000D02*
X44750000Y60653000D01*
X44250000Y62153000D02*
X44250000Y61153000D01*
X46050000Y62153000D02*
X46050000Y61153000D01*
X44750000Y62653000D02*
X45550000Y62653000D01*
X45550000Y60653000D02*
G75*
G03*
X46050000Y61153000I-1J500001D01*
G01*
X44750000Y62653000D02*
G75*
G03*
X44250000Y62153000I1J-500001D01*
G01*
X44250000Y61153000D02*
G75*
G03*
X44750000Y60653000I500001J1D01*
G01*
X46050000Y62153000D02*
G75*
G03*
X45550000Y62653000I-500001J-1D01*
G01*
G36*
X47400000Y60853000D02*
G01*
X46400000Y61653000D01*
X47400000Y62453000D01*
X47400000Y60853000D01*
G37*
D13*
X47400000Y60853000D02*
X46400000Y61653000D01*
X47400000Y62453000D01*
X47400000Y60853000D01*
D11*
G04 #@! TO.C,L1*
X78090000Y31114936D02*
X78090000Y32319064D01*
X79910000Y31114936D02*
X79910000Y32319064D01*
G04 #@! TO.C,J2*
X37400000Y27600000D02*
X37400000Y26600000D01*
X38100000Y22550000D02*
X38100000Y23550000D01*
X37400000Y22550000D02*
X38100000Y22550000D01*
X29900000Y22550000D02*
X30600000Y22550000D01*
X30600000Y27600000D02*
X31300000Y27600000D01*
X36700000Y27600000D02*
X37400000Y27600000D01*
X30600000Y27600000D02*
X30600000Y26600000D01*
X29900000Y22550000D02*
X29900000Y23550000D01*
G36*
X31692000Y28062000D02*
G01*
X30930000Y28316000D01*
X31438000Y28824000D01*
X31692000Y28062000D01*
G37*
X31692000Y28062000D02*
X30930000Y28316000D01*
X31438000Y28824000D01*
X31692000Y28062000D01*
G04 #@! TO.C,R1*
X58028000Y44353641D02*
X58028000Y44046359D01*
X57268000Y44353641D02*
X57268000Y44046359D01*
X19268000Y77353641D02*
X19268000Y77046359D01*
X20028000Y77353641D02*
X20028000Y77046359D01*
G04 #@! TO.C,F1*
X8796000Y82438064D02*
X8796000Y81233936D01*
X6976000Y82438064D02*
X6976000Y81233936D01*
D12*
G04 #@! TO.C,D1*
X25750000Y62653000D02*
X26550000Y62653000D01*
X26550000Y60653000D02*
X25750000Y60653000D01*
X25250000Y62153000D02*
X25250000Y61153000D01*
X27050000Y62153000D02*
X27050000Y61153000D01*
X27050000Y62153000D02*
G75*
G03*
X26550000Y62653000I-500001J-1D01*
G01*
X25250000Y61153000D02*
G75*
G03*
X25750000Y60653000I500001J1D01*
G01*
X26550000Y60653000D02*
G75*
G03*
X27050000Y61153000I-1J500001D01*
G01*
X25750000Y62653000D02*
G75*
G03*
X25250000Y62153000I1J-500001D01*
G01*
G36*
X28400000Y60853000D02*
G01*
X27400000Y61653000D01*
X28400000Y62453000D01*
X28400000Y60853000D01*
G37*
D13*
X28400000Y60853000D02*
X27400000Y61653000D01*
X28400000Y62453000D01*
X28400000Y60853000D01*
D11*
G04 #@! TO.C,J2*
X87600000Y44100000D02*
X87600000Y43100000D01*
X93700000Y44100000D02*
X94400000Y44100000D01*
X86900000Y39050000D02*
X87600000Y39050000D01*
X86900000Y39050000D02*
X86900000Y40050000D01*
X94400000Y44100000D02*
X94400000Y43100000D01*
X94400000Y39050000D02*
X95100000Y39050000D01*
X87600000Y44100000D02*
X88300000Y44100000D01*
X95100000Y39050000D02*
X95100000Y40050000D01*
G36*
X88692000Y44562000D02*
G01*
X87930000Y44816000D01*
X88438000Y45324000D01*
X88692000Y44562000D01*
G37*
X88692000Y44562000D02*
X87930000Y44816000D01*
X88438000Y45324000D01*
X88692000Y44562000D01*
G04 #@! TO.C,R2*
X40628000Y61253641D02*
X40628000Y60946359D01*
X39868000Y61253641D02*
X39868000Y60946359D01*
G04 #@! TO.C,F1*
X27796000Y82438064D02*
X27796000Y81233936D01*
X25976000Y82438064D02*
X25976000Y81233936D01*
D14*
G04 #@! TO.C,U1*
X51498000Y12616600D02*
G75*
G03*
X51498000Y12616600I0J0D01*
G01*
D12*
G04 #@! TO.C,D1*
X65050000Y45653000D02*
X65050000Y44653000D01*
X63750000Y46153000D02*
X64550000Y46153000D01*
X63250000Y45653000D02*
X63250000Y44653000D01*
X64550000Y44153000D02*
X63750000Y44153000D01*
X65050000Y45653000D02*
G75*
G03*
X64550000Y46153000I-500001J-1D01*
G01*
X63250000Y44653000D02*
G75*
G03*
X63750000Y44153000I500001J1D01*
G01*
X64550000Y44153000D02*
G75*
G03*
X65050000Y44653000I-1J500001D01*
G01*
X63750000Y46153000D02*
G75*
G03*
X63250000Y45653000I1J-500001D01*
G01*
G36*
X66400000Y44353000D02*
G01*
X65400000Y45153000D01*
X66400000Y45953000D01*
X66400000Y44353000D01*
G37*
D13*
X66400000Y44353000D02*
X65400000Y45153000D01*
X66400000Y45953000D01*
X66400000Y44353000D01*
D11*
G04 #@! TO.C,R2*
X40628000Y28253641D02*
X40628000Y27946359D01*
X39868000Y28253641D02*
X39868000Y27946359D01*
G04 #@! TO.C,J2*
X29900000Y6050000D02*
X29900000Y7050000D01*
X36700000Y11100000D02*
X37400000Y11100000D01*
X38100000Y6050000D02*
X38100000Y7050000D01*
X37400000Y11100000D02*
X37400000Y10100000D01*
X30600000Y11100000D02*
X31300000Y11100000D01*
X29900000Y6050000D02*
X30600000Y6050000D01*
X30600000Y11100000D02*
X30600000Y10100000D01*
X37400000Y6050000D02*
X38100000Y6050000D01*
G36*
X31692000Y11562000D02*
G01*
X30930000Y11816000D01*
X31438000Y12324000D01*
X31692000Y11562000D01*
G37*
X31692000Y11562000D02*
X30930000Y11816000D01*
X31438000Y12324000D01*
X31692000Y11562000D01*
X18400000Y77100000D02*
X18400000Y76100000D01*
X10900000Y72050000D02*
X11600000Y72050000D01*
X17700000Y77100000D02*
X18400000Y77100000D01*
X19100000Y72050000D02*
X19100000Y73050000D01*
X18400000Y72050000D02*
X19100000Y72050000D01*
X11600000Y77100000D02*
X11600000Y76100000D01*
X10900000Y72050000D02*
X10900000Y73050000D01*
X11600000Y77100000D02*
X12300000Y77100000D01*
G36*
X12692000Y77562000D02*
G01*
X11930000Y77816000D01*
X12438000Y78324000D01*
X12692000Y77562000D01*
G37*
X12692000Y77562000D02*
X11930000Y77816000D01*
X12438000Y78324000D01*
X12692000Y77562000D01*
G04 #@! TO.C,R2*
X77868000Y77753641D02*
X77868000Y77446359D01*
X78628000Y77753641D02*
X78628000Y77446359D01*
D12*
G04 #@! TO.C,D1*
X6750000Y13153000D02*
X7550000Y13153000D01*
X6250000Y12653000D02*
X6250000Y11653000D01*
X7550000Y11153000D02*
X6750000Y11153000D01*
X8050000Y12653000D02*
X8050000Y11653000D01*
X8050000Y12653000D02*
G75*
G03*
X7550000Y13153000I-500001J-1D01*
G01*
X6750000Y13153000D02*
G75*
G03*
X6250000Y12653000I1J-500001D01*
G01*
X7550000Y11153000D02*
G75*
G03*
X8050000Y11653000I-1J500001D01*
G01*
X6250000Y11653000D02*
G75*
G03*
X6750000Y11153000I500001J1D01*
G01*
G36*
X9400000Y11353000D02*
G01*
X8400000Y12153000D01*
X9400000Y12953000D01*
X9400000Y11353000D01*
G37*
D13*
X9400000Y11353000D02*
X8400000Y12153000D01*
X9400000Y12953000D01*
X9400000Y11353000D01*
D11*
G04 #@! TO.C,F1*
X63976000Y32938064D02*
X63976000Y31733936D01*
X65796000Y32938064D02*
X65796000Y31733936D01*
G04 #@! TO.C,R1*
X57268000Y27853641D02*
X57268000Y27546359D01*
X58028000Y27853641D02*
X58028000Y27546359D01*
G04 #@! TO.C,L1*
X21090000Y80614936D02*
X21090000Y81819064D01*
X22910000Y80614936D02*
X22910000Y81819064D01*
G04 #@! TO.C,R2*
X78628000Y11753641D02*
X78628000Y11446359D01*
X77868000Y11753641D02*
X77868000Y11446359D01*
G04 #@! TO.C,F1*
X63976000Y65938064D02*
X63976000Y64733936D01*
X65796000Y65938064D02*
X65796000Y64733936D01*
G04 #@! TO.C,R1*
X38268000Y11353641D02*
X38268000Y11046359D01*
X39028000Y11353641D02*
X39028000Y11046359D01*
G04 #@! TO.C,F1*
X46796000Y82438064D02*
X46796000Y81233936D01*
X44976000Y82438064D02*
X44976000Y81233936D01*
G04 #@! TO.C,R2*
X58868000Y11753641D02*
X58868000Y11446359D01*
X59628000Y11753641D02*
X59628000Y11446359D01*
G04 #@! TO.C,R1*
X77028000Y60853641D02*
X77028000Y60546359D01*
X76268000Y60853641D02*
X76268000Y60546359D01*
X96028000Y60853641D02*
X96028000Y60546359D01*
X95268000Y60853641D02*
X95268000Y60546359D01*
D12*
G04 #@! TO.C,D1*
X26550000Y44153000D02*
X25750000Y44153000D01*
X25750000Y46153000D02*
X26550000Y46153000D01*
X27050000Y45653000D02*
X27050000Y44653000D01*
X25250000Y45653000D02*
X25250000Y44653000D01*
X25750000Y46153000D02*
G75*
G03*
X25250000Y45653000I1J-500001D01*
G01*
X27050000Y45653000D02*
G75*
G03*
X26550000Y46153000I-500001J-1D01*
G01*
X25250000Y44653000D02*
G75*
G03*
X25750000Y44153000I500001J1D01*
G01*
X26550000Y44153000D02*
G75*
G03*
X27050000Y44653000I-1J500001D01*
G01*
G36*
X28400000Y44353000D02*
G01*
X27400000Y45153000D01*
X28400000Y45953000D01*
X28400000Y44353000D01*
G37*
D13*
X28400000Y44353000D02*
X27400000Y45153000D01*
X28400000Y45953000D01*
X28400000Y44353000D01*
D14*
G04 #@! TO.C,U1*
X13498000Y45616600D02*
G75*
G03*
X13498000Y45616600I0J0D01*
G01*
D11*
G04 #@! TO.C,R1*
X77028000Y44353641D02*
X77028000Y44046359D01*
X76268000Y44353641D02*
X76268000Y44046359D01*
G04 #@! TO.C,J2*
X57100000Y72050000D02*
X57100000Y73050000D01*
X48900000Y72050000D02*
X49600000Y72050000D01*
X56400000Y72050000D02*
X57100000Y72050000D01*
X49600000Y77100000D02*
X49600000Y76100000D01*
X56400000Y77100000D02*
X56400000Y76100000D01*
X55700000Y77100000D02*
X56400000Y77100000D01*
X49600000Y77100000D02*
X50300000Y77100000D01*
X48900000Y72050000D02*
X48900000Y73050000D01*
G36*
X50692000Y77562000D02*
G01*
X49930000Y77816000D01*
X50438000Y78324000D01*
X50692000Y77562000D01*
G37*
X50692000Y77562000D02*
X49930000Y77816000D01*
X50438000Y78324000D01*
X50692000Y77562000D01*
G04 #@! TO.C,R2*
X96868000Y44753641D02*
X96868000Y44446359D01*
X97628000Y44753641D02*
X97628000Y44446359D01*
G04 #@! TO.C,L1*
X22910000Y14614936D02*
X22910000Y15819064D01*
X21090000Y14614936D02*
X21090000Y15819064D01*
G04 #@! TO.C,R1*
X57268000Y77353641D02*
X57268000Y77046359D01*
X58028000Y77353641D02*
X58028000Y77046359D01*
D14*
G04 #@! TO.C,U1*
X70498000Y12616600D02*
G75*
G03*
X70498000Y12616600I0J0D01*
G01*
D11*
G04 #@! TO.C,R1*
X39028000Y60853641D02*
X39028000Y60546359D01*
X38268000Y60853641D02*
X38268000Y60546359D01*
G04 #@! TO.C,R2*
X96868000Y28253641D02*
X96868000Y27946359D01*
X97628000Y28253641D02*
X97628000Y27946359D01*
D12*
G04 #@! TO.C,D1*
X82750000Y29653000D02*
X83550000Y29653000D01*
X84050000Y29153000D02*
X84050000Y28153000D01*
X83550000Y27653000D02*
X82750000Y27653000D01*
X82250000Y29153000D02*
X82250000Y28153000D01*
X82250000Y28153000D02*
G75*
G03*
X82750000Y27653000I500001J1D01*
G01*
X84050000Y29153000D02*
G75*
G03*
X83550000Y29653000I-500001J-1D01*
G01*
X83550000Y27653000D02*
G75*
G03*
X84050000Y28153000I-1J500001D01*
G01*
X82750000Y29653000D02*
G75*
G03*
X82250000Y29153000I1J-500001D01*
G01*
G36*
X85400000Y27853000D02*
G01*
X84400000Y28653000D01*
X85400000Y29453000D01*
X85400000Y27853000D01*
G37*
D13*
X85400000Y27853000D02*
X84400000Y28653000D01*
X85400000Y29453000D01*
X85400000Y27853000D01*
D11*
G04 #@! TO.C,F1*
X82976000Y49438064D02*
X82976000Y48233936D01*
X84796000Y49438064D02*
X84796000Y48233936D01*
D14*
G04 #@! TO.C,U1*
X51498000Y29116600D02*
G75*
G03*
X51498000Y29116600I0J0D01*
G01*
X89498000Y29116600D02*
G75*
G03*
X89498000Y29116600I0J0D01*
G01*
D11*
G04 #@! TO.C,L1*
X78090000Y80614936D02*
X78090000Y81819064D01*
X79910000Y80614936D02*
X79910000Y81819064D01*
D12*
G04 #@! TO.C,D1*
X45550000Y44153000D02*
X44750000Y44153000D01*
X46050000Y45653000D02*
X46050000Y44653000D01*
X44250000Y45653000D02*
X44250000Y44653000D01*
X44750000Y46153000D02*
X45550000Y46153000D01*
X46050000Y45653000D02*
G75*
G03*
X45550000Y46153000I-500001J-1D01*
G01*
X44750000Y46153000D02*
G75*
G03*
X44250000Y45653000I1J-500001D01*
G01*
X44250000Y44653000D02*
G75*
G03*
X44750000Y44153000I500001J1D01*
G01*
X45550000Y44153000D02*
G75*
G03*
X46050000Y44653000I-1J500001D01*
G01*
G36*
X47400000Y44353000D02*
G01*
X46400000Y45153000D01*
X47400000Y45953000D01*
X47400000Y44353000D01*
G37*
D13*
X47400000Y44353000D02*
X46400000Y45153000D01*
X47400000Y45953000D01*
X47400000Y44353000D01*
D11*
G04 #@! TO.C,L1*
X98910000Y14614936D02*
X98910000Y15819064D01*
X97090000Y14614936D02*
X97090000Y15819064D01*
D12*
G04 #@! TO.C,D1*
X26550000Y27653000D02*
X25750000Y27653000D01*
X27050000Y29153000D02*
X27050000Y28153000D01*
X25750000Y29653000D02*
X26550000Y29653000D01*
X25250000Y29153000D02*
X25250000Y28153000D01*
X25750000Y29653000D02*
G75*
G03*
X25250000Y29153000I1J-500001D01*
G01*
X25250000Y28153000D02*
G75*
G03*
X25750000Y27653000I500001J1D01*
G01*
X26550000Y27653000D02*
G75*
G03*
X27050000Y28153000I-1J500001D01*
G01*
X27050000Y29153000D02*
G75*
G03*
X26550000Y29653000I-500001J-1D01*
G01*
G36*
X28400000Y27853000D02*
G01*
X27400000Y28653000D01*
X28400000Y29453000D01*
X28400000Y27853000D01*
G37*
D13*
X28400000Y27853000D02*
X27400000Y28653000D01*
X28400000Y29453000D01*
X28400000Y27853000D01*
D14*
G04 #@! TO.C,U1*
X70498000Y78616600D02*
G75*
G03*
X70498000Y78616600I0J0D01*
G01*
D11*
G04 #@! TO.C,F1*
X6976000Y49438064D02*
X6976000Y48233936D01*
X8796000Y49438064D02*
X8796000Y48233936D01*
G04 #@! TO.C,R1*
X39028000Y44353641D02*
X39028000Y44046359D01*
X38268000Y44353641D02*
X38268000Y44046359D01*
G04 #@! TO.C,R2*
X59628000Y44753641D02*
X59628000Y44446359D01*
X58868000Y44753641D02*
X58868000Y44446359D01*
X78628000Y44753641D02*
X78628000Y44446359D01*
X77868000Y44753641D02*
X77868000Y44446359D01*
G04 #@! TO.C,R1*
X95268000Y77353641D02*
X95268000Y77046359D01*
X96028000Y77353641D02*
X96028000Y77046359D01*
G04 #@! TO.C,J2*
X29900000Y39050000D02*
X30600000Y39050000D01*
X36700000Y44100000D02*
X37400000Y44100000D01*
X37400000Y44100000D02*
X37400000Y43100000D01*
X37400000Y39050000D02*
X38100000Y39050000D01*
X38100000Y39050000D02*
X38100000Y40050000D01*
X30600000Y44100000D02*
X31300000Y44100000D01*
X30600000Y44100000D02*
X30600000Y43100000D01*
X29900000Y39050000D02*
X29900000Y40050000D01*
G36*
X31692000Y44562000D02*
G01*
X30930000Y44816000D01*
X31438000Y45324000D01*
X31692000Y44562000D01*
G37*
X31692000Y44562000D02*
X30930000Y44816000D01*
X31438000Y45324000D01*
X31692000Y44562000D01*
D12*
G04 #@! TO.C,D1*
X63250000Y12653000D02*
X63250000Y11653000D01*
X65050000Y12653000D02*
X65050000Y11653000D01*
X63750000Y13153000D02*
X64550000Y13153000D01*
X64550000Y11153000D02*
X63750000Y11153000D01*
X65050000Y12653000D02*
G75*
G03*
X64550000Y13153000I-500001J-1D01*
G01*
X63750000Y13153000D02*
G75*
G03*
X63250000Y12653000I1J-500001D01*
G01*
X63250000Y11653000D02*
G75*
G03*
X63750000Y11153000I500001J1D01*
G01*
X64550000Y11153000D02*
G75*
G03*
X65050000Y11653000I-1J500001D01*
G01*
G36*
X66400000Y11353000D02*
G01*
X65400000Y12153000D01*
X66400000Y12953000D01*
X66400000Y11353000D01*
G37*
D13*
X66400000Y11353000D02*
X65400000Y12153000D01*
X66400000Y12953000D01*
X66400000Y11353000D01*
D12*
X8050000Y29153000D02*
X8050000Y28153000D01*
X6250000Y29153000D02*
X6250000Y28153000D01*
X7550000Y27653000D02*
X6750000Y27653000D01*
X6750000Y29653000D02*
X7550000Y29653000D01*
X6250000Y28153000D02*
G75*
G03*
X6750000Y27653000I500001J1D01*
G01*
X6750000Y29653000D02*
G75*
G03*
X6250000Y29153000I1J-500001D01*
G01*
X8050000Y29153000D02*
G75*
G03*
X7550000Y29653000I-500001J-1D01*
G01*
X7550000Y27653000D02*
G75*
G03*
X8050000Y28153000I-1J500001D01*
G01*
G36*
X9400000Y27853000D02*
G01*
X8400000Y28653000D01*
X9400000Y29453000D01*
X9400000Y27853000D01*
G37*
D13*
X9400000Y27853000D02*
X8400000Y28653000D01*
X9400000Y29453000D01*
X9400000Y27853000D01*
D11*
G04 #@! TO.C,R2*
X21628000Y28253641D02*
X21628000Y27946359D01*
X20868000Y28253641D02*
X20868000Y27946359D01*
G04 #@! TO.C,F1*
X6976000Y32938064D02*
X6976000Y31733936D01*
X8796000Y32938064D02*
X8796000Y31733936D01*
G04 #@! TO.C,R2*
X21628000Y61253641D02*
X21628000Y60946359D01*
X20868000Y61253641D02*
X20868000Y60946359D01*
G04 #@! TO.C,J2*
X67900000Y55550000D02*
X67900000Y56550000D01*
X67900000Y55550000D02*
X68600000Y55550000D01*
X74700000Y60600000D02*
X75400000Y60600000D01*
X76100000Y55550000D02*
X76100000Y56550000D01*
X75400000Y55550000D02*
X76100000Y55550000D01*
X68600000Y60600000D02*
X69300000Y60600000D01*
X75400000Y60600000D02*
X75400000Y59600000D01*
X68600000Y60600000D02*
X68600000Y59600000D01*
G36*
X69692000Y61062000D02*
G01*
X68930000Y61316000D01*
X69438000Y61824000D01*
X69692000Y61062000D01*
G37*
X69692000Y61062000D02*
X68930000Y61316000D01*
X69438000Y61824000D01*
X69692000Y61062000D01*
D12*
G04 #@! TO.C,D1*
X82250000Y78653000D02*
X82250000Y77653000D01*
X82750000Y79153000D02*
X83550000Y79153000D01*
X84050000Y78653000D02*
X84050000Y77653000D01*
X83550000Y77153000D02*
X82750000Y77153000D01*
X82750000Y79153000D02*
G75*
G03*
X82250000Y78653000I1J-500001D01*
G01*
X84050000Y78653000D02*
G75*
G03*
X83550000Y79153000I-500001J-1D01*
G01*
X83550000Y77153000D02*
G75*
G03*
X84050000Y77653000I-1J500001D01*
G01*
X82250000Y77653000D02*
G75*
G03*
X82750000Y77153000I500001J1D01*
G01*
G36*
X85400000Y77353000D02*
G01*
X84400000Y78153000D01*
X85400000Y78953000D01*
X85400000Y77353000D01*
G37*
D13*
X85400000Y77353000D02*
X84400000Y78153000D01*
X85400000Y78953000D01*
X85400000Y77353000D01*
D12*
X6250000Y62153000D02*
X6250000Y61153000D01*
X7550000Y60653000D02*
X6750000Y60653000D01*
X6750000Y62653000D02*
X7550000Y62653000D01*
X8050000Y62153000D02*
X8050000Y61153000D01*
X8050000Y62153000D02*
G75*
G03*
X7550000Y62653000I-500001J-1D01*
G01*
X7550000Y60653000D02*
G75*
G03*
X8050000Y61153000I-1J500001D01*
G01*
X6750000Y62653000D02*
G75*
G03*
X6250000Y62153000I1J-500001D01*
G01*
X6250000Y61153000D02*
G75*
G03*
X6750000Y60653000I500001J1D01*
G01*
G36*
X9400000Y60853000D02*
G01*
X8400000Y61653000D01*
X9400000Y62453000D01*
X9400000Y60853000D01*
G37*
D13*
X9400000Y60853000D02*
X8400000Y61653000D01*
X9400000Y62453000D01*
X9400000Y60853000D01*
D11*
G04 #@! TO.C,F1*
X65796000Y49438064D02*
X65796000Y48233936D01*
X63976000Y49438064D02*
X63976000Y48233936D01*
G04 #@! TO.C,R2*
X40628000Y44753641D02*
X40628000Y44446359D01*
X39868000Y44753641D02*
X39868000Y44446359D01*
G04 #@! TO.C,L1*
X97090000Y47614936D02*
X97090000Y48819064D01*
X98910000Y47614936D02*
X98910000Y48819064D01*
G04 #@! TO.C,J2*
X76100000Y22550000D02*
X76100000Y23550000D01*
X67900000Y22550000D02*
X67900000Y23550000D01*
X74700000Y27600000D02*
X75400000Y27600000D01*
X75400000Y27600000D02*
X75400000Y26600000D01*
X67900000Y22550000D02*
X68600000Y22550000D01*
X68600000Y27600000D02*
X69300000Y27600000D01*
X68600000Y27600000D02*
X68600000Y26600000D01*
X75400000Y22550000D02*
X76100000Y22550000D01*
G36*
X69692000Y28062000D02*
G01*
X68930000Y28316000D01*
X69438000Y28824000D01*
X69692000Y28062000D01*
G37*
X69692000Y28062000D02*
X68930000Y28316000D01*
X69438000Y28824000D01*
X69692000Y28062000D01*
G04 #@! TO.C,R2*
X58868000Y77753641D02*
X58868000Y77446359D01*
X59628000Y77753641D02*
X59628000Y77446359D01*
G04 #@! TO.C,J2*
X95100000Y6050000D02*
X95100000Y7050000D01*
X94400000Y11100000D02*
X94400000Y10100000D01*
X87600000Y11100000D02*
X88300000Y11100000D01*
X93700000Y11100000D02*
X94400000Y11100000D01*
X86900000Y6050000D02*
X87600000Y6050000D01*
X87600000Y11100000D02*
X87600000Y10100000D01*
X86900000Y6050000D02*
X86900000Y7050000D01*
X94400000Y6050000D02*
X95100000Y6050000D01*
G36*
X88692000Y11562000D02*
G01*
X87930000Y11816000D01*
X88438000Y12324000D01*
X88692000Y11562000D01*
G37*
X88692000Y11562000D02*
X87930000Y11816000D01*
X88438000Y12324000D01*
X88692000Y11562000D01*
D12*
G04 #@! TO.C,D1*
X7550000Y44153000D02*
X6750000Y44153000D01*
X8050000Y45653000D02*
X8050000Y44653000D01*
X6750000Y46153000D02*
X7550000Y46153000D01*
X6250000Y45653000D02*
X6250000Y44653000D01*
X7550000Y44153000D02*
G75*
G03*
X8050000Y44653000I-1J500001D01*
G01*
X8050000Y45653000D02*
G75*
G03*
X7550000Y46153000I-500001J-1D01*
G01*
X6250000Y44653000D02*
G75*
G03*
X6750000Y44153000I500001J1D01*
G01*
X6750000Y46153000D02*
G75*
G03*
X6250000Y45653000I1J-500001D01*
G01*
G36*
X9400000Y44353000D02*
G01*
X8400000Y45153000D01*
X9400000Y45953000D01*
X9400000Y44353000D01*
G37*
D13*
X9400000Y44353000D02*
X8400000Y45153000D01*
X9400000Y45953000D01*
X9400000Y44353000D01*
D11*
G04 #@! TO.C,R1*
X77028000Y11353641D02*
X77028000Y11046359D01*
X76268000Y11353641D02*
X76268000Y11046359D01*
D12*
G04 #@! TO.C,D1*
X44250000Y78653000D02*
X44250000Y77653000D01*
X44750000Y79153000D02*
X45550000Y79153000D01*
X45550000Y77153000D02*
X44750000Y77153000D01*
X46050000Y78653000D02*
X46050000Y77653000D01*
X44750000Y79153000D02*
G75*
G03*
X44250000Y78653000I1J-500001D01*
G01*
X45550000Y77153000D02*
G75*
G03*
X46050000Y77653000I-1J500001D01*
G01*
X44250000Y77653000D02*
G75*
G03*
X44750000Y77153000I500001J1D01*
G01*
X46050000Y78653000D02*
G75*
G03*
X45550000Y79153000I-500001J-1D01*
G01*
G36*
X47400000Y77353000D02*
G01*
X46400000Y78153000D01*
X47400000Y78953000D01*
X47400000Y77353000D01*
G37*
D13*
X47400000Y77353000D02*
X46400000Y78153000D01*
X47400000Y78953000D01*
X47400000Y77353000D01*
D14*
G04 #@! TO.C,U1*
X51498000Y62116600D02*
G75*
G03*
X51498000Y62116600I0J0D01*
G01*
D11*
G04 #@! TO.C,F1*
X25976000Y16438064D02*
X25976000Y15233936D01*
X27796000Y16438064D02*
X27796000Y15233936D01*
G04 #@! TO.C,R1*
X77028000Y77353641D02*
X77028000Y77046359D01*
X76268000Y77353641D02*
X76268000Y77046359D01*
G04 #@! TO.C,J2*
X76100000Y6050000D02*
X76100000Y7050000D01*
X75400000Y6050000D02*
X76100000Y6050000D01*
X74700000Y11100000D02*
X75400000Y11100000D01*
X68600000Y11100000D02*
X69300000Y11100000D01*
X68600000Y11100000D02*
X68600000Y10100000D01*
X67900000Y6050000D02*
X68600000Y6050000D01*
X75400000Y11100000D02*
X75400000Y10100000D01*
X67900000Y6050000D02*
X67900000Y7050000D01*
G36*
X69692000Y11562000D02*
G01*
X68930000Y11816000D01*
X69438000Y12324000D01*
X69692000Y11562000D01*
G37*
X69692000Y11562000D02*
X68930000Y11816000D01*
X69438000Y12324000D01*
X69692000Y11562000D01*
X86900000Y22550000D02*
X86900000Y23550000D01*
X94400000Y27600000D02*
X94400000Y26600000D01*
X87600000Y27600000D02*
X87600000Y26600000D01*
X94400000Y22550000D02*
X95100000Y22550000D01*
X87600000Y27600000D02*
X88300000Y27600000D01*
X95100000Y22550000D02*
X95100000Y23550000D01*
X93700000Y27600000D02*
X94400000Y27600000D01*
X86900000Y22550000D02*
X87600000Y22550000D01*
G36*
X88692000Y28062000D02*
G01*
X87930000Y28316000D01*
X88438000Y28824000D01*
X88692000Y28062000D01*
G37*
X88692000Y28062000D02*
X87930000Y28316000D01*
X88438000Y28824000D01*
X88692000Y28062000D01*
D14*
G04 #@! TO.C,U1*
X13498000Y78616600D02*
G75*
G03*
X13498000Y78616600I0J0D01*
G01*
D11*
G04 #@! TO.C,J2*
X87600000Y60600000D02*
X88300000Y60600000D01*
X93700000Y60600000D02*
X94400000Y60600000D01*
X94400000Y60600000D02*
X94400000Y59600000D01*
X87600000Y60600000D02*
X87600000Y59600000D01*
X94400000Y55550000D02*
X95100000Y55550000D01*
X95100000Y55550000D02*
X95100000Y56550000D01*
X86900000Y55550000D02*
X86900000Y56550000D01*
X86900000Y55550000D02*
X87600000Y55550000D01*
G36*
X88692000Y61062000D02*
G01*
X87930000Y61316000D01*
X88438000Y61824000D01*
X88692000Y61062000D01*
G37*
X88692000Y61062000D02*
X87930000Y61316000D01*
X88438000Y61824000D01*
X88692000Y61062000D01*
D12*
G04 #@! TO.C,D1*
X63750000Y29653000D02*
X64550000Y29653000D01*
X64550000Y27653000D02*
X63750000Y27653000D01*
X65050000Y29153000D02*
X65050000Y28153000D01*
X63250000Y29153000D02*
X63250000Y28153000D01*
X63750000Y29653000D02*
G75*
G03*
X63250000Y29153000I1J-500001D01*
G01*
X64550000Y27653000D02*
G75*
G03*
X65050000Y28153000I-1J500001D01*
G01*
X63250000Y28153000D02*
G75*
G03*
X63750000Y27653000I500001J1D01*
G01*
X65050000Y29153000D02*
G75*
G03*
X64550000Y29653000I-500001J-1D01*
G01*
G36*
X66400000Y27853000D02*
G01*
X65400000Y28653000D01*
X66400000Y29453000D01*
X66400000Y27853000D01*
G37*
D13*
X66400000Y27853000D02*
X65400000Y28653000D01*
X66400000Y29453000D01*
X66400000Y27853000D01*
D14*
G04 #@! TO.C,U1*
X32498000Y62116600D02*
G75*
G03*
X32498000Y62116600I0J0D01*
G01*
D11*
G04 #@! TO.C,R2*
X21628000Y44753641D02*
X21628000Y44446359D01*
X20868000Y44753641D02*
X20868000Y44446359D01*
G04 #@! TO.C,F1*
X25976000Y65938064D02*
X25976000Y64733936D01*
X27796000Y65938064D02*
X27796000Y64733936D01*
G04 #@! TO.C,R2*
X96868000Y61253641D02*
X96868000Y60946359D01*
X97628000Y61253641D02*
X97628000Y60946359D01*
X59628000Y28253641D02*
X59628000Y27946359D01*
X58868000Y28253641D02*
X58868000Y27946359D01*
G04 #@! TO.C,R1*
X76268000Y27853641D02*
X76268000Y27546359D01*
X77028000Y27853641D02*
X77028000Y27546359D01*
D14*
G04 #@! TO.C,U1*
X32498000Y29116600D02*
G75*
G03*
X32498000Y29116600I0J0D01*
G01*
D11*
G04 #@! TO.C,L1*
X98910000Y64114936D02*
X98910000Y65319064D01*
X97090000Y64114936D02*
X97090000Y65319064D01*
D14*
G04 #@! TO.C,U1*
X13498000Y29116600D02*
G75*
G03*
X13498000Y29116600I0J0D01*
G01*
D11*
G04 #@! TO.C,R1*
X96028000Y11353641D02*
X96028000Y11046359D01*
X95268000Y11353641D02*
X95268000Y11046359D01*
G04 #@! TO.C,L1*
X22910000Y47614936D02*
X22910000Y48819064D01*
X21090000Y47614936D02*
X21090000Y48819064D01*
G04 #@! TO.C,R1*
X38268000Y77353641D02*
X38268000Y77046359D01*
X39028000Y77353641D02*
X39028000Y77046359D01*
G04 #@! TO.C,L1*
X98910000Y80614936D02*
X98910000Y81819064D01*
X97090000Y80614936D02*
X97090000Y81819064D01*
G04 #@! TO.C,R2*
X20868000Y77753641D02*
X20868000Y77446359D01*
X21628000Y77753641D02*
X21628000Y77446359D01*
G04 #@! TO.C,L1*
X79910000Y47614936D02*
X79910000Y48819064D01*
X78090000Y47614936D02*
X78090000Y48819064D01*
D14*
G04 #@! TO.C,U1*
X70498000Y62116600D02*
G75*
G03*
X70498000Y62116600I0J0D01*
G01*
X89498000Y62116600D02*
G75*
G03*
X89498000Y62116600I0J0D01*
G01*
D11*
G04 #@! TO.C,R1*
X19268000Y27853641D02*
X19268000Y27546359D01*
X20028000Y27853641D02*
X20028000Y27546359D01*
D12*
G04 #@! TO.C,D1*
X65050000Y62153000D02*
X65050000Y61153000D01*
X63750000Y62653000D02*
X64550000Y62653000D01*
X63250000Y62153000D02*
X63250000Y61153000D01*
X64550000Y60653000D02*
X63750000Y60653000D01*
X63750000Y62653000D02*
G75*
G03*
X63250000Y62153000I1J-500001D01*
G01*
X64550000Y60653000D02*
G75*
G03*
X65050000Y61153000I-1J500001D01*
G01*
X63250000Y61153000D02*
G75*
G03*
X63750000Y60653000I500001J1D01*
G01*
X65050000Y62153000D02*
G75*
G03*
X64550000Y62653000I-500001J-1D01*
G01*
G36*
X66400000Y60853000D02*
G01*
X65400000Y61653000D01*
X66400000Y62453000D01*
X66400000Y60853000D01*
G37*
D13*
X66400000Y60853000D02*
X65400000Y61653000D01*
X66400000Y62453000D01*
X66400000Y60853000D01*
D11*
G04 #@! TO.C,R1*
X57268000Y11353641D02*
X57268000Y11046359D01*
X58028000Y11353641D02*
X58028000Y11046359D01*
G04 #@! TO.C,L1*
X22910000Y31114936D02*
X22910000Y32319064D01*
X21090000Y31114936D02*
X21090000Y32319064D01*
D12*
G04 #@! TO.C,D1*
X82250000Y62153000D02*
X82250000Y61153000D01*
X84050000Y62153000D02*
X84050000Y61153000D01*
X83550000Y60653000D02*
X82750000Y60653000D01*
X82750000Y62653000D02*
X83550000Y62653000D01*
X83550000Y60653000D02*
G75*
G03*
X84050000Y61153000I-1J500001D01*
G01*
X82750000Y62653000D02*
G75*
G03*
X82250000Y62153000I1J-500001D01*
G01*
X82250000Y61153000D02*
G75*
G03*
X82750000Y60653000I500001J1D01*
G01*
X84050000Y62153000D02*
G75*
G03*
X83550000Y62653000I-500001J-1D01*
G01*
G36*
X85400000Y60853000D02*
G01*
X84400000Y61653000D01*
X85400000Y62453000D01*
X85400000Y60853000D01*
G37*
D13*
X85400000Y60853000D02*
X84400000Y61653000D01*
X85400000Y62453000D01*
X85400000Y60853000D01*
D11*
G04 #@! TO.C,F1*
X65796000Y16438064D02*
X65796000Y15233936D01*
X63976000Y16438064D02*
X63976000Y15233936D01*
G04 #@! TO.C,L1*
X21090000Y64114936D02*
X21090000Y65319064D01*
X22910000Y64114936D02*
X22910000Y65319064D01*
G04 #@! TO.C,F1*
X82976000Y32938064D02*
X82976000Y31733936D01*
X84796000Y32938064D02*
X84796000Y31733936D01*
D14*
G04 #@! TO.C,U1*
X89498000Y45616600D02*
G75*
G03*
X89498000Y45616600I0J0D01*
G01*
D12*
G04 #@! TO.C,D1*
X27050000Y78653000D02*
X27050000Y77653000D01*
X25750000Y79153000D02*
X26550000Y79153000D01*
X25250000Y78653000D02*
X25250000Y77653000D01*
X26550000Y77153000D02*
X25750000Y77153000D01*
X25250000Y77653000D02*
G75*
G03*
X25750000Y77153000I500001J1D01*
G01*
X26550000Y77153000D02*
G75*
G03*
X27050000Y77653000I-1J500001D01*
G01*
X27050000Y78653000D02*
G75*
G03*
X26550000Y79153000I-500001J-1D01*
G01*
X25750000Y79153000D02*
G75*
G03*
X25250000Y78653000I1J-500001D01*
G01*
G36*
X28400000Y77353000D02*
G01*
X27400000Y78153000D01*
X28400000Y78953000D01*
X28400000Y77353000D01*
G37*
D13*
X28400000Y77353000D02*
X27400000Y78153000D01*
X28400000Y78953000D01*
X28400000Y77353000D01*
D11*
G04 #@! TO.C,J2*
X18400000Y22550000D02*
X19100000Y22550000D01*
X10900000Y22550000D02*
X11600000Y22550000D01*
X11600000Y27600000D02*
X11600000Y26600000D01*
X11600000Y27600000D02*
X12300000Y27600000D01*
X18400000Y27600000D02*
X18400000Y26600000D01*
X10900000Y22550000D02*
X10900000Y23550000D01*
X19100000Y22550000D02*
X19100000Y23550000D01*
X17700000Y27600000D02*
X18400000Y27600000D01*
G36*
X12692000Y28062000D02*
G01*
X11930000Y28316000D01*
X12438000Y28824000D01*
X12692000Y28062000D01*
G37*
X12692000Y28062000D02*
X11930000Y28316000D01*
X12438000Y28824000D01*
X12692000Y28062000D01*
G04 #@! TO.C,R2*
X78628000Y28253641D02*
X78628000Y27946359D01*
X77868000Y28253641D02*
X77868000Y27946359D01*
G04 #@! TO.C,L1*
X40090000Y31114936D02*
X40090000Y32319064D01*
X41910000Y31114936D02*
X41910000Y32319064D01*
G04 #@! TO.C,R2*
X58868000Y61253641D02*
X58868000Y60946359D01*
X59628000Y61253641D02*
X59628000Y60946359D01*
G04 #@! TO.C,F1*
X46796000Y32938064D02*
X46796000Y31733936D01*
X44976000Y32938064D02*
X44976000Y31733936D01*
G04 #@! TO.C,R2*
X40628000Y77753641D02*
X40628000Y77446359D01*
X39868000Y77753641D02*
X39868000Y77446359D01*
G04 #@! TO.C,L1*
X79910000Y64114936D02*
X79910000Y65319064D01*
X78090000Y64114936D02*
X78090000Y65319064D01*
X60910000Y47614936D02*
X60910000Y48819064D01*
X59090000Y47614936D02*
X59090000Y48819064D01*
G04 #@! TO.C,F1*
X27796000Y32938064D02*
X27796000Y31733936D01*
X25976000Y32938064D02*
X25976000Y31733936D01*
X84796000Y65938064D02*
X84796000Y64733936D01*
X82976000Y65938064D02*
X82976000Y64733936D01*
G04 #@! TO.C,R2*
X77868000Y61253641D02*
X77868000Y60946359D01*
X78628000Y61253641D02*
X78628000Y60946359D01*
G04 #@! TO.C,J2*
X17700000Y44100000D02*
X18400000Y44100000D01*
X10900000Y39050000D02*
X10900000Y40050000D01*
X11600000Y44100000D02*
X11600000Y43100000D01*
X18400000Y44100000D02*
X18400000Y43100000D01*
X10900000Y39050000D02*
X11600000Y39050000D01*
X19100000Y39050000D02*
X19100000Y40050000D01*
X11600000Y44100000D02*
X12300000Y44100000D01*
X18400000Y39050000D02*
X19100000Y39050000D01*
G36*
X12692000Y44562000D02*
G01*
X11930000Y44816000D01*
X12438000Y45324000D01*
X12692000Y44562000D01*
G37*
X12692000Y44562000D02*
X11930000Y44816000D01*
X12438000Y45324000D01*
X12692000Y44562000D01*
D14*
G04 #@! TO.C,U1*
X32498000Y12616600D02*
G75*
G03*
X32498000Y12616600I0J0D01*
G01*
D11*
G04 #@! TO.C,R2*
X97628000Y77753641D02*
X97628000Y77446359D01*
X96868000Y77753641D02*
X96868000Y77446359D01*
G04 #@! TO.C,F1*
X6976000Y16438064D02*
X6976000Y15233936D01*
X8796000Y16438064D02*
X8796000Y15233936D01*
G04 #@! TO.C,J2*
X57100000Y39050000D02*
X57100000Y40050000D01*
X56400000Y44100000D02*
X56400000Y43100000D01*
X48900000Y39050000D02*
X48900000Y40050000D01*
X48900000Y39050000D02*
X49600000Y39050000D01*
X49600000Y44100000D02*
X49600000Y43100000D01*
X55700000Y44100000D02*
X56400000Y44100000D01*
X49600000Y44100000D02*
X50300000Y44100000D01*
X56400000Y39050000D02*
X57100000Y39050000D01*
G36*
X50692000Y44562000D02*
G01*
X49930000Y44816000D01*
X50438000Y45324000D01*
X50692000Y44562000D01*
G37*
X50692000Y44562000D02*
X49930000Y44816000D01*
X50438000Y45324000D01*
X50692000Y44562000D01*
G04 #@! TO.C,L1*
X59090000Y64114936D02*
X59090000Y65319064D01*
X60910000Y64114936D02*
X60910000Y65319064D01*
G04 #@! TO.C,F1*
X27796000Y49438064D02*
X27796000Y48233936D01*
X25976000Y49438064D02*
X25976000Y48233936D01*
G04 #@! TO.C,R1*
X95268000Y44353641D02*
X95268000Y44046359D01*
X96028000Y44353641D02*
X96028000Y44046359D01*
G04 #@! TO.C,J2*
X11600000Y60600000D02*
X11600000Y59600000D01*
X18400000Y55550000D02*
X19100000Y55550000D01*
X10900000Y55550000D02*
X10900000Y56550000D01*
X10900000Y55550000D02*
X11600000Y55550000D01*
X19100000Y55550000D02*
X19100000Y56550000D01*
X18400000Y60600000D02*
X18400000Y59600000D01*
X17700000Y60600000D02*
X18400000Y60600000D01*
X11600000Y60600000D02*
X12300000Y60600000D01*
G36*
X12692000Y61062000D02*
G01*
X11930000Y61316000D01*
X12438000Y61824000D01*
X12692000Y61062000D01*
G37*
X12692000Y61062000D02*
X11930000Y61316000D01*
X12438000Y61824000D01*
X12692000Y61062000D01*
X74700000Y77100000D02*
X75400000Y77100000D01*
X75400000Y77100000D02*
X75400000Y76100000D01*
X75400000Y72050000D02*
X76100000Y72050000D01*
X67900000Y72050000D02*
X68600000Y72050000D01*
X68600000Y77100000D02*
X69300000Y77100000D01*
X67900000Y72050000D02*
X67900000Y73050000D01*
X76100000Y72050000D02*
X76100000Y73050000D01*
X68600000Y77100000D02*
X68600000Y76100000D01*
G36*
X69692000Y77562000D02*
G01*
X68930000Y77816000D01*
X69438000Y78324000D01*
X69692000Y77562000D01*
G37*
X69692000Y77562000D02*
X68930000Y77816000D01*
X69438000Y78324000D01*
X69692000Y77562000D01*
G04 #@! TO.C,L1*
X60910000Y14614936D02*
X60910000Y15819064D01*
X59090000Y14614936D02*
X59090000Y15819064D01*
G04 #@! TO.C,R1*
X19268000Y11353641D02*
X19268000Y11046359D01*
X20028000Y11353641D02*
X20028000Y11046359D01*
G04 #@! TO.C,L1*
X59090000Y80614936D02*
X59090000Y81819064D01*
X60910000Y80614936D02*
X60910000Y81819064D01*
G04 #@! TO.C,J2*
X49600000Y60600000D02*
X50300000Y60600000D01*
X56400000Y55550000D02*
X57100000Y55550000D01*
X56400000Y60600000D02*
X56400000Y59600000D01*
X57100000Y55550000D02*
X57100000Y56550000D01*
X49600000Y60600000D02*
X49600000Y59600000D01*
X55700000Y60600000D02*
X56400000Y60600000D01*
X48900000Y55550000D02*
X49600000Y55550000D01*
X48900000Y55550000D02*
X48900000Y56550000D01*
G36*
X50692000Y61062000D02*
G01*
X49930000Y61316000D01*
X50438000Y61824000D01*
X50692000Y61062000D01*
G37*
X50692000Y61062000D02*
X49930000Y61316000D01*
X50438000Y61824000D01*
X50692000Y61062000D01*
D14*
G04 #@! TO.C,U1*
X13498000Y62116600D02*
G75*
G03*
X13498000Y62116600I0J0D01*
G01*
X70498000Y29116600D02*
G75*
G03*
X70498000Y29116600I0J0D01*
G01*
D11*
G04 #@! TO.C,J2*
X38100000Y55550000D02*
X38100000Y56550000D01*
X36700000Y60600000D02*
X37400000Y60600000D01*
X37400000Y55550000D02*
X38100000Y55550000D01*
X30600000Y60600000D02*
X30600000Y59600000D01*
X37400000Y60600000D02*
X37400000Y59600000D01*
X30600000Y60600000D02*
X31300000Y60600000D01*
X29900000Y55550000D02*
X30600000Y55550000D01*
X29900000Y55550000D02*
X29900000Y56550000D01*
G36*
X31692000Y61062000D02*
G01*
X30930000Y61316000D01*
X31438000Y61824000D01*
X31692000Y61062000D01*
G37*
X31692000Y61062000D02*
X30930000Y61316000D01*
X31438000Y61824000D01*
X31692000Y61062000D01*
G04 #@! TO.C,L1*
X41910000Y64114936D02*
X41910000Y65319064D01*
X40090000Y64114936D02*
X40090000Y65319064D01*
G04 #@! TO.C,J2*
X86900000Y72050000D02*
X87600000Y72050000D01*
X87600000Y77100000D02*
X88300000Y77100000D01*
X87600000Y77100000D02*
X87600000Y76100000D01*
X94400000Y77100000D02*
X94400000Y76100000D01*
X94400000Y72050000D02*
X95100000Y72050000D01*
X93700000Y77100000D02*
X94400000Y77100000D01*
X86900000Y72050000D02*
X86900000Y73050000D01*
X95100000Y72050000D02*
X95100000Y73050000D01*
G36*
X88692000Y77562000D02*
G01*
X87930000Y77816000D01*
X88438000Y78324000D01*
X88692000Y77562000D01*
G37*
X88692000Y77562000D02*
X87930000Y77816000D01*
X88438000Y78324000D01*
X88692000Y77562000D01*
G04 #@! TO.C,L1*
X41910000Y80614936D02*
X41910000Y81819064D01*
X40090000Y80614936D02*
X40090000Y81819064D01*
G04 #@! TO.C,R1*
X58028000Y60853641D02*
X58028000Y60546359D01*
X57268000Y60853641D02*
X57268000Y60546359D01*
G04 #@! TO.C,R2*
X96868000Y11753641D02*
X96868000Y11446359D01*
X97628000Y11753641D02*
X97628000Y11446359D01*
D14*
G04 #@! TO.C,U1*
X13498000Y12616600D02*
G75*
G03*
X13498000Y12616600I0J0D01*
G01*
D11*
G04 #@! TO.C,F1*
X46796000Y65938064D02*
X46796000Y64733936D01*
X44976000Y65938064D02*
X44976000Y64733936D01*
D14*
G04 #@! TO.C,U1*
X51498000Y78616600D02*
G75*
G03*
X51498000Y78616600I0J0D01*
G01*
D11*
G04 #@! TO.C,L1*
X98910000Y31114936D02*
X98910000Y32319064D01*
X97090000Y31114936D02*
X97090000Y32319064D01*
G04 #@! TD*
M02*
